<svg width="32" height="32" viewBox="0 0 32 32" fill="none" xmlns="http://www.w3.org/2000/svg">
<g id="account-pin-circle-fill">
<path id="Vector" d="M18.7072 27.6928L16 30.4L13.2928 27.6928C7.972 26.464 4 21.6928 4 16C4 9.376 9.376 4 16 4C22.624 4 28 9.376 28 16C28 21.6928 24.028 26.464 18.7072 27.6928ZM8.8276 20.0992C10.5892 22.7272 13.234 24.4 16.192 24.4C19.1488 24.4 21.7948 22.7284 23.5552 20.0992C21.5581 18.2327 18.9255 17.1962 16.192 17.2C13.4581 17.1959 10.825 18.2324 8.8276 20.0992ZM16 14.8C16.9548 14.8 17.8705 14.4207 18.5456 13.7456C19.2207 13.0705 19.6 12.1548 19.6 11.2C19.6 10.2452 19.2207 9.32955 18.5456 8.65442C17.8705 7.97928 16.9548 7.6 16 7.6C15.0452 7.6 14.1295 7.97928 13.4544 8.65442C12.7793 9.32955 12.4 10.2452 12.4 11.2C12.4 12.1548 12.7793 13.0705 13.4544 13.7456C14.1295 14.4207 15.0452 14.8 16 14.8Z" fill="#525866"/>
</g>
</svg>
