<svg width="32" height="32" viewBox="0 0 32 32" fill="none" xmlns="http://www.w3.org/2000/svg">
<g id="lock-fill">
<path id="Vector" d="M24.3992 13.6H25.5992C25.9175 13.6 26.2227 13.7264 26.4477 13.9515C26.6728 14.1765 26.7992 14.4817 26.7992 14.8V26.8C26.7992 27.1183 26.6728 27.4235 26.4477 27.6485C26.2227 27.8736 25.9175 28 25.5992 28H6.39922C6.08096 28 5.77573 27.8736 5.55069 27.6485C5.32565 27.4235 5.19922 27.1183 5.19922 26.8V14.8C5.19922 14.4817 5.32565 14.1765 5.55069 13.9515C5.77573 13.7264 6.08096 13.6 6.39922 13.6H7.59922V12.4C7.59922 11.2969 7.81649 10.2046 8.23863 9.18546C8.66077 8.16632 9.27951 7.24032 10.0595 6.4603C10.8395 5.68029 11.7655 5.06155 12.7847 4.63941C13.8038 4.21727 14.8961 4 15.9992 4C17.1023 4 18.1946 4.21727 19.2138 4.63941C20.2329 5.06155 21.1589 5.68029 21.9389 6.4603C22.7189 7.24032 23.3377 8.16632 23.7598 9.18546C24.1819 10.2046 24.3992 11.2969 24.3992 12.4V13.6ZM21.9992 13.6V12.4C21.9992 10.8087 21.3671 9.28258 20.2419 8.15736C19.1166 7.03214 17.5905 6.4 15.9992 6.4C14.4079 6.4 12.8818 7.03214 11.7566 8.15736C10.6314 9.28258 9.99922 10.8087 9.99922 12.4V13.6H21.9992ZM14.7992 18.4V23.2H17.1992V18.4H14.7992Z" fill="#525866"/>
</g>
</svg>
