<svg width="32" height="32" viewBox="0 0 32 32" fill="none" xmlns="http://www.w3.org/2000/svg">
<g id="user-add-fill">
<path id="Vector" d="M18.4 18.7024V28H6.40002C6.39965 26.5347 6.73473 25.0887 7.37958 23.7729C8.02444 22.457 8.96195 21.3063 10.1203 20.4088C11.2786 19.5114 12.627 18.8909 14.0622 18.5952C15.4974 18.2994 16.9812 18.3361 18.4 18.7024ZM16 17.2C12.022 17.2 8.80002 13.978 8.80002 9.99999C8.80002 6.02199 12.022 2.79999 16 2.79999C19.978 2.79999 23.2 6.02199 23.2 9.99999C23.2 13.978 19.978 17.2 16 17.2ZM23.2 22V18.4H25.6V22H29.2V24.4H25.6V28H23.2V24.4H19.6V22H23.2Z" fill="#525866"/>
</g>
</svg>
