<svg width="19" height="17" viewBox="0 0 19 17" fill="none" xmlns="http://www.w3.org/2000/svg">
<g clipPath="url(#clip0_3324_14626)">
<path d="M3.61273 16.4769C3.56764 16.4765 3.5231 16.4685 3.48093 16.4535L0.760478 15.4405C0.624233 15.3878 0.53753 15.262 0.543234 15.125C0.548801 14.9881 0.645523 14.8687 0.785805 14.8259L1.90763 14.4978V14.4976C1.98418 14.4762 2.04611 14.4235 2.07589 14.3545L3.2875 11.5497C3.3273 11.4441 3.29001 11.3267 3.19495 11.258C2.55156 10.8264 2.08217 10.2075 1.86103 9.49977C1.64003 8.79197 1.68012 8.03587 1.97487 7.3516L2.92569 5.14579C3.02659 4.91486 3.22198 4.73031 3.46901 4.63275C3.71603 4.53506 3.99465 4.53234 4.2439 4.625L9.11556 6.448L13.9926 4.61451C14.2418 4.52185 14.5204 4.5247 14.7675 4.62227C15.0145 4.71983 15.2099 4.90437 15.3108 5.13544L16.2616 7.34124C16.5563 8.02538 16.5964 8.78148 16.3754 9.48928C16.1543 10.1971 15.6849 10.816 15.0415 11.2475C14.9465 11.3163 14.9092 11.4336 14.949 11.5392L16.1606 14.3545C16.1904 14.4235 16.2523 14.4762 16.3288 14.4976L17.4507 14.8258V14.8259C17.5909 14.8687 17.6877 14.9881 17.6932 15.125C17.6989 15.262 17.6122 15.3878 17.476 15.4405L14.7555 16.4535C14.6179 16.5021 14.4622 16.4663 14.3647 16.3637C14.2675 16.2611 14.2488 16.1133 14.318 15.9925L14.8788 15.029V15.0289C14.911 14.9618 14.911 14.8852 14.8788 14.818L13.6981 12.0107C13.6547 11.9052 13.5378 11.8423 13.4177 11.8596C12.6315 11.9599 11.8317 11.8124 11.1464 11.4409C10.461 11.0692 9.92956 10.4951 9.63716 9.81003L9.12114 8.62254L8.60789 9.81003C8.31355 10.4935 7.78166 11.0661 7.09652 11.4365C6.41151 11.807 5.61272 11.9541 4.82724 11.8544C4.70756 11.839 4.59205 11.9013 4.54682 12.0055L3.33243 14.818C3.30571 14.8874 3.31183 14.9641 3.34927 15.0289L3.91011 15.9924V15.9926C3.96842 16.0923 3.96717 16.2129 3.90663 16.3115C3.84609 16.4101 3.73504 16.4727 3.61285 16.4769L3.61273 16.4769ZM13.454 11.4662C13.5893 11.4649 13.7219 11.5011 13.8348 11.5703C13.9478 11.6394 14.0359 11.7383 14.0878 11.8543L15.2911 14.6721C15.3665 14.8505 15.3531 15.0506 15.2546 15.219L14.7834 16.0211L17.1448 15.1436L16.2025 14.8675V14.8674C16.0055 14.8113 15.8467 14.6754 15.7706 14.4975L14.559 11.6954C14.5031 11.5634 14.4958 11.4179 14.5384 11.2817C14.581 11.1455 14.6712 11.0263 14.7946 10.9427C15.3627 10.5614 15.7773 10.0147 15.9724 9.38955C16.1675 8.76436 16.132 8.09649 15.8715 7.49211L14.9207 5.28373H14.9208C14.8618 5.14843 14.7481 5.03987 14.604 4.98172C14.4584 4.92577 14.295 4.92577 14.1496 4.98172L9.33135 6.76559V8.06768L10.0241 9.67191C10.2922 10.2878 10.7775 10.8007 11.4008 11.1268C12.024 11.4528 12.7479 11.5725 13.4541 11.4663L13.454 11.4662ZM1.09709 15.146L3.4585 16.0211L2.97892 15.219C2.88039 15.0506 2.86703 14.8504 2.94246 14.6721L4.15407 11.8543C4.21043 11.7222 4.313 11.6117 4.44521 11.5404C4.57756 11.4691 4.73176 11.441 4.88317 11.4611C5.57666 11.5493 6.28197 11.4193 6.88649 11.0917C7.49091 10.7641 7.95962 10.2578 8.21792 9.65367L8.91069 8.04943V6.74734L4.09211 4.97641C3.94668 4.92058 3.78329 4.92058 3.63786 4.97641C3.49368 5.03469 3.37984 5.14325 3.32084 5.27855L2.37298 7.49209C2.1112 8.09611 2.07474 8.76394 2.26944 9.38943C2.46413 10.0148 2.87873 10.5617 3.44709 10.9427C3.57053 11.0264 3.66072 11.1455 3.7033 11.2817C3.74603 11.4179 3.73879 11.5634 3.68271 11.6954L2.4711 14.5003C2.39511 14.678 2.23618 14.814 2.03926 14.87L1.09709 15.146ZM5.32924 11.0729C3.57364 11.0729 2.17973 9.49476 2.72094 7.90085C2.74808 7.81866 2.83019 7.76258 2.92288 7.76283H8.2096C8.27946 7.76258 8.34473 7.79488 8.38356 7.84877C8.42266 7.90253 8.43101 7.97063 8.40596 8.03111L7.74964 9.55459C7.55508 10.0029 7.22079 10.3868 6.78952 10.6574C6.35825 10.9279 5.84971 11.0726 5.32938 11.0729L5.32924 11.0729ZM3.08555 8.1535C2.52471 10.5911 6.29674 11.7264 7.35974 9.40868L7.90096 8.1535H3.08555ZM12.913 11.0729C12.3925 11.0726 11.8839 10.9279 11.4527 10.6574C11.0215 10.3868 10.6871 10.0029 10.4926 9.55457L9.83623 8.0311C9.81118 7.97062 9.81953 7.90251 9.85877 7.84876C9.89746 7.79487 9.96273 7.76256 10.0326 7.76282H15.3193C15.4121 7.76256 15.4941 7.81864 15.5212 7.90083C16.0626 9.49474 14.6715 11.0729 12.9131 11.0729L12.913 11.0729ZM10.3439 8.1535L10.8851 9.40868C11.9481 11.7265 15.7062 10.5884 15.1593 8.1535H10.3439ZM9.12119 5.15865C9.06524 5.15891 9.01166 5.13823 8.97256 5.1014L7.00932 3.2784C6.39226 2.70283 6.13717 2.03354 6.30818 1.43974C6.66708 0.257446 8.18167 0.192307 9.12119 1.03088C10.0607 0.192307 11.5752 0.257445 11.9454 1.43716C12.1164 2.03096 11.8612 2.70025 11.2442 3.27582L9.28098 5.09882V5.09869C9.23979 5.13953 9.18131 5.16149 9.12119 5.15865ZM7.69083 0.851324C6.42592 0.916457 6.40073 2.24724 7.29822 2.99986L9.12119 4.69262L10.9469 2.99986C12.5259 1.56491 10.8151 -0.0262857 9.26427 1.43738L9.26413 1.43725C9.18091 1.51065 9.05023 1.51065 8.96686 1.43725C8.64093 1.09389 8.18248 0.883381 7.69083 0.851324Z" fill="black"/>
</g>
<defs>
<clipPath id="clip0_3324_14626">
<rect width="18.2411" height="16.9382" fill="white"/>
</clipPath>
</defs>
</svg>
