<svg width="10" height="16" viewBox="0 0 10 16" fill="none" xmlns="http://www.w3.org/2000/svg">
<path d="M3.20311 3.54194C3.19415 3.5149 3.18953 3.48642 3.18953 3.45793V3.19216C3.18953 3.04537 3.07056 2.92627 2.92377 2.92627C2.77697 2.92627 2.658 3.04537 2.658 3.19216V3.45793C2.658 3.48641 2.65339 3.5149 2.64429 3.54194L2.49512 3.98945H3.35229L3.20311 3.54194Z" fill="black"/>
<path d="M4.23349 5.74476H4.22426C4.12442 5.74423 4.03051 5.79132 3.97116 5.87151C3.87712 5.99786 3.88965 6.17393 4.00057 6.28579L4.78428 7.06936L5.56784 6.28566C5.67877 6.17381 5.69129 5.99774 5.59739 5.87137C5.53566 5.78907 5.4378 5.74185 5.33506 5.74476C5.23218 5.74766 5.13722 5.80015 5.08011 5.88575L5.00533 5.99786C4.95613 6.07185 4.87304 6.11616 4.78428 6.11616C4.69538 6.11616 4.61242 6.07185 4.56309 5.99786L4.48831 5.88575C4.43173 5.79962 4.33637 5.747 4.23349 5.74476Z" fill="black"/>
<path d="M4.51788 1.51913V5.58401H5.0494L5.04953 1.51913L5.8414 0.727255C5.92199 0.647723 5.96762 0.539441 5.96802 0.426277C5.96842 0.313112 5.9237 0.204435 5.84365 0.124377C5.76359 0.0444497 5.65504 -0.000392454 5.54188 2.58818e-06C5.42871 0.00039763 5.3203 0.0460334 5.2409 0.126619L5.0515 0.316016C4.90365 0.463866 4.66375 0.463866 4.5159 0.316016L4.3265 0.126619C4.16071 -0.0393024 3.89179 -0.0391707 3.726 0.126619C3.56008 0.292408 3.56008 0.561334 3.726 0.727252L4.51788 1.51913Z" fill="black"/>
<path d="M3.18973 2.12869C3.18973 2.27548 3.07076 2.39445 2.92396 2.39445C2.77717 2.39445 2.6582 2.27548 2.6582 2.12869C2.6582 1.98189 2.77717 1.86279 2.92396 1.86279C3.07076 1.86279 3.18973 1.98189 3.18973 2.12869Z" fill="black"/>
<path d="M6.91095 8.24196C7.07569 8.2417 7.23646 8.19052 7.37099 8.09543C7.50565 8.0002 7.60747 7.86567 7.6626 7.71045H6.15918C6.21431 7.86569 6.31613 8.00021 6.45079 8.09543C6.58532 8.19052 6.74608 8.2417 6.91095 8.24196Z" fill="black"/>
<path d="M6.91056 2.12869C6.91056 2.27548 6.79147 2.39445 6.64467 2.39445C6.49787 2.39445 6.37891 2.27548 6.37891 2.12869C6.37891 1.98189 6.49787 1.86279 6.64467 1.86279C6.79147 1.86279 6.91056 1.98189 6.91056 2.12869Z" fill="black"/>
<path d="M2.6582 4.521H3.18972V5.05251H2.6582V4.521Z" fill="black"/>
<path d="M6.91056 3.19216C6.91056 3.04537 6.79147 2.92627 6.64467 2.92627C6.49787 2.92627 6.37891 3.04537 6.37891 3.19216V3.72368H6.91042L6.91056 3.19216Z" fill="black"/>
<path d="M5.94359 6.66086L5.42578 7.17867H7.17626V5.58398H6.04438C6.15477 5.7474 6.20502 5.94405 6.18669 6.14042C6.16835 6.33681 6.08234 6.52067 5.94359 6.66086Z" fill="black"/>
<path d="M6.37891 4.25488H6.91042V5.05229H6.37891V4.25488Z" fill="black"/>
<path d="M4.78484 8.24196C4.94957 8.2417 5.11035 8.19052 5.24488 8.09543C5.37954 8.0002 5.48136 7.86567 5.53649 7.71045H4.0332C4.0882 7.86569 4.19015 8.00021 4.32468 8.09543C4.45921 8.19052 4.61997 8.2417 4.78484 8.24196Z" fill="black"/>
<path d="M8.77163 11.1647C8.4899 11.3766 8.13524 11.4678 7.78625 11.4179C7.43713 11.3681 7.12231 11.1813 6.91115 10.8989C6.66042 11.2341 6.26645 11.4314 5.84798 11.4314C5.4295 11.4314 5.03541 11.2341 4.78481 10.8989C4.53408 11.2341 4.14011 11.4314 3.72164 11.4314C3.30316 11.4314 2.90906 11.2341 2.65847 10.8989C2.44731 11.1813 2.13235 11.3681 1.78336 11.4179C1.43424 11.4678 1.07972 11.3766 0.797852 11.1647V11.9628H8.77163V11.1647Z" fill="black"/>
<path d="M5.31593 14.6206H4.25276C4.0879 14.6207 3.92712 14.6719 3.79259 14.7671C3.65793 14.8624 3.55611 14.9968 3.50098 15.1521H6.06784H6.06771C6.01258 14.9967 5.91076 14.8624 5.77609 14.7671C5.64156 14.6719 5.4808 14.6207 5.31593 14.6206Z" fill="black"/>
<path d="M4.51855 13.5576H5.05007V14.0891H4.51855V13.5576Z" fill="black"/>
<path d="M0 12.4951V12.5071C0.0002638 12.6448 0.0549995 12.777 0.152467 12.8743C0.249803 12.9718 0.381828 13.0265 0.519654 13.0266H9.04885C9.18668 13.0265 9.3187 12.9718 9.41617 12.8743C9.51351 12.777 9.56837 12.6448 9.56851 12.5071V12.4951H0Z" fill="black"/>
<path d="M3.62523 6.66086C3.48647 6.52066 3.40048 6.3368 3.38215 6.14042C3.36381 5.94404 3.41407 5.74737 3.52446 5.58398H2.39258V7.17867H4.14305L3.62523 6.66086Z" fill="black"/>
<path d="M1.59527 10.8999C1.80669 10.8998 2.00928 10.8157 2.15883 10.6662C2.30826 10.5167 2.39241 10.3141 2.39254 10.1027C2.39254 9.95588 2.51164 9.83691 2.65843 9.83691H0.797852V10.1027C0.798115 10.3141 0.88213 10.5167 1.0317 10.6662C1.18113 10.8157 1.38387 10.8998 1.59527 10.8999Z" fill="black"/>
<path d="M7.17689 10.1027C7.17689 10.3876 7.32883 10.6508 7.57561 10.7933C7.82225 10.9356 8.12628 10.9356 8.37289 10.7933C8.61966 10.6508 8.77161 10.3875 8.77161 10.1027V9.83691H6.91113C6.98156 9.83691 7.04922 9.86487 7.09908 9.91473C7.1488 9.96459 7.17689 10.0321 7.17689 10.1027Z" fill="black"/>
<path d="M2.65789 8.24196C2.82262 8.2417 2.98339 8.19052 3.11793 8.09543C3.25259 8.0002 3.35441 7.86567 3.40954 7.71045H1.90625C1.96138 7.86569 2.0632 8.00021 2.19773 8.09543C2.33226 8.19052 2.49302 8.2417 2.65789 8.24196Z" fill="black"/>
<path d="M2.92396 10.1027C2.92396 10.3876 3.0759 10.6508 3.32268 10.7933C3.56932 10.9356 3.87335 10.9356 4.1201 10.7933C4.36673 10.6508 4.51868 10.3875 4.51868 10.1027C4.51868 9.95588 4.63778 9.83691 4.78458 9.83691H2.6582C2.72863 9.83691 2.79629 9.86487 2.84615 9.91473C2.896 9.96459 2.92396 10.0321 2.92396 10.1027Z" fill="black"/>
<path d="M5.04996 10.1023C5.04996 10.3871 5.2019 10.6504 5.44868 10.7928C5.69532 10.9351 5.99934 10.9351 6.24596 10.7928C6.49273 10.6504 6.64468 10.3871 6.64468 10.1023C6.64468 9.95546 6.76378 9.83649 6.91058 9.83649H6.38973V9.30484H7.97361V8.24072C7.72302 8.57586 7.32905 8.77319 6.91058 8.77319C6.49197 8.77319 6.098 8.57587 5.84741 8.24072C5.59668 8.57586 5.20271 8.77319 4.78424 8.77319C4.36576 8.77319 3.97166 8.57587 3.72107 8.24072C3.47034 8.57586 3.07637 8.77319 2.6579 8.77319C2.23939 8.77319 1.84533 8.57587 1.59473 8.24072V9.30484H5.84396V9.83636L4.7842 9.83649C4.85463 9.83649 4.92229 9.86445 4.97215 9.9143C5.022 9.96416 5.04996 10.0317 5.04996 10.1023Z" fill="black"/>
</svg>
