<svg width="15" height="15" viewBox="0 0 15 15" fill="none" xmlns="http://www.w3.org/2000/svg">
<path d="M5.9758 0.197438C6.10228 0.0712169 6.27361 0.000393216 6.45232 0.000393216C6.63103 0.000393216 6.80235 0.0712203 6.92883 0.197438L7.06178 0.330385V0.330253C7.11163 0.380109 7.17916 0.40807 7.24972 0.40807C7.32015 0.40807 7.38781 0.380109 7.43767 0.330253L7.57062 0.197306L7.57049 0.197438C7.74076 0.0271646 7.98899 -0.0393071 8.22149 0.0229441C8.45402 0.0853304 8.63565 0.266945 8.69801 0.49946C8.76026 0.731984 8.69379 0.980196 8.52352 1.15047L7.24969 2.42429L5.97576 1.15047C5.84928 1.02398 5.77832 0.852658 5.77832 0.673954C5.77832 0.495108 5.84928 0.323784 5.97576 0.197438H5.9758Z" fill="black"/>
<path d="M10.523 5.69572C10.9445 5.59812 11.2708 5.60525 11.5202 5.71762C11.9222 5.89871 12.1215 6.35083 12.174 6.71339C12.2082 6.94961 12.1894 7.14902 12.1182 7.30626C12.0447 7.46862 11.9049 7.58561 11.7622 7.6042C11.6917 7.61344 11.6277 7.65063 11.5847 7.70734C11.5417 7.76406 11.5232 7.83567 11.5335 7.9061C11.5897 8.2923 11.616 8.71618 11.3852 8.93129C11.2498 9.05751 11.019 9.11238 10.6798 9.09945C9.90466 9.06753 9.15513 8.81324 8.52059 8.3668C8.55897 8.27487 8.57863 8.17622 8.57863 8.07651V7.46439C8.57863 7.2717 8.50503 7.08627 8.37261 6.94618C8.9487 6.32431 9.69759 5.88882 10.523 5.69572ZM6.45237 7.4644C6.45263 7.34002 6.5534 7.23913 6.6779 7.23886H7.82153C7.94604 7.23913 8.04694 7.34002 8.04707 7.4644V8.07651C8.04694 8.20102 7.94604 8.30191 7.82153 8.30205H6.6779C6.5534 8.30191 6.4525 8.20102 6.45237 8.07651V7.4644ZM2.28282 6.69282C2.36406 6.24753 2.75737 5.83922 3.26144 5.67644C3.70737 5.53255 4.25313 5.55352 4.83952 5.73672C5.81855 6.04284 6.12084 6.589 6.21305 6.86742C6.02866 7.01065 5.92078 7.23092 5.92064 7.46437V8.07648C5.92064 8.15786 5.93383 8.23884 5.95968 8.316C5.09501 8.75271 4.37316 8.94986 3.76051 8.91663C3.6364 8.91004 3.4805 8.89302 3.37458 8.82141C3.17028 8.68318 3.1323 8.34476 3.12188 7.99959C3.11805 7.87719 3.0314 7.77326 2.91164 7.74767C2.49803 7.65931 2.19824 7.15653 2.28278 6.69281L2.28282 6.69282ZM1.98501 13.7165V13.7163C1.73388 13.7165 1.49093 13.6276 1.29905 13.4656C1.10728 13.3036 0.978948 13.0789 0.93676 12.8313C0.894686 12.5839 0.941639 12.3294 1.06918 12.1131L2.5254 13.5692C2.36185 13.666 2.17509 13.7167 1.98517 13.7164L1.98501 13.7165ZM4.73126 13.9449L4.73139 13.9448C4.59119 14.1692 4.4626 14.4007 4.34614 14.6384L0 10.2922C0.7626 9.91952 1.45794 9.42255 2.05753 8.82191L2.60542 8.27402C2.64077 8.66866 2.74615 9.03821 3.07694 9.2619C3.291 9.40672 3.53934 9.43718 3.7319 9.4476C4.21767 9.47424 4.75117 9.38099 5.3456 9.16482L5.34573 9.16469C5.10608 9.50602 4.89926 9.86912 4.72781 10.2494C4.41193 10.9491 3.96625 12.3169 4.53182 13.6162L4.53168 13.616C4.57389 13.7131 4.66964 13.7758 4.77542 13.7758C4.77872 13.7758 4.78228 13.7758 4.78584 13.7755L4.78571 13.7756C4.80576 13.7746 4.82554 13.7711 4.8448 13.7656L4.73126 13.9449ZM6.085 12.5189H6.08513C5.63907 12.4316 5.1789 12.573 4.85882 12.8956C4.74183 12.341 4.7384 11.5176 5.21229 10.4681C5.49586 9.83909 5.88427 9.26287 6.36096 8.7639C6.44484 8.80281 6.53532 8.82589 6.62764 8.83196C5.96937 9.94183 5.77442 11.2663 6.08518 12.5187L6.085 12.5189ZM6.68354 11.7136L6.50602 11.8911C6.44429 11.406 6.46421 10.9139 6.56471 10.4353C6.63171 10.7836 6.75595 11.1183 6.93257 11.4259C6.85647 11.5275 6.77338 11.6235 6.68369 11.7134L6.68354 11.7136ZM7.12602 9.15246H7.12616C7.4427 9.98036 7.67364 10.8383 7.81569 11.7131C7.14739 11.0425 6.88508 10.0678 7.12616 9.15233L7.12602 9.15246ZM8.4692 12.6697C8.35907 11.3542 8.05704 10.0618 7.57272 8.83373H7.82161C7.90747 8.83373 7.99254 8.81909 8.07339 8.79047C8.22045 9.06098 8.41076 9.29484 8.59633 9.52234C8.70843 9.65991 8.81434 9.78982 8.91115 9.92711C9.37001 10.5781 9.62338 11.3497 9.83427 12.126V12.1261C9.53962 12.0868 9.24008 12.1414 8.97841 12.2823C8.78981 12.3846 8.6181 12.5152 8.4692 12.6697ZM13.2664 13.4048C13.0996 13.5716 12.8824 13.6781 12.6485 13.7078C12.4147 13.7376 12.1775 13.6888 11.9744 13.5692L13.4305 12.1131C13.5499 12.3163 13.5985 12.5533 13.5688 12.7871C13.5392 13.0208 13.4327 13.2381 13.2664 13.4048ZM10.1537 14.6381C9.84755 14.0121 9.45728 13.4307 8.99393 12.9101C9.06621 12.8496 9.14455 12.7965 9.22764 12.7518C9.47758 12.6193 9.8403 12.5864 10.0497 12.78C10.1364 12.8601 10.2654 12.8734 10.3665 12.8129C10.4678 12.7523 10.517 12.6323 10.4874 12.5182C10.2422 11.5714 9.96428 10.4982 9.34582 9.62086C9.26273 9.50321 9.17436 9.39097 9.08638 9.28203V9.2819C9.58599 9.49069 10.1188 9.6086 10.6599 9.63035C11.1477 9.64895 11.5037 9.54752 11.748 9.31988C11.9916 9.09276 12.0825 8.79417 12.1004 8.47958L12.4424 8.82158C13.042 9.42222 13.7373 9.91919 14.4999 10.2919L10.1537 14.6381Z" fill="black"/>
<path d="M8.03269 4.56446L7.24912 5.34817L6.46542 4.56446C6.35449 4.45275 6.34197 4.27668 6.436 4.15031C6.49536 4.07012 6.58926 4.02304 6.68911 4.02356H6.69834C6.80121 4.02567 6.89657 4.07843 6.95315 4.16443L7.02793 4.27653V4.27667C7.07713 4.35052 7.16022 4.39497 7.24912 4.39497C7.33801 4.39497 7.42097 4.35052 7.4703 4.27667L7.54508 4.16456L7.54495 4.16443C7.60206 4.07896 7.69702 4.02634 7.7999 4.02356C7.90264 4.02066 8.0005 4.06788 8.06223 4.15018C8.15613 4.27653 8.14374 4.45273 8.03269 4.56446Z" fill="black"/>
</svg>
