<svg width="14" height="15" viewBox="0 0 14 15" fill="none" xmlns="http://www.w3.org/2000/svg">
<path d="M3.10896 4.14322L4.32778 2.9244L3.61769 2.2143C3.53249 2.12897 3.40429 2.10352 3.29284 2.14968C3.18152 2.19584 3.10885 2.30452 3.10898 2.42506V2.65851C3.10898 2.72908 3.08089 2.7966 3.03103 2.84646C2.98118 2.89632 2.91365 2.92441 2.84309 2.92441H2.60951H2.60964C2.48909 2.92428 2.38041 2.99695 2.33425 3.10826C2.28809 3.21971 2.31354 3.34791 2.39888 3.43311L3.10896 4.14322Z" fill="black"/>
<path d="M5.0791 2.92386L7.62699 0.375977L8.58005 1.32904L6.03217 3.87693L5.0791 2.92386Z" fill="black"/>
<path d="M0.716101 4.78459C0.786662 4.78459 0.85419 4.81268 0.904047 4.86241C0.953903 4.91226 0.981995 4.97992 0.981995 5.05035V5.09599C0.981204 5.41517 1.07973 5.72671 1.26398 5.9873L2.73246 4.51882L2.20094 3.9873H0.583293C0.363035 3.9873 0.18457 4.16576 0.18457 4.38589C0.18457 4.60615 0.363021 4.78462 0.583293 4.78462L0.716101 4.78459Z" fill="black"/>
<path d="M0.560547 7.44242L3.10843 4.89453L4.0615 5.8476L1.51361 8.39548L0.560547 7.44242Z" fill="black"/>
<path d="M8.69069 3.54384L8.95646 3.18945H8.4248L8.69069 3.54384Z" fill="black"/>
<path d="M8.69046 5.58203C7.976 5.58098 7.29133 5.8685 6.79199 6.37944H10.5888C10.0894 5.86849 9.40481 5.58099 8.69046 5.58203Z" fill="black"/>
<path d="M3.48535 4.51912L4.70417 3.30029L5.65724 4.25336L4.43842 5.47218L3.48535 4.51912Z" fill="black"/>
<path d="M7.52553 3.18994L7.25977 3.72146H8.1586L7.75988 3.18994H7.52553Z" fill="black"/>
<path d="M1.08984 11.6951H1.51362C1.58418 11.6951 1.65171 11.7232 1.70156 11.7731C1.75142 11.8229 1.77938 11.8904 1.77938 11.961V12.3489C2.53985 11.4577 3.08552 10.4039 3.3742 9.26857V7.29295V7.28662L2.57548 8.08548C2.5516 9.43261 2.02113 10.7215 1.08985 11.6952L1.08984 11.6951Z" fill="black"/>
<path d="M9.85477 3.18994H9.6204L9.22168 3.72146H10.1207L9.85477 3.18994Z" fill="black"/>
<path d="M8.68998 5.04974C8.97527 5.04974 9.25935 5.08785 9.53463 5.16317L10.0811 4.25244H7.29883L7.84527 5.16317C8.12053 5.08785 8.40461 5.04974 8.69005 5.04974H8.68998Z" fill="black"/>
<path d="M6.17189 1.07942C5.91127 0.895166 5.59976 0.796642 5.28058 0.797432H5.23495C5.08815 0.797432 4.96918 0.678335 4.96918 0.531538V0.398723C4.96918 0.178465 4.79073 0 4.57046 0C4.35034 0 4.17188 0.178451 4.17188 0.398723V2.01624L4.70339 2.54775L6.17189 1.07942Z" fill="black"/>
<path d="M5.66689 11.7944L4.42578 12.1046L5.35666 13.0355L5.66689 11.7944Z" fill="black"/>
<path d="M3.90625 7.29288V7.97397C3.90625 7.76255 3.99027 7.55968 4.13983 7.41014C4.2894 7.26057 4.49226 7.17656 4.70366 7.17656C4.91506 7.17656 5.11795 7.26057 5.26749 7.41014C5.41706 7.55971 5.50107 7.76257 5.50107 7.97397C5.50107 8.18552 5.41706 8.38826 5.26749 8.5378C5.11792 8.68737 4.91506 8.77138 4.70366 8.77138C4.49224 8.77112 4.28951 8.68697 4.1401 8.53754C3.99067 8.3881 3.90651 8.18537 3.90625 7.97397L3.90626 11.6867L5.96811 11.1713C6.05872 11.1487 6.15447 11.1752 6.22055 11.2412C6.28649 11.3072 6.31301 11.403 6.29045 11.4936L5.75893 13.62H5.7588C5.73559 13.7128 5.66423 13.786 5.57191 13.8116C5.47972 13.8372 5.3808 13.8111 5.313 13.7434L3.90625 12.3367V14.5023C3.90651 14.7134 4.07744 14.8843 4.28833 14.8844H7.36155V6.91064H4.28833C4.07743 6.91091 3.90649 7.08184 3.90625 7.29272V7.29288ZM6.83003 14.353C6.58181 14.3529 6.34785 14.2372 6.19709 14.0401C6.0462 13.843 5.99582 13.587 6.06058 13.3473C6.12547 13.1078 6.29812 12.912 6.52774 12.8179C6.75724 12.7237 7.01773 12.7418 7.23203 12.8668L6.96376 13.3258C6.88133 13.2778 6.77951 13.2778 6.69708 13.3255C6.61452 13.3734 6.564 13.4618 6.56453 13.5571C6.56506 13.6525 6.61663 13.7402 6.69972 13.787C6.78268 13.834 6.8845 13.8327 6.9664 13.7839L7.23981 14.2397C7.11597 14.3139 6.97433 14.353 6.83003 14.353ZM6.31499 7.97458C6.40956 7.98051 6.49384 8.0363 6.53631 8.12098L7.33372 9.71566H7.33359C7.37487 9.7981 7.37038 9.89596 7.32198 9.97431C7.27358 10.0528 7.18798 10.1004 7.09579 10.1004H5.23521C5.13721 10.1004 5.04713 10.0464 5.00097 9.96006C4.95467 9.87354 4.95968 9.76869 5.01416 9.68718L6.07733 8.09249V8.09236C6.12969 8.01336 6.22043 7.96838 6.31499 7.97458Z" fill="black"/>
<path d="M11.8799 13.3921V14.3164L12.6722 13.6561L11.8799 13.3921Z" fill="black"/>
<path d="M11.0824 11.4293C11.0824 11.5761 10.9633 11.6951 10.8165 11.6951C10.6697 11.6951 10.5508 11.5761 10.5508 11.4293C10.5508 11.2825 10.6697 11.1636 10.8165 11.1636C10.9633 11.1636 11.0824 11.2825 11.0824 11.4293Z" fill="black"/>
<path d="M13.0931 6.90977H10.0199V11.1506H9.48824V6.90977H7.89355V14.8835H9.48824V11.6989H10.0198L10.0199 14.8835H11.3488V13.0231C11.3488 12.9376 11.3898 12.8574 11.4592 12.8074C11.5285 12.7574 11.6176 12.7439 11.6987 12.7709L13.2934 13.3024C13.3848 13.333 13.4526 13.4106 13.4705 13.5054C13.4884 13.6001 13.4535 13.697 13.3795 13.7588L12.0299 14.8835H13.0931C13.3039 14.8834 13.4749 14.7124 13.4751 14.5014V7.29174C13.4749 7.08085 13.3039 6.9099 13.0931 6.90967L13.0931 6.90977ZM10.8172 12.2256C10.6058 12.2256 10.4029 12.1416 10.2535 11.992C10.1039 11.8425 10.0199 11.6397 10.0199 11.4282C10.0199 11.2168 10.1039 11.0139 10.2535 10.8644C10.4029 10.7148 10.6058 10.6308 10.8172 10.6308C11.0288 10.6308 11.2316 10.7148 11.381 10.8644C11.5306 11.0139 11.6146 11.2168 11.6146 11.4282C11.6144 11.6396 11.5303 11.8424 11.3808 11.9918C11.2313 12.1413 11.0286 12.2254 10.8172 12.2256ZM13.1647 8.12022L12.1016 9.71491C12.0522 9.7889 11.9693 9.83335 11.8804 9.83335H11.8711H11.8713C11.7792 9.83018 11.6953 9.77953 11.6496 9.69961L10.5864 7.83903C10.5365 7.75159 10.5402 7.64343 10.596 7.55969C10.6519 7.47593 10.7503 7.43096 10.8502 7.44336L11.64 7.54214L11.574 8.06958L11.3117 8.03674L11.8977 9.06233L12.4838 8.18327L12.1165 8.13737L12.1824 7.60994L12.9765 7.70912V7.70926C13.0679 7.7206 13.1469 7.77863 13.1853 7.86238C13.2236 7.94614 13.2159 8.04373 13.1648 8.12036L13.1647 8.12022Z" fill="black"/>
<path d="M6.26509 8.76904L5.73145 9.56949H6.66523L6.26509 8.76904Z" fill="black"/>
<path d="M4.96902 7.97426C4.96902 8.12106 4.85006 8.24002 4.70326 8.24002C4.55646 8.24002 4.4375 8.12106 4.4375 7.97426C4.4375 7.82746 4.55646 7.7085 4.70326 7.7085C4.85006 7.7085 4.96902 7.82746 4.96902 7.97426Z" fill="black"/>
</svg>
