<svg width="15" height="15" viewBox="0 0 15 15" fill="none" xmlns="http://www.w3.org/2000/svg">
<path d="M10.5152 6.2918C10.6983 6.31949 10.8682 6.40351 11.0014 6.53224C11.0109 6.52894 11.0205 6.5267 11.03 6.5238C11.0792 6.34785 11.0548 6.15951 10.9624 6.00177C10.8701 5.84402 10.7178 5.7306 10.5403 5.68747C10.3627 5.64421 10.1752 5.67494 10.0207 5.77267L9.8618 5.87304C9.73782 5.95151 9.57361 5.91445 9.49515 5.79048L9.39491 5.63168C9.29969 5.48013 9.14788 5.37264 8.97326 5.33307C8.79865 5.29351 8.61543 5.32503 8.46417 5.42078C8.31289 5.5164 8.20579 5.66847 8.16662 5.84311C8.12758 6.01786 8.15963 6.20108 8.25565 6.35207L9.21847 7.87477L9.61243 7.62563C9.49795 7.43083 9.46168 7.19989 9.51087 6.97935C9.5602 6.75883 9.69117 6.56519 9.87766 6.43767C10.064 6.31 10.2919 6.2579 10.5154 6.29179L10.5152 6.2918Z" fill="black"/>
<path d="M6.72722 2.64795L4.39062 13.0197L12.1696 14.7721L14.5062 4.40038L6.72722 2.64795ZM12.1001 7.01165C12.1961 7.22294 12.2055 7.46338 12.1264 7.68153C12.0474 7.89968 11.8859 8.07812 11.6769 8.17888L10.6925 8.6583C10.5806 8.71277 10.4461 8.6823 10.3685 8.5851L9.93859 8.04736L9.27782 8.4652C9.15371 8.54367 8.98951 8.50661 8.91104 8.3825L7.80617 6.63507V6.6352C7.5809 6.27868 7.55821 5.83053 7.74643 5.45304C7.9345 5.07569 8.30617 4.82405 8.7265 4.78951C9.1467 4.75495 9.5545 4.9425 9.80183 5.28409C10.0669 5.13887 10.3769 5.09865 10.6703 5.17118C10.9637 5.24372 11.2191 5.42389 11.3861 5.67579C11.553 5.92784 11.6192 6.23331 11.5714 6.53178C11.8069 6.61105 11.9985 6.78502 12.1002 7.01161L12.1001 7.01165ZM12.5855 10.5069C12.5701 10.5758 12.5279 10.6355 12.4682 10.6732C12.4086 10.711 12.3365 10.7234 12.2678 10.7079L6.045 9.30593V9.3058C5.90177 9.27362 5.81182 9.13131 5.84413 8.98807L7.07072 3.5429C7.10303 3.39967 7.24521 3.30985 7.38831 3.34203L10.0858 3.94979L9.96892 4.46838L7.5309 3.91893L6.42104 8.84548L12.1255 10.1306L13.2354 5.20407L10.5385 4.59644L10.6553 4.07786L13.6114 4.74393C13.7545 4.77624 13.8445 4.91842 13.8123 5.06166L12.5855 10.5069Z" fill="black"/>
<path d="M5.1643 5.91439C5.28339 5.88221 5.39353 5.82273 5.48585 5.74082L5.69041 4.83263C5.61022 4.6439 5.46026 4.49327 5.2719 4.41217C5.08343 4.33105 4.87109 4.32565 4.6788 4.39713C4.4865 4.46862 4.32917 4.61132 4.23946 4.79585C4.14977 4.98024 4.1346 5.19218 4.19712 5.38751C4.25964 5.58297 4.39496 5.74666 4.57511 5.84477C4.75527 5.94289 4.96631 5.96783 5.16427 5.91441L5.1643 5.91439Z" fill="black"/>
<path d="M5.30313 6.42747C4.92011 6.53087 4.51085 6.4578 4.18746 6.22805C3.86393 5.99829 3.66002 5.63613 3.63139 5.24031C3.6029 4.84463 3.7526 4.45688 4.03974 4.18308L3.68693 4.06438C3.60265 4.03602 3.53816 3.96744 3.51508 3.88171L3.30735 3.11185C3.28902 3.04366 3.29852 2.97112 3.3336 2.91005C3.36881 2.84899 3.42685 2.80428 3.4949 2.78594L5.03462 2.37061C5.17627 2.33249 5.32214 2.41638 5.36039 2.55803L5.56812 3.32789C5.59133 3.41362 5.5701 3.50528 5.51167 3.57215L5.26661 3.85189V3.85203C5.48107 3.90333 5.67945 4.00713 5.84392 4.15393L6.26783 2.27224C6.28339 2.20339 6.32546 2.14365 6.38508 2.10593C6.44469 2.06834 6.51684 2.05581 6.58556 2.07137L8.36557 2.47232L7.6986 0L0 2.07704L2.76935 12.3417L4.07862 11.9885L5.33358 6.41809C5.32342 6.42099 5.31353 6.42455 5.30324 6.42732L5.30313 6.42747ZM2.50069 8.28464V8.28477C2.43251 8.30324 2.35996 8.29374 2.2989 8.25866C2.2377 8.22344 2.19312 8.16541 2.17479 8.09735L0.720829 2.70824C0.682713 2.56658 0.766596 2.42071 0.908248 2.38246L7.06719 0.720755C7.20897 0.682638 7.35485 0.766522 7.39309 0.908174L7.6185 1.74357L7.10532 1.88206L6.94916 1.3033L1.30343 2.82638L2.61892 7.70228L4.63026 7.15955L4.76874 7.67273L2.50069 8.28464Z" fill="black"/>
</svg>
