<svg width="15" height="16" viewBox="0 0 15 16" fill="none" xmlns="http://www.w3.org/2000/svg">
<path d="M5.97463 4.41812C6.05218 4.51532 6.18685 4.54566 6.29856 4.49119L7.28312 4.01163C7.55759 3.87803 7.74461 3.61345 7.77905 3.31025C7.81348 3.00703 7.69056 2.70725 7.45315 2.5156C7.21575 2.32383 6.89682 2.26686 6.60759 2.36432C6.38826 2.15238 6.07567 2.06717 5.77905 2.13852C5.48242 2.20988 5.24277 2.42803 5.14388 2.7166C5.04496 3.00532 5.10048 3.3245 5.29107 3.5628L5.97463 4.41812Z" fill="black"/>
<path d="M1.53414 2.9177L3.43919 3.72065V3.72052C3.50421 3.74795 3.57741 3.74848 3.6427 3.72184C3.70798 3.69533 3.76008 3.64376 3.78738 3.57887L4.59033 1.67382V1.67369C4.75388 1.28513 4.70257 0.839337 4.45501 0.498149C4.20745 0.156961 3.79951 -0.0301948 3.37945 0.00461619C2.95925 0.0394339 2.58785 0.291349 2.40002 0.668692C2.00183 0.529678 1.55999 0.608683 1.23488 0.877214C0.909765 1.14561 0.748469 1.56449 0.80965 1.98168C0.870848 2.39897 1.14559 2.75388 1.53414 2.9177Z" fill="black"/>
<path d="M1.89885 14.3527C1.87195 14.3239 1.84531 14.2949 1.81906 14.2656C1.81853 14.2651 1.81813 14.2646 1.81761 14.264H1.81774C1.66448 14.0928 1.52309 13.9114 1.39437 13.721C1.39397 13.7204 1.39358 13.7199 1.39318 13.7192C1.37102 13.6864 1.34926 13.6533 1.32776 13.6199L1.32842 13.6195C0.759696 12.7309 0.483539 11.6866 0.538642 10.6331C0.59364 9.57952 0.977308 8.56977 1.63571 7.74545C2.09416 7.17345 2.67092 6.7072 3.32642 6.37891H0.341459C0.152986 6.37917 0.000135057 6.5319 0 6.7205V15.0745C0.000131917 15.2629 0.152993 15.4158 0.341459 15.4159H3.32882C2.79295 15.1491 2.30877 14.7891 1.89884 14.3527L1.89885 14.3527Z" fill="black"/>
<path d="M10.5878 6.50048L10.4549 5.96924L9.18945 6.61022L9.32609 7.11709L10.5878 6.50048Z" fill="black"/>
<path d="M9.83134 12.4346L9.50385 11.9433L9.19694 12.1734C9.07956 12.2615 8.91298 12.2377 8.82486 12.1202L8.42614 11.5887C8.22672 11.3228 8.18425 10.9708 8.31482 10.6651C8.44539 10.3595 8.72911 10.1467 9.05909 10.1069C9.38908 10.0672 9.71513 10.2065 9.91454 10.4724L10.0967 10.7152H10.0968C10.0782 10.2449 9.98615 9.78033 9.82406 9.33839C9.79755 9.43546 9.75323 9.52686 9.69349 9.60784C9.55473 9.79143 9.35809 9.92253 9.13533 9.97992C9.04446 10.0046 8.95081 10.0171 8.85664 10.0173C8.46599 10.0173 8.1224 9.79659 8.02942 9.45248C7.9735 9.23011 8.02216 8.99443 8.16157 8.81241C8.30032 8.62894 8.49697 8.49771 8.71973 8.44032C8.85162 8.40445 8.98919 8.39442 9.12477 8.41091L8.99763 7.9398C8.96663 7.90405 8.93537 7.86871 8.90319 7.83389H8.90332C8.16473 7.03108 7.15997 6.52353 6.07543 6.40576L5.32626 7.00494C5.22919 7.0825 5.09137 7.0825 4.99429 7.00494L4.40565 6.5341C3.47713 6.78628 2.65267 7.32688 2.05113 8.0779C1.45104 8.82956 1.10627 9.75319 1.0672 10.7144C1.02816 11.6755 1.2967 12.6241 1.83389 13.4221C2.45866 14.3492 3.40484 15.012 4.48965 15.2821C5.57447 15.5522 6.72086 15.4107 7.70742 14.8847C8.69398 14.3588 9.45064 13.4858 9.83103 12.4347L9.83134 12.4346ZM2.3539 9.66375L1.85746 9.47396H1.85733C2.25592 8.43597 3.06822 7.61071 4.09962 7.19578L4.29746 7.68918C3.40348 8.0487 2.69932 8.76396 2.35378 9.66361L2.3539 9.66375ZM3.10556 9.93136L2.61057 9.738H2.61044C2.93582 8.90787 3.59251 8.25106 4.42264 7.92581L4.61599 8.42079C3.9241 8.69196 3.37674 9.2393 3.10558 9.93107L3.10556 9.93136ZM3.72176 10.8976C3.72176 10.4042 3.91788 9.93095 4.26675 9.58196C4.61574 9.23311 5.08898 9.03711 5.58237 9.03711C6.07577 9.03711 6.54901 9.2331 6.898 9.58196C7.24685 9.93095 7.44299 10.4042 7.44299 10.8976C7.44299 11.3911 7.24686 11.8644 6.898 12.2132C6.54901 12.5622 6.07577 12.7582 5.58237 12.7582C5.08911 12.7577 4.61614 12.5614 4.26742 12.2127C3.91857 11.8639 3.7223 11.3909 3.72179 10.8976L3.72176 10.8976ZM7.77145 13.2172C7.18017 13.777 6.3966 14.0885 5.58231 14.0871V13.5556C6.26076 13.5567 6.91377 13.2972 7.40649 12.8307L7.77145 13.2172ZM5.58231 14.8845V14.3529C6.48695 14.355 7.35584 14.0004 8.00054 13.3657L8.37262 13.7454C7.62876 14.4777 6.62609 14.8869 5.58231 14.8845Z" fill="black"/>
<path d="M4.47102 5.90563L5.16001 6.4568L5.84901 5.90563H5.84914C5.96494 5.81291 6.01215 5.65873 5.96797 5.51707C5.92392 5.37542 5.79743 5.27531 5.64945 5.26476C5.54513 5.25658 5.44251 5.29483 5.36905 5.36935L5.34808 5.39032V5.39045C5.24428 5.49412 5.07599 5.49412 4.97232 5.39045L4.95121 5.36935C4.88421 5.30156 4.79281 5.26357 4.69759 5.26384C4.68875 5.26384 4.67978 5.2641 4.67081 5.26476C4.52283 5.27531 4.39634 5.37542 4.35229 5.51707C4.30811 5.65872 4.35533 5.8129 4.47126 5.90563L4.47102 5.90563Z" fill="black"/>
<path d="M4.89295 11.0093L5.58194 11.5604L6.27094 11.0093C6.38687 10.9166 6.43409 10.7622 6.3899 10.6206C6.34585 10.4789 6.21937 10.3788 6.07125 10.3683C5.96693 10.3601 5.86431 10.3985 5.79085 10.473L5.76988 10.494C5.66608 10.5976 5.49792 10.5976 5.39412 10.494L5.37301 10.473C5.30614 10.4051 5.21474 10.3671 5.11939 10.3673C5.11055 10.3673 5.10158 10.3676 5.09261 10.3683C4.94463 10.3788 4.81828 10.4789 4.77409 10.6206C4.73004 10.7624 4.77726 10.9165 4.89306 11.0093L4.89295 11.0093Z" fill="black"/>
<path d="M8.99856 8.93457C8.95095 8.93457 8.90347 8.9409 8.85744 8.9533C8.7514 8.97981 8.65723 9.04074 8.58957 9.12647C8.56266 9.16301 8.52085 9.23608 8.54182 9.31376C8.57875 9.4504 8.79096 9.52176 8.99605 9.46662H8.99592C9.10196 9.44011 9.19626 9.37918 9.26392 9.29345C9.2907 9.25691 9.33264 9.18385 9.31167 9.10616C9.28331 9.00104 9.15129 8.93457 8.99856 8.93457Z" fill="black"/>
<path d="M8.61913 6.53995C8.60476 6.48679 8.60726 6.43047 8.62639 6.37891H7.83887C8.15475 6.53704 8.45321 6.72803 8.72927 6.94868L8.61913 6.53995Z" fill="black"/>
<path d="M14.5437 6.37891H11.1058L11.1562 6.5803C11.1866 6.70204 11.1277 6.82839 11.015 6.88352L9.46769 7.63967L9.48048 7.68689H9.48035C10.5528 8.98891 10.9044 10.7403 10.4177 12.3555L11.0405 13.2897H11.7224C11.811 12.8556 12.1101 12.4942 12.5201 12.3261C12.93 12.1578 13.3967 12.205 13.7647 12.4518C14.1327 12.6985 14.3535 13.1124 14.3535 13.5556C14.3535 13.9986 14.1327 14.4125 13.7647 14.6592C13.3967 14.906 12.9299 14.9532 12.5201 14.7851C12.1101 14.6168 11.811 14.2554 11.7224 13.8213H10.8983C10.8094 13.8213 10.7265 13.7769 10.6771 13.703L10.1878 12.9691C9.70746 14.0301 8.87709 14.894 7.83594 15.4161H14.5439H14.5438C14.7322 15.4158 14.8849 15.2631 14.8851 15.0746V6.72064C14.8849 6.53203 14.7321 6.37932 14.5436 6.37905L14.5437 6.37891ZM13.0247 7.97373H12.493V6.91056H13.0245L13.0247 7.97373ZM14.0878 7.97373H13.5562V6.91056H14.0877L14.0878 7.97373Z" fill="black"/>
<path d="M10.0567 11.5288L9.92969 11.624L10.0186 11.7574C10.0331 11.682 10.0459 11.6057 10.0567 11.5288Z" fill="black"/>
<path d="M9.22656 10.6354C9.20757 10.6328 9.18845 10.6313 9.16932 10.6313C9.01844 10.6317 8.88074 10.7172 8.81335 10.8521C8.74608 10.9872 8.76072 11.1486 8.8512 11.2693L9.09045 11.5882L9.72843 11.1098L9.48917 10.7909C9.42587 10.7061 9.33128 10.6501 9.22656 10.6354Z" fill="black"/>
<path d="M13.8222 13.5557C13.8222 13.3442 13.7382 13.1413 13.5888 12.9919C13.4392 12.8423 13.2363 12.7583 13.025 12.7583C12.8134 12.7583 12.6106 12.8423 12.4611 12.9919C12.3116 13.1413 12.2275 13.3442 12.2275 13.5557C12.2275 13.7671 12.3116 13.97 12.4611 14.1195C12.6106 14.269 12.8134 14.353 13.025 14.353C13.2362 14.3527 13.439 14.2687 13.5885 14.1193C13.7379 13.9697 13.822 13.767 13.8222 13.5557ZM12.7591 13.29H13.2906V13.8215H12.7591V13.29Z" fill="black"/>
<path d="M11.2573 3.44076C10.762 3.57437 10.4522 4.02847 10.5668 4.45292V4.45305C10.6304 4.67331 10.791 4.85241 11.0031 4.93959C11.1255 4.99222 11.2575 5.01899 11.3909 5.01833C11.486 5.0182 11.5808 5.0054 11.6727 4.98048C11.8955 4.9231 12.0921 4.79187 12.2309 4.60839C12.3702 4.42638 12.419 4.1907 12.363 3.96832L12.0046 2.63899L13.9467 1.67448L14.1593 2.4624C14.0237 2.44592 13.8861 2.45594 13.7543 2.49182C13.259 2.62542 12.9493 3.07952 13.0638 3.50407C13.1274 3.72433 13.288 3.90343 13.5 3.99061C13.6225 4.04324 13.7544 4.07001 13.8877 4.06935C13.9829 4.06922 14.0778 4.05643 14.1697 4.0315C14.3923 3.97413 14.5891 3.84289 14.7279 3.65941C14.8671 3.4774 14.9158 3.24172 14.86 3.01948L14.0985 0.196616C14.0778 0.119725 14.0237 0.0561503 13.951 0.0234428C13.8785 -0.00926632 13.795 -0.00768392 13.7236 0.0277953L11.296 1.23328C11.1825 1.28973 11.1246 1.41833 11.1576 1.54059L11.6623 3.41134V3.41147C11.5267 3.39485 11.3891 3.40489 11.2573 3.44076Z" fill="black"/>
</svg>
