<svg width="15" height="15" viewBox="0 0 15 15" fill="none" xmlns="http://www.w3.org/2000/svg">
<path d="M5.04757 4.04667C5.04902 4.02675 5.05007 4.00684 5.05007 3.98692C5.05007 3.76126 4.95432 3.5464 4.78669 3.39551C4.78523 3.41542 4.78418 3.43534 4.78418 3.45525C4.78418 3.68079 4.87993 3.89578 5.04757 4.04667Z" fill="black"/>
<path d="M5.58182 3.9868C5.58182 4.07583 5.57298 4.16459 5.55531 4.2519C5.56414 4.25217 5.57298 4.25256 5.58195 4.25256H5.58182C5.84903 4.25283 6.09844 4.11922 6.24643 3.89685C6.39441 3.67449 6.42119 3.39275 6.31779 3.14638C6.21438 2.90013 5.99439 2.72196 5.73204 2.67182C5.46958 2.62183 5.19958 2.70651 5.0127 2.89735C5.36921 3.14558 5.58171 3.55232 5.58182 3.9868Z" fill="black"/>
<path d="M8.50589 13.7903V14.5642L9.659 13.5552H8.74102C8.61124 13.5553 8.50602 13.6606 8.50589 13.7903Z" fill="black"/>
<path d="M4.25348 4.78464C4.46767 4.78477 4.6729 4.69838 4.82258 4.54512C4.60983 4.39688 4.44509 4.18969 4.34869 3.94898C4.25228 3.70828 4.22841 3.44461 4.28011 3.1906C4.27127 3.19034 4.26244 3.18994 4.25347 3.18994C3.96858 3.18994 3.70534 3.34188 3.56289 3.58866C3.42044 3.8353 3.42044 4.13933 3.56289 4.38594C3.70533 4.63271 3.96861 4.78464 4.25348 4.78464Z" fill="black"/>
<path d="M6.10362 1.49432C6.07236 1.33117 5.96658 1.19215 5.81781 1.11828C5.66904 1.04456 5.49428 1.04456 5.34551 1.11828C5.19661 1.19214 5.09083 1.33116 5.05957 1.49432L5.5816 2.01635L6.10362 1.49432Z" fill="black"/>
<path d="M7.5752 12.1213L8.36258 11.9638C8.50489 11.5647 8.7191 11.1949 8.99448 10.8729L8.82368 10.7021C8.5016 10.9775 8.13191 11.1916 7.73279 11.3338L7.5752 12.1213Z" fill="black"/>
<path d="M9.62788 11.3971C9.55745 11.3973 9.48979 11.3692 9.43994 11.3193L9.37083 11.2503L9.37096 11.2502C9.1387 11.5297 8.96038 11.8498 8.84498 12.1944L8.81688 12.2786C8.78681 12.3691 8.71045 12.4365 8.61694 12.4552L7.28801 12.7209C7.27073 12.7244 7.25332 12.7261 7.23578 12.7261V12.9919H6.70426V12.4603H6.97055C6.97042 12.4428 6.972 12.4254 6.97517 12.4082L7.24093 11.0793H7.24106C7.25966 10.9857 7.32705 10.9094 7.41753 10.8792L7.50168 10.8511H7.50181C7.84631 10.7359 8.16643 10.5574 8.44589 10.3253L8.37691 10.2562C8.32613 10.2055 8.29817 10.1364 8.2991 10.0648C8.30002 9.99318 8.32983 9.92486 8.38179 9.87553L10.1002 8.2431V0.210236C10.1001 0.0941717 10.0061 0.000131681 9.89012 0H0.210237C0.0941723 0.000131917 0.000131681 0.0941717 0 0.210236V14.6742C0.000131883 14.7901 0.0941723 14.8842 0.210237 14.8843H7.97366V13.7905C7.97392 13.5872 8.05477 13.3923 8.19854 13.2485C8.3423 13.1049 8.53723 13.0239 8.74049 13.0238H10.1V11.049L9.8108 11.3239C9.76148 11.3708 9.69593 11.3971 9.62773 11.3969L9.62788 11.3971ZM9.03701 0.531794C9.03727 0.672787 9.09333 0.807844 9.1929 0.907557C9.29261 1.00727 9.42767 1.06332 9.56867 1.06345V1.59497C9.28681 1.59471 9.01655 1.4826 8.81714 1.28331C8.61785 1.08402 8.50574 0.813783 8.50548 0.531784L9.03701 0.531794ZM4.25261 2.65817C4.33636 2.6583 4.41985 2.66621 4.50202 2.68204C4.64182 2.48737 4.83135 2.33386 5.05082 2.23757L4.59618 1.78293C4.54646 1.73307 4.51837 1.66555 4.51837 1.59499C4.51837 1.21514 4.72108 0.864157 5.05002 0.674233C5.37896 0.484309 5.78426 0.484309 6.11319 0.674233C6.44213 0.864157 6.64471 1.21514 6.64471 1.59499C6.64471 1.66555 6.61675 1.73307 6.56689 1.78293L6.11225 2.23757C6.51584 2.41298 6.80628 2.77675 6.88806 3.20897C6.96996 3.64132 6.8324 4.08606 6.52087 4.39679C6.20934 4.7074 5.76421 4.84376 5.33213 4.76081C5.06241 5.13711 4.61623 5.34587 4.15447 5.31184C3.69257 5.27768 3.28186 5.00559 3.07033 4.59367C2.85891 4.18178 2.87711 3.68943 3.11847 3.29429C3.35983 2.89914 3.78953 2.65803 4.25261 2.65817ZM2.92368 6.37933H7.9738V6.91085H2.92368V6.37933ZM2.12627 7.4425H7.97357V7.97402H2.12627V7.4425ZM2.12627 8.50567H7.97357V9.03719H2.12627V8.50567ZM0.531581 1.06335H0.797343C0.938205 1.06321 1.07339 1.00716 1.17297 0.907449C1.27268 0.807739 1.32874 0.672682 1.32887 0.531686H1.86052C1.86012 0.813672 1.74802 1.0839 1.54873 1.28321C1.34944 1.4825 1.0792 1.59461 0.797337 1.59487H0.531575L0.531581 1.06335ZM1.0631 14.353C1.06297 14.212 1.00691 14.0769 0.907202 13.9772C0.807625 13.8776 0.672436 13.8216 0.531575 13.8213V13.2898C0.813429 13.2901 1.08369 13.4022 1.28297 13.6016C1.48225 13.8009 1.59436 14.0711 1.59476 14.353L1.0631 14.353ZM6.17231 12.992H5.77308C5.5912 12.9925 5.42463 12.8896 5.3439 12.7266L5.30223 12.6432L5.24155 12.7039H5.24142C5.14105 12.8043 5.00138 12.8551 4.85999 12.8427C4.7186 12.8301 4.58987 12.7557 4.50864 12.6394L4.23391 12.914C4.15794 12.9901 4.04359 13.0128 3.94427 12.9717C3.84496 12.9305 3.7802 12.8336 3.7802 12.7261V11.9799C3.7802 11.9554 3.76279 11.9343 3.73865 11.9297C3.71465 11.9249 3.69064 11.9381 3.68154 11.961C3.52947 12.3445 3.26543 12.6734 2.92384 12.9048C2.58211 13.136 2.1788 13.259 1.76609 13.2577H1.65386V12.7262H1.76609V12.7261C2.07248 12.7271 2.37199 12.6358 2.62563 12.4641C2.87926 12.2924 3.07524 12.0483 3.18815 11.7635C3.25567 11.5946 3.39838 11.4668 3.5738 11.4182C3.74922 11.3698 3.93731 11.4059 4.08212 11.5162C4.22694 11.6263 4.31201 11.7979 4.31201 11.9799V12.1233V12.1231C4.52383 12.0217 4.77813 12.0886 4.91251 12.2813L4.97687 12.2165C5.08594 12.1075 5.24078 12.0575 5.39312 12.0821C5.54532 12.1069 5.67642 12.2033 5.74555 12.3413L5.80503 12.4601H6.17235L6.17231 12.992Z" fill="black"/>
<path d="M14.2107 5.72394C14.0251 5.53626 13.7231 5.5323 13.5328 5.71524L10.0361 9.03693L10.7233 9.7241L14.2017 6.41942H14.2018C14.2968 6.32921 14.3513 6.20457 14.353 6.07361C14.3546 5.94251 14.3033 5.81642 14.2107 5.72385L14.2107 5.72394Z" fill="black"/>
<path d="M8.94629 10.0724L9.63346 10.7596L10.3384 10.0899L9.65125 9.40283L8.94629 10.0724Z" fill="black"/>
</svg>
