<svg width="15" height="10" viewBox="0 0 15 10" fill="none" xmlns="http://www.w3.org/2000/svg">
<path d="M11.712 1.66712C11.7417 1.59392 11.741 1.51188 11.7101 1.43908C11.6793 1.36627 11.6208 1.30877 11.5475 1.27909C11.395 1.2175 11.2213 1.29109 11.1594 1.44343L10.4834 3.11331L12.1534 3.78937C12.2269 3.81984 12.3094 3.81957 12.3826 3.78884C12.456 3.75811 12.5139 3.69942 12.5437 3.62583C12.5735 3.55223 12.5727 3.46967 12.5414 3.3966C12.5101 3.32366 12.451 3.26615 12.3771 3.23687L11.5061 2.88434C11.4407 2.85796 11.3886 2.80653 11.361 2.74163C11.3336 2.67674 11.3329 2.60354 11.3594 2.53826L11.712 1.66712Z" fill="black"/>
<path d="M3.10645 7.10528L3.59589 6.89795L3.80323 7.3874L3.31378 7.59473L3.10645 7.10528Z" fill="black"/>
<path d="M13.068 4.77718C13.3738 4.64767 13.6156 4.40196 13.7402 4.09413C13.8648 3.78616 13.8621 3.44154 13.7324 3.13567C13.6029 2.82981 13.3571 2.58804 13.0492 2.46355L12.7678 2.3496C12.6318 2.29447 12.5661 2.13949 12.6212 2.00352L12.7352 1.72219V1.72206C12.903 1.3074 12.8369 0.834701 12.5616 0.481898C12.2865 0.12923 11.844 -0.0498899 11.401 0.0121013C10.9578 0.0740892 10.5815 0.367673 10.4136 0.782333L9.57694 2.84948C9.46522 3.12764 9.24681 3.3496 8.9705 3.46582L0 7.26666L0.207333 7.75611L9.17783 3.95526H9.17796C9.45362 3.83762 9.76502 3.83511 10.0425 3.94827L10.6343 4.18779L10.8631 3.84012L10.0381 3.50617V3.5063C9.90214 3.45117 9.83645 3.2962 9.89159 3.16022L10.6671 1.24396C10.7783 0.96923 11.0276 0.774704 11.3212 0.733545C11.6148 0.692528 11.9078 0.81123 12.0902 1.04481C12.2725 1.27852 12.3163 1.59176 12.2051 1.8665L11.9523 2.49114L12.5769 2.74398H12.5768C12.7829 2.82496 12.9482 2.98494 13.0356 3.18845C13.1231 3.39196 13.1256 3.62198 13.0425 3.82734C12.9595 4.03256 12.7977 4.19625 12.5934 4.28157C12.3889 4.36703 12.1589 4.36717 11.9545 4.28196L11.3656 4.04363L11.1368 4.3913L12.1096 4.78513C12.4172 4.91056 12.7622 4.90779 13.0678 4.77735L13.068 4.77718Z" fill="black"/>
<path d="M1.14844 7.93487L1.63788 7.72754L1.84522 8.21699L1.35577 8.42432L1.14844 7.93487Z" fill="black"/>
<path d="M13.1277 7.21338L11.998 7.28249L12.0666 8.40384L13.6276 9.71143L14.6841 8.51715L13.1277 7.21338ZM12.6273 8.34131H12.6274C12.5025 8.34131 12.3945 8.25452 12.3677 8.13266L12.2535 7.6134L12.7728 7.49918L12.8299 7.75874L13.0895 7.70163L13.2038 8.22103L12.6847 8.33524C12.6658 8.33933 12.6467 8.34131 12.6276 8.34131L12.6273 8.34131ZM13.3905 9.0534H13.3906C13.3221 9.03612 13.2634 8.99246 13.2273 8.93192C13.1912 8.87138 13.1806 8.79898 13.1979 8.73066L13.3279 8.21521L13.8434 8.34526L13.7784 8.60298L14.0361 8.668L13.906 9.18344L13.3905 9.0534Z" fill="black"/>
<path d="M11.6534 7.46791L11.1685 7.34999L11.1687 7.35013C10.8036 7.26136 10.5024 7.00472 10.357 6.65836C10.2115 6.31201 10.2391 5.91714 10.4314 5.59438C10.5009 5.47806 10.5323 5.343 10.5211 5.20795L10.4799 4.70071L11.0097 4.65771L11.0509 5.16485C11.0713 5.41004 11.0143 5.65521 10.8881 5.86624C10.7822 6.04403 10.767 6.26152 10.8472 6.45235C10.9273 6.6432 11.0932 6.78459 11.2942 6.83352L11.779 6.9513L11.6534 7.46791Z" fill="black"/>
</svg>
