<svg width="8" height="15" viewBox="0 0 8 15" fill="none" xmlns="http://www.w3.org/2000/svg">
<path d="M0.000976562 14.4063C0.00124033 14.6702 0.215035 14.8841 0.478943 14.8842H7.49685C7.76077 14.8841 7.97468 14.6702 7.97482 14.4063V13.2896H0.00104354L0.000976562 14.4063ZM3.45641 13.8211H4.51958V14.3526L3.45641 14.3527V13.8211Z" fill="black"/>
<path d="M3.72168 10.6313V12.7577H6.49498L7.77076 10.6313H3.72168Z" fill="black"/>
<path d="M2.0006 1.06299H0.000976562V1.8604H1.68153L2.0006 1.06299Z" fill="black"/>
<path d="M0.000976562 10.6313H1.59566V12.7577H0.000976562V10.6313Z" fill="black"/>
<path d="M7.97477 12.7582V11.3257L7.11523 12.7582H7.97477Z" fill="black"/>
<path d="M7.49588 0H0.477968C0.214052 0.0002638 0.000270114 0.214058 0 0.477967V0.531514H7.97377V0.477967C7.97364 0.214052 7.75972 0.000270114 7.49581 0H7.49588Z" fill="black"/>
<path d="M3.84766 1.8604H7.97365V1.06299H4.16673L3.84766 1.8604Z" fill="black"/>
<path d="M3.72168 8.77132H5.52608L4.85383 8.23345H4.85396C4.61563 8.04287 4.49127 7.7436 4.52423 7.44026C4.55734 7.13691 4.74317 6.87154 5.01685 6.73662C5.29066 6.60182 5.61431 6.6162 5.87494 6.775C6.13569 6.61633 6.45923 6.60195 6.73303 6.73675C7.0067 6.87167 7.19252 7.13702 7.22551 7.4404C7.25862 7.74375 7.13424 8.04289 6.89605 8.23345L6.2238 8.77132H7.97441V3.72119H3.7218L3.72168 8.77132Z" fill="black"/>
<path d="M0.000976562 3.72119H1.59566V8.77132H0.000976562V3.72119Z" fill="black"/>
<path d="M3.23515 2.27519C3.18582 2.20212 3.1758 2.10927 3.20864 2.02736L3.5943 1.06299H2.57215L2.10735 2.22482C2.06699 2.32571 1.96926 2.39192 1.86058 2.39192H0V3.18933H1.86058C1.93101 3.18933 1.99867 3.2173 2.04853 3.26715C2.09838 3.31701 2.12634 3.38467 2.12634 3.4551V9.03667C2.12634 9.10723 2.09838 9.17476 2.04853 9.22462C1.99867 9.27447 1.93101 9.30243 1.86058 9.30243H0V10.0998H1.86058C1.93101 10.0998 1.99867 10.1278 2.04853 10.1777C2.09838 10.2275 2.12634 10.2952 2.12634 10.3656V12.7577H3.18951V10.3656C3.18951 10.2188 3.30848 10.0998 3.45528 10.0998H7.97361V9.30243H3.45528C3.30848 9.30243 3.18951 9.18347 3.18951 9.03667V3.4551C3.18951 3.3083 3.30848 3.18933 3.45528 3.18933H7.97361V2.39192H3.45528C3.36704 2.39192 3.28461 2.34812 3.23515 2.27519Z" fill="black"/>
</svg>
