<svg width="8" height="15" viewBox="0 0 8 15" fill="none" xmlns="http://www.w3.org/2000/svg">
<path d="M3.33165 11.7271L4.60557 10.4532C4.77585 10.2829 4.84232 10.0348 4.77994 9.80219C4.71768 9.56967 4.53607 9.38804 4.30342 9.32568C4.0709 9.26343 3.82282 9.3299 3.65255 9.50017L3.5196 9.63312V9.63299C3.46974 9.68285 3.40222 9.71094 3.33165 9.71094C3.26123 9.71094 3.19357 9.68284 3.14371 9.63299L3.01076 9.50004V9.50017C2.84062 9.3299 2.59239 9.26343 2.35989 9.32568C2.12723 9.38807 1.9456 9.56968 1.88337 9.80233C1.82099 10.0349 1.88746 10.2829 2.05773 10.4532L3.33165 11.7271Z" fill="black"/>
<path d="M4.92678 12.6476L6.2007 11.3737C6.36979 11.2037 6.43586 10.9566 6.37414 10.7249C6.31242 10.4932 6.13212 10.3118 5.9009 10.2485C5.66956 10.1852 5.42212 10.2496 5.25107 10.4176C5.19067 10.5718 5.099 10.7117 4.98188 10.8287L4.04492 11.7657L4.92678 12.6476Z" fill="black"/>
<path d="M5.11515 13.2118C5.06529 13.2617 4.99763 13.2896 4.92707 13.2896C4.85664 13.2896 4.78898 13.2617 4.73912 13.2118L3.66934 12.142L3.5203 12.291V12.2909C3.47044 12.3408 3.40291 12.3687 3.33235 12.3687C3.26192 12.3687 3.19426 12.3408 3.14441 12.2909L1.68251 10.829C1.498 10.644 1.3785 10.4041 1.34197 10.1453C1.30543 9.88653 1.35384 9.62286 1.47992 9.39404C1.02265 10.1564 0.937062 11.0853 1.2474 11.9183C1.55761 12.7514 2.23001 13.3979 3.07449 13.6755C3.919 13.953 4.8438 13.8313 5.5877 13.3446C6.33169 12.8581 6.81375 12.0593 6.89779 11.1745C6.84674 11.3925 6.73556 11.5919 6.57689 11.7499L5.11515 13.2118Z" fill="black"/>
<path d="M4.28736 6.11319H3.72103C2.77154 6.11319 1.89408 5.60659 1.41925 4.78427C0.944455 3.96194 0.944455 2.94874 1.41925 2.12637C1.89404 1.30404 2.77154 0.797445 3.72103 0.797445H4.11975C4.7895 0.797445 5.43166 1.06347 5.90531 1.53695C6.37878 2.01043 6.64481 2.65276 6.64481 3.32237V4.11978C6.64481 4.34004 6.82326 4.51851 7.04353 4.51851C7.26366 4.51851 7.44226 4.34006 7.44226 4.11978V3.2204C7.4412 2.36667 7.10158 1.54803 6.4979 0.944353C5.8941 0.340546 5.07558 0.0009454 4.22172 0H3.72106C2.7345 0.00118705 1.78873 0.393556 1.09113 1.09113C0.393557 1.7887 0.00118175 2.7345 0 3.72106V11.3656C0.00105513 12.2985 0.372184 13.193 1.0319 13.8527C1.69149 14.5124 2.58597 14.8834 3.51898 14.8845H4.45489H4.45476C5.38777 14.8835 6.28225 14.5124 6.94197 13.8527C7.6017 13.193 7.9727 12.2985 7.97378 11.3656V9.79982C7.97272 8.82251 7.5839 7.88541 6.89292 7.19429C6.20179 6.50331 5.26484 6.11451 4.28739 6.1133L4.28736 6.11319ZM3.98691 14.353C2.99349 14.3529 2.04823 13.9254 1.39232 13.1795C0.736284 12.4336 0.432946 11.4415 0.559832 10.4563C0.68658 9.47105 1.2313 8.58818 2.05481 8.03266L2.35236 8.47318C2.0411 8.68342 1.7731 8.95156 1.56299 9.2631C1.59912 9.21404 1.63896 9.16774 1.68195 9.12461C1.89878 8.90778 2.19014 8.78184 2.49665 8.77218C2.80317 8.76255 3.10177 8.87004 3.33178 9.07289C3.54637 8.88336 3.82149 8.77653 4.10768 8.77139C4.39402 8.76624 4.67269 8.86331 4.89388 9.04506C5.11506 9.22681 5.26438 9.4815 5.31489 9.76333C5.63828 9.647 5.99598 9.67417 6.29814 9.83785C6.6003 10.0017 6.81817 10.2864 6.89732 10.6209C6.8071 9.67797 6.26596 8.83718 5.44518 8.36448C4.62441 7.89178 3.62559 7.84575 2.76487 8.24089L2.61056 7.90602L2.54237 7.75817V7.75803C3.49291 7.32069 4.59038 7.33757 5.52707 7.80393C6.46376 8.27029 7.13864 9.1359 7.36246 10.1581C7.58628 11.1801 7.33503 12.2486 6.67914 13.0638C6.0231 13.879 5.03313 14.3531 3.98684 14.3531L3.98691 14.353Z" fill="black"/>
</svg>
