<svg width="16" height="12" viewBox="0 0 16 12" fill="none" xmlns="http://www.w3.org/2000/svg">
<path d="M0.7862 4.75716L0.563038 10.62C0.551959 10.9001 0.655363 11.1727 0.849508 11.3749C1.04378 11.5773 1.31204 11.6916 1.59232 11.6917C1.87272 11.6919 2.14113 11.5778 2.33554 11.3757C2.52995 11.1738 2.63362 10.9013 2.6228 10.621L2.39951 4.75684C2.62346 4.70461 2.82315 4.57825 2.96624 4.39822C3.10921 4.21833 3.18729 3.99528 3.18756 3.76528V0.530762H2.65604V2.65714H1.85863V0.530762H1.32711V2.65714H0.529699V0.530762H-0.00195312V3.76528C-0.00155748 3.9953 0.0765216 4.21833 0.219493 4.39822C0.362596 4.57826 0.562268 4.70461 0.786227 4.75684L0.7862 4.75716Z" fill="black"/>
<path d="M15.1555 0.514905C14.8951 0.189529 14.501 0 14.0842 0C13.6675 0 13.2734 0.189529 13.013 0.514905C12.503 1.15406 12.2247 1.94725 12.2236 2.76499V3.1571C12.2238 3.48841 12.3251 3.81182 12.5137 4.08403C12.7024 4.35638 12.9697 4.56476 13.2798 4.68125L13.0544 10.6207H13.0545C13.0433 10.9009 13.1467 11.1735 13.3409 11.3757C13.5351 11.5779 13.8033 11.6922 14.0837 11.6925C14.3641 11.6926 14.6325 11.5785 14.8269 11.3765C15.0213 11.1745 15.1251 10.902 15.1142 10.6218L14.8886 4.68126C15.1987 4.5648 15.4661 4.35655 15.6548 4.08418C15.8434 3.81182 15.9447 3.48854 15.9448 3.15724V2.76514C15.9437 1.9474 15.6655 1.15408 15.1554 0.514919L15.1555 0.514905Z" fill="black"/>
<path d="M7.97244 2.6582C6.84451 2.6582 5.76287 3.10625 4.96532 3.9038C4.16778 4.70135 3.71973 5.78299 3.71973 6.91092C3.71973 8.03871 4.16778 9.12049 4.96532 9.91793C5.76287 10.7155 6.84451 11.1635 7.97244 11.1635C9.10023 11.1635 10.182 10.7155 10.9795 9.91793C11.777 9.12052 12.2251 8.03875 12.2251 6.91092C12.2239 5.78336 11.7754 4.70239 10.9781 3.90512C10.1809 3.10798 9.09986 2.65938 7.97244 2.6582ZM10.15 3.71584H10.6815V4.20187H11.1675V4.73339H10.4156C10.2688 4.73339 10.1498 4.61443 10.1498 4.46763L10.15 3.71584ZM7.62885 2.736L7.97244 3.07972L8.31603 2.736L8.69192 3.11189L8.16041 3.64341V3.64354C8.11055 3.69327 8.04289 3.72136 7.97246 3.72136C7.9019 3.72136 7.83437 3.69327 7.78451 3.64354L7.253 3.11203L7.62885 2.736ZM4.77749 4.20184H5.26353L5.2634 3.7158H5.79492V4.4676C5.79492 4.53803 5.76696 4.60569 5.7171 4.65554C5.66724 4.7054 5.59958 4.73336 5.52915 4.73336H4.77736L4.77749 4.20184ZM4.17355 7.6306L3.79766 7.2547L4.14124 6.91085L3.79752 6.56726L4.17342 6.19137L4.70494 6.72288H4.70507C4.75492 6.77261 4.78288 6.84027 4.78288 6.91083C4.78288 6.98126 4.75492 7.04892 4.70507 7.09877L4.17355 7.6306ZM5.79491 10.1061H5.2634L5.26326 9.61993H4.77736V9.08841H5.52916V9.08828C5.59959 9.08828 5.66725 9.11624 5.7171 9.16609C5.76696 9.21595 5.79492 9.28361 5.79492 9.35404L5.79491 10.1061ZM8.31603 11.0859L7.97244 10.7419L7.62885 11.0856L7.25296 10.7097L7.78447 10.1782C7.83433 10.1284 7.90186 10.1003 7.97242 10.1003C8.04285 10.1003 8.11051 10.1284 8.16037 10.1782L8.69188 10.7097L8.31603 11.0859ZM7.97244 9.83453C7.2514 9.83453 6.55593 9.56811 6.01938 9.08659C5.48283 8.6049 5.14309 7.94214 5.06554 7.22533C4.98798 6.50851 5.17791 5.78835 5.59891 5.20315L6.03018 5.51389C5.55417 6.1756 5.44761 7.03396 5.74767 7.79193C6.04759 8.54977 6.71272 9.1028 7.51263 9.2595C8.31254 9.41605 9.13713 9.15477 9.70086 8.56601C10.2644 7.97723 10.4897 7.14197 10.2983 6.34969C10.1069 5.55728 9.52542 4.91694 8.75519 4.65027C7.98496 4.38358 7.13201 4.52734 6.49167 5.0317L6.16233 4.61441C6.67697 4.20593 7.31532 3.98464 7.9724 3.98714C9.01687 3.98714 9.98205 4.54438 10.5043 5.44903C11.0266 6.35354 11.0266 7.46817 10.5043 8.37268C9.98202 9.27732 9.01683 9.83457 7.9724 9.83457L7.97244 9.83453ZM6.57794 5.99857C6.71696 5.79058 6.93274 5.64614 7.17803 5.59708C7.42322 5.54815 7.67805 5.59827 7.88631 5.73688L7.97243 5.79426L8.05856 5.73688C8.26669 5.598 8.5215 5.54762 8.76693 5.59669C9.01225 5.64588 9.22815 5.7903 9.36693 5.99855C9.5057 6.20679 9.55619 6.46162 9.50713 6.70692C9.3602 7.45305 8.87482 8.08849 8.19363 8.4264L8.09141 8.47758C8.01663 8.51503 7.92853 8.51503 7.85361 8.47758L7.7514 8.4264C7.07017 8.08849 6.58481 7.45305 6.43803 6.70692C6.38818 6.4616 6.43856 6.2064 6.57797 5.99855L6.57794 5.99857ZM11.1675 9.62013L10.6816 9.62V10.106H10.1501L10.15 9.3541C10.15 9.20731 10.2689 9.08834 10.4157 9.08834H11.1675L11.1675 9.62013ZM11.7715 7.63053L11.2399 7.09902V7.09888C11.1901 7.04903 11.162 6.9815 11.162 6.91094C11.162 6.84051 11.1901 6.77285 11.2399 6.72299L11.7715 6.19148L12.1474 6.56737L11.8038 6.91096L12.1475 7.25455L11.7715 7.63053Z" fill="black"/>
</svg>
