<svg width="15" height="10" viewBox="0 0 15 10" fill="none" xmlns="http://www.w3.org/2000/svg">
<path d="M6.31385 6.03542C6.3637 6.08528 6.43123 6.11324 6.50179 6.11324C6.57222 6.11324 6.63988 6.08528 6.68974 6.03542L7.29922 5.42594L8.44021 6.56694C8.49007 6.61679 8.5576 6.64488 8.62816 6.64488C8.69859 6.64488 8.76625 6.61679 8.8161 6.56694L10.278 5.10504L10.2779 5.10518C10.5761 4.80684 10.6966 4.37462 10.596 3.96509C10.4954 3.5557 10.1882 3.22849 9.78578 3.10252C9.38338 2.97643 8.94444 3.06967 8.62817 3.34849C8.55141 3.28083 8.46647 3.22333 8.37507 3.1773C8.20665 2.84414 7.89339 2.6078 7.52688 2.53737C7.16037 2.46681 6.78184 2.57007 6.50183 2.81697C6.18555 2.53816 5.74649 2.44479 5.34408 2.57086C4.94182 2.69695 4.6345 3.02405 4.53388 3.43357C4.43324 3.84297 4.55392 4.27532 4.852 4.57352L6.31385 6.03542Z" fill="black"/>
<path d="M0 0V9.03701H14.8843V0H0ZM2.12637 8.2395C2.12637 8.30993 2.09841 8.37759 2.04856 8.42745C1.9987 8.4773 1.93104 8.50526 1.86061 8.50526H0.797442C0.650645 8.50526 0.531548 8.3863 0.531548 8.2395V7.17633C0.531548 7.02953 0.650645 6.91057 0.797442 6.91057H1.86061C1.93104 6.91057 1.9987 6.93853 2.04856 6.98839C2.09841 7.03824 2.12637 7.1059 2.12637 7.17633V8.2395ZM2.12637 6.11313C2.12637 6.18369 2.09841 6.25122 2.04856 6.30107C1.9987 6.35093 1.93104 6.37889 1.86061 6.37889H0.797442C0.650645 6.37889 0.531548 6.25992 0.531548 6.11313V5.04996C0.531548 4.90316 0.650645 4.78419 0.797442 4.78419H1.86061C1.93104 4.78419 1.9987 4.81215 2.04856 4.86201C2.09841 4.91187 2.12637 4.97953 2.12637 5.04996V6.11313ZM2.12637 3.98675C2.12637 4.05731 2.09841 4.12484 2.04856 4.1747C1.9987 4.22455 1.93104 4.25252 1.86061 4.25252H0.797442C0.650645 4.25252 0.531548 4.13355 0.531548 3.98675V2.92358C0.531548 2.77679 0.650645 2.65782 0.797442 2.65782H1.86061C1.93104 2.65782 1.9987 2.68578 2.04856 2.73564C2.09841 2.78549 2.12637 2.85315 2.12637 2.92358V3.98675ZM2.12637 1.86038C2.12637 1.93094 2.09841 1.99847 2.04856 2.04832C1.9987 2.09818 1.93104 2.12614 1.86061 2.12614H0.797442C0.650645 2.12614 0.531548 2.00718 0.531548 1.86038V0.797208C0.531548 0.650411 0.650645 0.531447 0.797442 0.531447H1.86061C1.93104 0.531447 1.9987 0.559408 2.04856 0.609264C2.09841 0.65912 2.12637 0.726779 2.12637 0.797208V1.86038ZM12.2266 8.255C12.2266 8.32134 12.2002 8.38504 12.1533 8.43187C12.1063 8.47882 12.0428 8.5052 11.9763 8.5052H2.92375C2.77695 8.5052 2.65785 8.38623 2.65785 8.23944V0.797111C2.65785 0.650314 2.77695 0.531349 2.92375 0.531349H11.9608C12.0312 0.531349 12.0988 0.55931 12.1487 0.609166C12.1986 0.659022 12.2265 0.726682 12.2265 0.797111L12.2266 8.255ZM14.353 8.23944C14.353 8.30986 14.3249 8.37752 14.2752 8.42738C14.2253 8.47724 14.1577 8.5052 14.0872 8.5052H13.0241C12.8773 8.5052 12.7582 8.38623 12.7582 8.23944V7.17626C12.7582 7.02947 12.8773 6.9105 13.0241 6.9105H14.0872C14.1577 6.9105 14.2253 6.93846 14.2752 6.98832C14.3249 7.03818 14.353 7.10584 14.353 7.17626V8.23944ZM14.353 6.11306C14.353 6.18362 14.3249 6.25115 14.2752 6.30101C14.2253 6.35086 14.1577 6.37882 14.0872 6.37882H13.0241C12.8773 6.37882 12.7582 6.25986 12.7582 6.11306V5.04989C12.7582 4.90309 12.8773 4.78413 13.0241 4.78413H14.0872C14.1577 4.78413 14.2253 4.81209 14.2752 4.86195C14.3249 4.9118 14.353 4.97946 14.353 5.04989V6.11306ZM14.353 3.98669C14.353 4.05725 14.3249 4.12478 14.2752 4.17463C14.2253 4.22449 14.1577 4.25245 14.0872 4.25245H13.0241C12.8773 4.25245 12.7582 4.13348 12.7582 3.98669V2.92352C12.7582 2.77672 12.8773 2.65776 13.0241 2.65776H14.0872C14.1577 2.65776 14.2253 2.68572 14.2752 2.73557C14.3249 2.78543 14.353 2.85309 14.353 2.92352V3.98669ZM14.353 1.86031C14.353 1.93087 14.3249 1.9984 14.2752 2.04826C14.2253 2.09811 14.1577 2.12608 14.0872 2.12608H13.0241C12.8773 2.12608 12.7582 2.00711 12.7582 1.86031V0.797144C12.7582 0.650347 12.8773 0.531382 13.0241 0.531382H14.0872C14.1577 0.531382 14.2253 0.559342 14.2752 0.609198C14.3249 0.659054 14.353 0.726715 14.353 0.797144V1.86031Z" fill="black"/>
</svg>
