<svg width="16" height="12" viewBox="0 0 16 12" fill="none" xmlns="http://www.w3.org/2000/svg">
<path d="M12.0743 11.7264C7.43563 11.5477 7.27763 4.55559 11.8958 4.11958V2.89781C11.8913 2.71096 11.7804 2.54587 11.6156 2.4807C11.3428 2.35904 11.1208 2.13616 10.9909 1.85374C10.861 1.57118 10.8322 1.24815 10.9095 0.944633C11.2688 -0.455915 13.2033 -0.239221 13.3027 1.19923L13.5754 1.48636L13.5755 1.48649C13.6502 1.56647 13.6495 1.69565 13.5743 1.77496C13.4989 1.85427 13.3773 1.8536 13.3029 1.77362L12.9663 1.4295C12.9305 1.39145 12.9103 1.33984 12.9103 1.28593C12.9118 1.07032 12.8394 0.861422 12.7066 0.698239C12.574 0.535048 12.3898 0.428855 12.1889 0.399281C11.9878 0.369708 11.7835 0.418907 11.6142 0.537602C11.4447 0.656431 11.3218 0.836559 11.268 1.0445C11.2144 1.25258 11.2338 1.47424 11.3225 1.66822C11.4113 1.86219 11.5635 2.01516 11.7507 2.09865C11.8991 2.16371 12.0266 2.2734 12.1172 2.41454C12.2077 2.55555 12.2576 2.7217 12.2603 2.89243V4.1142C16.8712 4.55565 16.708 11.5476 12.0743 11.7262L12.0743 11.7264ZM12.0487 4.52083L12.0489 4.5207C11.2047 4.52782 10.3974 4.88915 9.80259 5.52592C9.20779 6.16254 8.87375 7.02327 8.87314 7.92053C9.04906 12.431 15.097 12.431 15.2731 7.92053H15.273C15.2717 7.01453 14.9308 6.14654 14.3257 5.50843C13.7205 4.87046 12.9012 4.51492 12.0489 4.5207L12.0487 4.52083ZM3.56143 11.7264C-1.07464 11.5477 -1.23264 4.55559 3.37033 4.11958V2.89781C3.36577 2.71096 3.25473 2.54587 3.08994 2.4807C2.81777 2.3581 2.59657 2.13509 2.46681 1.85295C2.33705 1.57066 2.3077 1.24818 2.38397 0.944633C2.74594 -0.455915 4.67782 -0.239221 4.77721 1.19923L5.04989 1.48636V1.48649C5.12438 1.5658 5.12438 1.69431 5.04989 1.77362C5.01435 1.81234 4.96566 1.83411 4.91482 1.83411C4.86397 1.83411 4.81528 1.81234 4.77974 1.77362L4.45345 1.4295C4.41765 1.39146 4.39742 1.33984 4.39742 1.28593C4.39894 1.07032 4.32659 0.861424 4.1938 0.698241C4.06112 0.53505 3.87698 0.428857 3.67602 0.399283C3.47506 0.36971 3.27066 0.418909 3.10133 0.537604C2.93185 0.656433 2.80893 0.836561 2.75519 1.0445C2.70156 1.25259 2.72104 1.47424 2.80982 1.66822C2.89861 1.86219 3.05063 2.01517 3.23781 2.09865C3.3868 2.16304 3.51454 2.27273 3.60523 2.41388C3.69591 2.55502 3.74536 2.72143 3.74751 2.89241V4.11419C8.36059 4.55563 8.19515 11.5476 3.56147 11.7262L3.56143 11.7264ZM3.53854 4.52083V4.5207C2.69434 4.52782 1.88705 4.88915 1.29225 5.52592C0.697449 6.16254 0.363415 7.02327 0.362799 7.92053C0.538723 12.431 6.58664 12.431 6.76277 7.92053C6.76138 7.01453 6.42042 6.14654 5.81535 5.50843C5.21029 4.87046 4.39089 4.51492 3.5386 4.5207L3.53854 4.52083ZM12.0741 10.8083C11.3519 10.8105 10.6587 10.5072 10.1471 9.96562C9.63542 9.4239 9.34759 8.68806 9.34695 7.92063C9.49479 4.0902 14.6306 4.0902 14.7808 7.92063C14.7802 8.68442 14.4951 9.41678 13.9879 9.95795C13.4807 10.499 12.7926 10.8047 12.074 10.8083H12.0741ZM12.0741 5.4393C11.4551 5.43997 10.8617 5.70169 10.424 6.16695C9.98626 6.63206 9.74016 7.26277 9.73952 7.92077C9.867 11.2121 14.2814 11.2121 14.4086 7.92077C14.4079 7.26277 14.1617 6.63206 13.724 6.16695C13.2863 5.70169 12.6929 5.43999 12.0739 5.4393H12.0741ZM3.5612 10.8083C2.84081 10.8076 2.15014 10.5032 1.64085 9.9617C1.13143 9.42026 0.844958 8.68617 0.844311 7.92063C0.994686 4.0902 6.13051 4.0902 6.27815 7.92063C6.27739 8.68617 5.99093 9.42026 5.48161 9.9617C4.97219 10.5031 4.28152 10.8076 3.56113 10.8083H3.5612ZM3.5612 5.4393C2.94225 5.43997 2.34884 5.70169 1.9111 6.16695C1.47336 6.63206 1.22727 7.26277 1.22662 7.92077C1.35663 11.2121 5.76847 11.2121 5.89571 7.92077C5.89495 7.26277 5.64884 6.63206 5.2111 6.16695C4.77336 5.70169 4.17996 5.43999 3.561 5.4393H3.5612ZM12.0715 9.32927C12.0208 9.32954 11.9721 9.30803 11.9364 9.26958L10.973 8.24554C9.99164 7.21613 11.0214 5.92673 12.0715 6.8017C13.1701 5.90227 14.1105 7.2812 13.2057 8.21302L12.2066 9.26945V9.26958C12.1714 9.30883 12.1223 9.33048 12.0715 9.32927ZM11.3859 6.91827C10.9067 6.95349 10.8125 7.47909 11.2559 7.95856L12.074 8.83889L12.9329 7.92872C13.5523 7.28136 12.9151 6.4686 12.2066 7.2136C12.1319 7.29277 12.011 7.29277 11.9364 7.2136C11.7963 7.04234 11.5986 6.93642 11.3859 6.91827ZM3.56133 9.32927C3.51061 9.32954 3.46192 9.30803 3.42625 9.26958L2.46543 8.24568C1.48412 7.21627 2.51134 5.92687 3.56399 6.80184C4.66254 5.90241 5.603 7.28134 4.69819 8.21316L3.69906 9.26958H3.69894C3.66277 9.3087 3.61293 9.33021 3.56133 9.32927ZM2.86043 6.91827C2.38387 6.95349 2.28953 7.47909 2.73295 7.95856L3.56134 8.83889L4.41263 7.93677C4.58906 7.77009 4.68316 7.52623 4.66748 7.27582C4.56048 6.82064 4.10162 6.79363 3.6939 7.21896C3.61814 7.29531 3.49951 7.29531 3.42375 7.21896C3.28134 7.04286 3.07846 6.93454 2.86043 6.91827Z" fill="black"/>
</svg>
