<svg width="15" height="17" viewBox="0 0 15 17" fill="none" xmlns="http://www.w3.org/2000/svg">
<path d="M14.1451 16.9381H0.187479C0.0844946 16.9366 0.00136266 16.845 0 16.7316V16.357C0.00173706 16.168 0.0739493 15.988 0.199765 15.8592C0.325454 15.7306 0.493827 15.6646 0.66504 15.6767V10.4962H0.187473C0.120222 10.4951 0.0585563 10.4543 0.0260494 10.3896C-0.00658147 10.3246 -0.00496978 10.2455 0.0300198 10.1821L0.817665 8.78305C0.852281 8.72264 0.912708 8.68615 0.977601 8.6867H4.11824V6.13634L3.61821 6.5495L3.61809 6.54936C3.47776 6.66812 3.294 6.70516 3.12451 6.64899C2.95515 6.59269 2.82052 6.45014 2.76295 6.26578C2.72101 6.14374 2.71716 6.00981 2.75203 5.88502C2.78689 5.76038 2.85849 5.652 2.95551 5.57725L6.83354 2.36858C6.87871 2.33291 6.92846 2.30516 6.98107 2.28603V1.05205H6.41602C6.31242 1.05205 6.22842 0.959659 6.22842 0.845542C6.22842 0.731426 6.31242 0.638904 6.41602 0.638904H6.98367L6.98355 0.206502C6.98355 0.0925224 7.06755 0 7.17115 0C7.27476 0 7.35863 0.0925224 7.35863 0.206502V0.638904H7.9563C8.0599 0.638904 8.14378 0.731426 8.14378 0.845542C8.14378 0.959659 8.0599 1.05205 7.9563 1.05205H7.35612V2.28603C7.4065 2.30516 7.45377 2.33304 7.49621 2.36858L11.3819 5.56892C11.519 5.70709 11.5842 5.91155 11.5558 6.1138C11.5273 6.31607 11.4088 6.48921 11.2402 6.57521C11.0715 6.66104 10.875 6.64833 10.7167 6.54118L10.2167 6.12802V8.67838H13.3547C13.4196 8.67783 13.4801 8.71432 13.5148 8.77487L14.3024 10.1739C14.3374 10.2372 14.3389 10.3163 14.3063 10.3812C14.2737 10.4462 14.2121 10.4869 14.1448 10.4878H13.6673V15.6767C13.8385 15.6647 14.0069 15.7307 14.1327 15.8593C14.2585 15.9881 14.3307 16.1681 14.3323 16.3571V16.7317C14.3309 16.8451 14.2478 16.9367 14.1448 16.9382L14.1451 16.9381ZM0.375202 16.5249H13.9577V16.357C13.9577 16.284 13.9314 16.2139 13.8845 16.1622C13.8376 16.1106 13.774 16.0816 13.7077 16.0816H0.620383C0.482284 16.0816 0.370244 16.2049 0.370244 16.357L0.375202 16.5249ZM12.5798 15.6767H13.2924V10.4962H10.2143V15.6767H10.9169V13.2228C10.9183 13.1092 11.0014 13.0177 11.1045 13.0162H12.3922C12.4952 13.0177 12.5784 13.1092 12.5798 13.2228L12.5798 15.6767ZM11.302 15.6767H12.2047V13.4266H11.302V15.6767ZM8.88413 15.6767H9.83926V5.82788L7.16628 3.62739L4.4933 5.83075V15.6767H5.45091V12.402C5.47374 11.7437 5.80578 11.1458 6.32753 10.8237C6.84941 10.5016 7.48566 10.5016 8.00742 10.8237C8.52917 11.1458 8.86119 11.7437 8.88403 12.402L8.88413 15.6767ZM7.35636 15.6767H8.50903L8.5089 12.402C8.5063 12.0479 8.38855 11.7065 8.17713 11.4397C7.96571 11.1731 7.6745 10.9985 7.35623 10.9478L7.35636 15.6767ZM5.82611 15.6767H6.98126L6.98113 10.9478C6.66127 10.9981 6.36844 11.1736 6.15626 11.442C5.94421 11.7106 5.82697 12.0543 5.82598 12.4103L5.82611 15.6767ZM3.40562 15.6767H4.11821V10.4962H1.04011V15.6767H1.7527L1.75282 13.2228C1.75419 13.1092 1.83732 13.0177 1.9403 13.0162H3.21806C3.32104 13.0177 3.4043 13.1092 3.40554 13.2228L3.40562 15.6767ZM2.12786 15.6767H3.03052V13.4266H2.12786V15.6767ZM10.2143 10.083H13.8074L13.2498 9.09977H10.2142L10.2143 10.083ZM0.525064 10.083H4.11817V9.09977H1.08264L0.525064 10.083ZM7.16622 3.16189C7.20679 3.16175 7.24637 3.17624 7.27863 3.20316L10.9394 6.21899C11.0202 6.28828 11.1366 6.27215 11.1993 6.18318C11.2296 6.14041 11.2431 6.08629 11.2369 6.03258C11.2309 5.97886 11.2057 5.92994 11.1668 5.89673L7.2761 2.70202C7.24979 2.68097 7.21865 2.66853 7.18614 2.66621C7.13949 2.66129 7.09284 2.67387 7.05363 2.70202L3.16543 5.89949C3.1029 5.94992 3.0792 6.04053 3.10786 6.11994C3.10786 6.14467 3.16035 6.26317 3.26544 6.2577V6.25756C3.30676 6.26029 3.34758 6.24663 3.38046 6.21902L7.05361 3.2032C7.086 3.17627 7.12545 3.16179 7.16615 3.16192L7.16622 3.16189ZM7.18371 9.0862C7.13396 9.08606 7.08631 9.06433 7.0512 9.02552L6.10597 7.98438C5.1058 6.86617 6.25102 5.65433 7.18372 6.51917C8.11887 5.65433 9.26411 6.8689 8.26146 7.98438L7.31623 9.02006C7.28187 9.06079 7.23409 9.0847 7.18371 9.0862ZM6.49857 6.63783C6.02596 6.6791 5.94096 7.21073 6.37102 7.69261L7.18373 8.58778L7.99643 7.69261C8.52399 7.12803 8.24645 6.45876 7.64392 6.69289L7.64379 6.69276C7.52071 6.7518 7.40941 6.83708 7.31625 6.94341C7.24304 7.02404 7.12442 7.02404 7.05122 6.94341C6.91051 6.7656 6.71211 6.65572 6.49859 6.63768L6.49857 6.63783Z" fill="black"/>
</svg>
