<svg width="17" height="14" viewBox="0 0 17 14" fill="none" xmlns="http://www.w3.org/2000/svg">
<path d="M8.46381 13.0293C7.54312 13.032 6.6425 12.7617 5.87643 12.2527H0.756923C0.555195 12.2498 0.362628 12.1679 0.220986 12.0246C0.0793519 11.8814 0 11.6883 0 11.487V2.77439C0 2.57313 0.0793519 2.38005 0.220986 2.23678C0.362621 2.09352 0.555198 2.01155 0.756923 2.00869H1.58268V1.27879C1.59934 0.98479 1.76624 0.720082 2.02481 0.577783C2.28322 0.435484 2.59679 0.435484 2.85535 0.577783C3.11376 0.720082 3.28066 0.984811 3.29748 1.27879V2.00879H4.88291L4.88278 1.03177C4.88278 0.758606 4.9915 0.496489 5.18503 0.30312C5.37842 0.109754 5.64093 0.000679774 5.91505 0H11.0618C11.3361 0.000680854 11.599 0.109618 11.7929 0.302984C11.9867 0.49635 12.096 0.758327 12.0968 1.03177V1.99778L16.1702 1.99765C16.3738 1.99765 16.5693 2.0784 16.7132 2.22192C16.8572 2.36558 16.9382 2.56031 16.9382 2.76334V11.4871C16.9382 11.6903 16.8572 11.885 16.7132 12.0285C16.5693 12.1722 16.3738 12.2528 16.1702 12.2528H11.0479C10.2822 12.7606 9.38285 13.0307 8.46339 13.0294L8.46381 13.0293ZM6.05821 11.8767C8.84922 13.7977 12.7357 11.7643 12.7357 8.38061C12.7357 4.30266 7.57777 2.54362 5.07291 5.7654C3.57272 7.61776 4.05988 10.5841 6.05534 11.8767H6.05821ZM11.5851 11.8411H16.1703C16.2645 11.8411 16.3548 11.8037 16.4215 11.7374C16.488 11.671 16.5254 11.581 16.5254 11.487V10.7407H12.4905C12.2445 11.1507 11.9383 11.5216 11.5821 11.841L11.5851 11.8411ZM0.415634 10.7434L0.415497 11.487C0.415361 11.6774 0.566146 11.8337 0.756811 11.8411H5.33961C4.98203 11.5238 4.67571 11.1535 4.43123 10.7434H0.415634ZM12.7106 10.3317H16.5144V5.84486H12.4134C13.2692 7.1927 13.3801 8.88136 12.708 10.3289L12.7106 10.3317ZM0.415634 10.3317H4.21383H4.2137C3.53926 8.88432 3.6514 7.19402 4.51103 5.84765H0.412837L0.415634 10.3317ZM12.1162 5.42236H16.52V2.7742C16.52 2.5807 16.3643 2.42316 16.1703 2.42016H0.756888C0.560758 2.42016 0.401788 2.57867 0.401788 2.7742V5.42236H4.80557C6.59464 3.11165 10.3244 3.11451 12.116 5.42236H12.1162ZM5.31766 2.0085H11.684V1.03161C11.684 0.867115 11.6184 0.709429 11.5018 0.593003C11.3852 0.476713 11.2269 0.41135 11.0619 0.41135H5.93713C5.77255 0.412167 5.61508 0.477801 5.49899 0.593958C5.38304 0.710248 5.31775 0.86753 5.31775 1.03163L5.31766 2.0085ZM2.01474 2.0085H2.90375L2.90388 1.2786C2.88558 1.04724 2.69205 0.868852 2.45931 0.868852C2.22671 0.868852 2.03306 1.04724 2.01487 1.2786L2.01474 2.0085ZM8.46395 11.7589C7.55868 11.7581 6.69072 11.3994 6.05045 10.7616C5.41004 10.1236 5.04959 9.25851 5.04823 8.35609C5.23534 3.84169 11.6897 3.84169 11.8768 8.35609C11.8753 9.25809 11.5153 10.1228 10.8755 10.7606C10.2358 11.3985 9.36848 11.7574 8.46377 11.7589L8.46395 11.7589ZM8.46395 5.36484V5.3647C7.66794 5.3647 6.9046 5.67981 6.34149 6.2407C5.77839 6.8016 5.46179 7.56239 5.46095 8.35602C5.62607 12.3242 11.2986 12.3242 11.464 8.35602H11.4641C11.4633 7.56281 11.147 6.80244 10.5846 6.24168C10.0221 5.68092 9.25949 5.36554 8.46405 5.36474L8.46395 5.36484ZM15.232 4.70344H13.6933C13.4223 4.70344 13.2022 4.48515 13.2007 4.21498V3.6387C13.2022 3.3684 13.4223 3.1501 13.6933 3.1501H15.2209C15.4919 3.1501 15.7121 3.36839 15.7136 3.6387V4.21498C15.7121 4.48201 15.497 4.69894 15.2292 4.70344H15.232ZM13.6933 3.56177C13.6724 3.56109 13.6521 3.56885 13.637 3.58328C13.622 3.59785 13.6135 3.61773 13.6135 3.6387V4.21498C13.6135 4.23581 13.622 4.25569 13.637 4.27026C13.6521 4.28469 13.6724 4.29246 13.6933 4.29178H15.2209C15.2418 4.29246 15.2622 4.28469 15.2772 4.27026C15.2922 4.25569 15.3007 4.23581 15.3007 4.21498V3.6387C15.3007 3.61773 15.2922 3.59785 15.2772 3.58328C15.2622 3.56885 15.2418 3.56109 15.2209 3.56177H13.6933ZM2.4606 4.70344C2.18239 4.70344 1.92523 4.55542 1.78603 4.31506C1.64686 4.07485 1.64686 3.77881 1.78603 3.53848C1.92521 3.29827 2.18239 3.1501 2.4606 3.1501C2.73895 3.1501 2.99612 3.29826 3.13518 3.53848C3.27435 3.77882 3.27435 4.07487 3.13518 4.31506C2.99614 4.5554 2.73896 4.70344 2.4606 4.70344ZM2.4606 3.56177C2.25847 3.56177 2.09456 3.72518 2.09456 3.92686C2.09456 4.12839 2.25846 4.29181 2.4606 4.29181C2.66288 4.29181 2.82679 4.1284 2.82679 3.92686C2.82679 3.72519 2.66289 3.56177 2.4606 3.56177Z" fill="black"/>
</svg>
