<svg width="14" height="16" viewBox="0 0 14 16" fill="none" xmlns="http://www.w3.org/2000/svg">
<path d="M1.93852 7.99056C1.67916 7.76253 1.33505 7.65222 0.989916 7.68665C0.644644 7.72107 0.329667 7.89695 0.121438 8.17151C0.0394651 8.27907 -0.00323335 8.41101 0.000191034 8.54569C0.00374936 8.68037 0.0531692 8.80996 0.140678 8.91322L2.59325 11.8249C2.95289 12.861 3.70342 13.7194 4.68803 14.2207V15.3725C4.68803 15.4422 4.7161 15.509 4.76591 15.5583C4.81573 15.6075 4.88321 15.6352 4.95371 15.6352H9.99987C10.0704 15.6352 10.1379 15.6075 10.1877 15.5583C10.2375 15.509 10.2654 15.4422 10.2654 15.3725V13.6053C10.7869 12.7214 11.0969 11.731 11.1717 10.7102L11.3237 8.60503C11.4731 8.26736 12.4953 5.95607 12.9494 4.93132C13.0355 4.73784 13.0526 4.52103 12.9979 4.31673C12.9432 4.1123 12.8199 3.93237 12.6483 3.80631L12.6354 3.79666C12.4183 3.63565 12.1409 3.57659 11.8762 3.63487C11.6113 3.69314 11.3855 3.86315 11.2579 4.10006L9.59333 7.19283C9.57883 7.21903 9.54825 7.23233 9.519 7.22503C9.48961 7.21773 9.46905 7.19178 9.46879 7.1618V6.17654C9.53916 6.17654 9.60677 6.1489 9.65658 6.09961C9.7064 6.05033 9.73434 5.98345 9.73434 5.91383V4.86288C9.73434 4.79326 9.7064 4.72638 9.65658 4.6771C9.60677 4.62781 9.53916 4.60017 9.46879 4.60017V1.97271C9.46879 1.59722 9.26636 1.25028 8.93769 1.06254C8.60901 0.874799 8.20402 0.874799 7.87535 1.06241C7.54667 1.25015 7.34411 1.59709 7.34411 1.97258V4.60018C7.19743 4.60018 7.07856 4.71778 7.07856 4.86288V5.91383C7.07856 5.98345 7.1065 6.05033 7.15632 6.09962C7.20613 6.1489 7.27361 6.17654 7.34411 6.17654V6.54825C7.34345 6.63364 7.27295 6.70248 7.18649 6.70209H7.17648C7.10426 6.70209 7.0435 6.64851 7.0352 6.57745C6.92647 5.64579 6.55825 2.48688 6.38076 0.951907C6.34649 0.658825 6.19203 0.392457 5.95364 0.215296C5.7151 0.0382459 5.41343 -0.0342435 5.1193 0.0151699L5.099 0.0184293C4.83675 0.0630164 4.60083 0.202909 4.43757 0.410732C4.27415 0.618552 4.19521 0.879166 4.21604 1.1416L4.6135 5.83262L3.3536 2.80517C3.21983 2.48418 2.92648 2.25536 2.57972 2.20153C2.23296 2.14769 1.88297 2.27662 1.65628 2.5418C1.42961 2.80685 1.35897 3.16967 1.47007 3.49902L3.09474 8.32121V9.00725L1.93852 7.99056ZM7.60951 5.65123V5.12569H9.20294V5.65109L7.60951 5.65123ZM7.87506 3.5493H8.9374V3.96597L8.40629 4.49137L7.8752 3.96597L7.87506 3.5493Z" fill="black"/>
</svg>
