<svg width="17" height="17" viewBox="0 0 17 17" fill="none" xmlns="http://www.w3.org/2000/svg">
<path d="M15.6224 16.938H3.80057C3.62925 16.938 3.46498 16.8643 3.34387 16.7331C3.22289 16.6019 3.15477 16.424 3.15477 16.2384V14.2058H1.27859C1.10777 14.2058 0.943909 14.1326 0.822801 14.0019C0.701818 13.8713 0.633442 13.6942 0.632812 13.509V0.699612C0.632812 0.514018 0.700811 0.336065 0.821919 0.204865C0.943028 0.0736646 1.10728 0 1.27861 0H13.1004H13.1003C13.2716 0 13.4359 0.0736646 13.557 0.204865C13.6781 0.336065 13.7461 0.514004 13.7461 0.699612V2.73213H15.6223C15.7938 2.73295 15.9581 2.80716 16.0791 2.93877C16.2002 3.07052 16.2681 3.24873 16.2681 3.43446V16.2386C16.2681 16.4242 16.2001 16.6021 16.0789 16.7333C15.9578 16.8645 15.7936 16.9382 15.6223 16.9382L15.6224 16.938ZM3.53639 14.2059V16.2384C3.53639 16.3115 3.56313 16.3816 3.61082 16.4331C3.65851 16.4848 3.72322 16.5139 3.79059 16.5139H15.6124C15.6797 16.5139 15.7445 16.4848 15.7922 16.4331C15.8398 16.3816 15.8666 16.3115 15.8666 16.2384V3.43427C15.8701 3.35883 15.8449 3.28517 15.7968 3.2305C15.7488 3.17583 15.682 3.14495 15.6124 3.14508H13.7463V3.83089H14.8573C14.9624 3.83089 15.0634 3.87613 15.1378 3.95676C15.2121 4.03726 15.2538 4.1466 15.2538 4.26058V15.4095C15.2538 15.6467 15.0764 15.839 14.8574 15.839H4.56605C4.34705 15.839 4.16943 15.6467 4.16943 15.4095V14.2058L3.53639 14.2059ZM4.55331 14.2059V15.4095L14.8598 15.426L14.8751 4.26068L14.8598 4.24414H13.7462V13.509C13.7456 13.6942 13.6772 13.8713 13.5563 14.002C13.4351 14.1326 13.2713 14.2059 13.1005 14.2059L4.55331 14.2059ZM3.3483 13.7927H13.1006C13.1681 13.7927 13.2327 13.7637 13.2804 13.7121C13.328 13.6604 13.3549 13.5903 13.3549 13.5173V0.69956C13.3549 0.626445 13.328 0.556471 13.2804 0.50481C13.2327 0.453148 13.1681 0.424176 13.1006 0.424176H1.2788C1.13839 0.424176 1.0246 0.547448 1.0246 0.69956V13.5089C1.0246 13.582 1.05134 13.6521 1.09903 13.7037C1.14672 13.7553 1.21131 13.7844 1.2788 13.7844L3.3483 13.7927ZM12.3381 13.1069H2.0442C1.82507 13.1069 1.64758 12.9146 1.64758 12.6772V1.52833C1.64758 1.29094 1.82508 1.09866 2.0442 1.09866H12.3355C12.4407 1.09866 12.5416 1.1439 12.616 1.22453C12.6904 1.30503 12.7321 1.41436 12.7321 1.52834V12.6772C12.7321 12.7912 12.6904 12.9005 12.616 12.981C12.5416 13.0617 12.4407 13.1069 12.3355 13.1069L12.3381 13.1069ZM10.9601 12.691H12.3381C12.3228 12.6745 12.3814 1.50643 12.3381 1.50888L2.0442 1.50901L2.02894 12.6771H3.42472H3.42459C3.37476 12.0105 3.51972 11.3438 3.83901 10.7713V5.7668C3.84179 5.15236 4.05272 4.56045 4.43193 4.10342C4.81114 3.64643 5.33204 3.35628 5.89569 3.28806C5.92143 3.1544 5.98375 3.03222 6.07445 2.93749C6.16516 2.84264 6.27996 2.77964 6.40422 2.75654C6.49897 2.53705 6.66738 2.36525 6.87516 2.27589C7.08293 2.18665 7.31444 2.18665 7.5222 2.27589C7.72997 2.36527 7.89838 2.53706 7.99313 2.75654C8.11777 2.77854 8.2332 2.84114 8.32403 2.93612C8.41499 3.0311 8.47693 3.15397 8.50166 3.28805C9.06583 3.35557 9.58734 3.64544 9.96707 4.10258C10.3467 4.55958 10.5581 5.1519 10.5609 5.76676V10.7713C10.8761 11.3501 11.0149 12.0218 10.9575 12.6909L10.9601 12.691ZM9.7093 12.691H10.5788C10.6555 11.9515 10.4407 11.2112 9.98723 10.6522C9.53371 10.0932 8.8835 9.76757 8.19661 9.75512C8.06175 9.75512 7.93244 9.69703 7.83706 9.59371C7.74181 9.49039 7.6882 9.35031 7.6882 9.2042V8.50475C7.36764 8.6052 7.0274 8.6052 6.70683 8.50475V9.21253C6.70683 9.35863 6.65321 9.49871 6.55797 9.60204C6.4626 9.70536 6.33329 9.76331 6.19842 9.76331C5.99418 9.76385 5.79082 9.79255 5.59327 9.84872C5.03417 10.0168 4.54834 10.3946 4.22235 10.9146C3.89649 11.4347 3.75155 12.0633 3.81375 12.6882H4.68069V12.1677C4.68927 11.7451 4.86538 11.347 5.16399 11.0749C5.46261 10.8028 5.85496 10.6829 6.24073 10.7462C6.62663 10.8094 6.96864 11.0494 7.17969 11.4048C7.38595 11.0382 7.72997 10.7874 8.12117 10.7185C8.5125 10.6495 8.91202 10.7693 9.21492 11.0463C9.51782 11.3234 9.6938 11.7301 9.69658 12.1595L9.7093 12.691ZM5.0568 12.691H9.32789V12.1677C9.32789 11.7919 9.14282 11.4446 8.84232 11.2565C8.54182 11.0686 8.17167 11.0686 7.8712 11.2565C7.57069 11.4446 7.38563 11.7919 7.38563 12.1677C7.38563 12.2833 7.29909 12.3771 7.19236 12.3771C7.08564 12.3771 6.99922 12.2833 6.99922 12.1677C6.99922 11.7919 6.81402 11.4446 6.51366 11.2565C6.21315 11.0686 5.84288 11.0686 5.5424 11.2565C5.2419 11.4446 5.05683 11.7919 5.05683 12.1677L5.0568 12.691ZM8.11768 9.32817C8.18883 9.36945 8.29316 9.32817 8.37188 9.35578H8.372C8.49248 9.36398 8.61233 9.38147 8.73042 9.40812C9.27932 9.52402 9.78229 9.81908 10.172 10.2535V5.76719C10.1664 5.1586 9.91641 4.58296 9.4871 4.19034C9.0578 3.79782 8.49201 3.6274 7.93731 3.72362C8.21674 3.86807 8.45491 4.09178 8.62636 4.37115C8.79782 4.65052 8.89621 4.97495 8.91097 5.31005C9.69905 5.40367 9.61517 6.6871 8.91097 6.86067C8.86972 7.46692 8.55736 8.01306 8.07458 8.32315V9.21272C8.07168 9.25345 8.08681 9.29322 8.11532 9.32014L8.11768 9.32817ZM6.0838 3.7016H6.08392C5.58812 3.72279 5.11884 3.9502 4.77382 4.3363C4.42865 4.72252 4.23413 5.23791 4.23061 5.77555V10.2427C4.71175 9.70841 5.36031 9.38905 6.04837 9.34749C6.15005 9.34749 6.32805 9.36949 6.32805 9.21259L6.32793 8.32015C5.84588 8.01115 5.53442 7.46571 5.49406 6.86054C4.78733 6.70351 4.70081 5.40352 5.49406 5.30993C5.51134 4.9755 5.61075 4.65214 5.78181 4.37333C5.95301 4.09439 6.1898 3.87012 6.46784 3.72349C6.33803 3.69684 6.20569 3.68659 6.07373 3.69315L6.0838 3.7016ZM7.04485 8.16626C7.42255 8.21246 7.8005 8.08235 8.08425 7.80859C8.3681 7.53471 8.53096 7.14304 8.53209 6.73125C8.53083 6.71662 8.53083 6.70186 8.53209 6.68724V5.71499C8.16573 5.65923 7.8245 5.48116 7.55589 5.20552C7.33727 5.41202 6.8618 5.69302 5.87036 5.72335V6.72866V6.72853C5.8725 7.07895 5.99159 7.41665 6.20555 7.67947C6.41951 7.94214 6.71408 8.11215 7.03477 8.15795L7.04485 8.16626ZM5.47625 5.72881C5.34417 5.77842 5.26835 5.92847 5.3009 6.0758C5.30128 6.21397 5.36763 6.34217 5.47625 6.4146V5.72881ZM8.90314 5.72881V6.41462H8.90326C9.01188 6.34218 9.07824 6.21399 9.07862 6.07582C9.11243 5.92836 9.03623 5.77734 8.90326 5.72882L8.90314 5.72881ZM6.16257 4.47572C5.97964 4.70764 5.87077 4.99751 5.85248 5.30186C7.09573 5.26059 7.35752 4.79784 7.36003 4.79511C7.3917 4.73184 7.45087 4.69015 7.5171 4.68455C7.58346 4.67908 7.64779 4.71024 7.68804 4.76764C7.90263 5.03742 8.19443 5.22167 8.51687 5.29094C8.48886 4.91238 8.32474 4.56087 8.05995 4.31201C7.79503 4.06327 7.45063 3.93713 7.10081 3.96064C6.73684 3.98852 6.39864 4.17425 6.16259 4.47575L6.16257 4.47572ZM6.29225 3.28589C6.58443 3.3094 6.86915 3.39755 7.12864 3.54474C7.4439 3.49239 7.73887 3.26935 8.06925 3.28315H8.06938C8.02409 3.20361 7.94184 3.15797 7.8558 3.16466C7.76244 3.17355 7.67666 3.10849 7.65244 3.01051C7.6151 2.85839 7.51745 2.73212 7.38587 2.66556C7.25429 2.599 7.10228 2.599 6.97071 2.66556C6.83913 2.73211 6.74149 2.85839 6.70415 3.01051C6.67437 3.10795 6.58443 3.16822 6.49057 3.15373C6.41071 3.15865 6.33918 3.20881 6.30247 3.28589H6.29225Z" fill="black"/>
</svg>
