<svg width="17" height="14" viewBox="0 0 17 14" fill="none" xmlns="http://www.w3.org/2000/svg">
<path d="M11.6674 13.0293C10.5176 13.0336 9.39857 12.6643 8.4838 11.9788C5.06559 14.5685 -0.0383335 12.0602 0.000217107 7.81159C0.00199678 6.56221 0.458829 5.35468 1.28802 4.40835C2.11707 3.46205 3.26346 2.83956 4.51922 2.65379L3.88745 2.03213C2.5687 0.718185 4.09992 -0.682489 5.29998 0.368094C6.50563 -0.671558 8.03125 0.715633 6.71251 2.03213L6.08347 2.65379C6.95496 2.77866 7.78046 3.11758 8.4837 3.63916C9.18763 3.11716 10.0141 2.77825 10.8865 2.65379L10.2547 2.03213C8.936 0.718185 10.4672 -0.682489 11.6673 0.368094C12.8729 -0.671558 14.3986 0.715633 13.0798 2.03213L12.448 2.65379C18.8734 3.78034 18.217 12.8337 11.6673 13.0293L11.6674 13.0293ZM8.81481 11.7155C11.9765 14.0066 16.5891 11.672 16.5533 7.81183C16.5699 3.79951 11.7667 1.54662 8.61365 4.07091C7.63618 4.84817 6.9988 5.96434 6.83261 7.1899C6.66628 8.4156 6.98375 9.65719 7.71969 10.6594C7.90588 10.5084 8.0759 10.3392 8.2273 10.1545C7.61988 9.27948 7.37814 8.20776 7.55224 7.16204C7.72638 6.11618 8.30314 5.17646 9.16257 4.53794C11.8552 2.49647 15.8802 4.47826 15.8472 7.82546C15.8942 11.0831 12.0178 13.092 9.32273 11.2243V11.2241C9.16434 11.3984 8.99486 11.5625 8.81513 11.7155L8.81481 11.7155ZM4.98008 3.02843C-1.26862 3.65278 -0.976339 12.4132 5.30015 12.6328C9.27016 12.6545 11.6042 8.12392 9.24808 4.98821C9.06285 5.1403 8.89366 5.31029 8.7432 5.49579C9.34954 6.37112 9.59034 7.44229 9.41567 8.4875C9.24112 9.5327 8.66435 10.4716 7.8052 11.1098C5.11815 13.1376 1.09004 11.1559 1.12333 7.81142C1.07638 4.56474 4.95526 2.54247 7.65625 4.41276C7.81245 4.23225 7.98111 4.06267 8.16113 3.90504C7.23872 3.25238 6.11353 2.93743 4.98014 3.01464L4.98008 3.02843ZM9.58722 10.89C12.0177 12.5459 15.483 10.7217 15.4413 7.81149C15.4744 4.89872 12.0093 3.07464 9.58722 4.73316C10.2487 5.62749 10.6052 6.70528 10.6052 7.81149C10.6052 8.91784 10.2487 9.99563 9.58722 10.89ZM5.30846 4.10333H5.30832C4.30842 4.10265 3.34918 4.49304 2.64181 5.18853C1.93444 5.88403 1.53706 6.82764 1.53706 7.81152C1.49571 10.7244 4.96074 12.546 7.38028 10.89C6.71878 9.99501 6.36258 8.9168 6.36258 7.81018C6.36258 6.70356 6.71878 5.62549 7.38028 4.7305C6.76588 4.3222 6.04127 4.10478 5.30012 4.10602L5.30846 4.10333ZM8.4838 5.8354C8.10513 6.42675 7.90432 7.11134 7.90432 7.81021C7.90432 8.50922 8.10515 9.19378 8.4838 9.78517C8.86233 9.19382 9.06315 8.50922 9.06315 7.81021C9.06315 7.11134 8.86232 6.42678 8.4838 5.8354ZM5.30008 2.59679H5.54842L6.42019 1.73897C7.15959 1.0331 6.74025 0.16453 5.89874 0.471238V0.471104C5.7298 0.547077 5.5773 0.653901 5.44903 0.786047C5.41028 0.824305 5.35771 0.845724 5.30282 0.845724C5.23437 0.844915 5.17016 0.812856 5.12896 0.758974C5.00027 0.631676 4.84626 0.531859 4.67651 0.465717C3.82405 0.194283 3.46536 1.07379 4.17998 1.74435L5.05175 2.60216H5.29173L5.30008 2.59679ZM11.6676 2.59679H11.9159L12.7877 1.73897C13.7891 0.699321 12.6194 -0.0825206 11.8138 0.780671C11.7318 0.857186 11.6032 0.857186 11.5212 0.780671C11.3928 0.648256 11.2391 0.542239 11.0688 0.468421C10.2411 0.167081 9.80795 1.03042 10.5474 1.73885L11.4191 2.59666C11.4992 2.59679 11.5848 2.59679 11.6675 2.59679L11.6676 2.59679Z" fill="black"/>
</svg>
