<svg width="17" height="14" viewBox="0 0 17 14" fill="none" xmlns="http://www.w3.org/2000/svg">
<path d="M16.7292 13.0294H0.206702C0.155048 13.0267 0.105994 13.0059 0.0690986 12.9708C0.0301537 12.9325 0.00842673 12.8809 0.00856316 12.8271C0.00856316 12.7632 -0.0107039 3.33754 0.00856316 3.28178C0.0361657 3.19887 0.116512 3.14277 0.206702 3.14343H4.99532C5.39733 -1.04916 11.5411 -1.04646 11.9402 3.14343H16.7292C16.8184 3.14395 16.8972 3.1998 16.9247 3.28178C16.955 3.33762 16.9247 12.7633 16.9247 12.8271C16.9247 12.8809 16.903 12.9325 16.864 12.9708C16.828 13.0055 16.78 13.0263 16.7292 13.0294ZM0.831821 12.6303H16.104L10.0928 8.33395L8.59205 9.39808H8.59191C8.51853 9.45128 8.41755 9.45128 8.34417 9.39808L6.84339 8.33395L0.831821 12.6303ZM10.4398 8.08657L14.1465 10.7469L16.523 12.4441L16.5229 3.73961L10.4398 8.08657ZM0.413442 3.73954V12.4336L2.78988 10.7469L6.49651 8.08661L0.413442 3.73954ZM8.17619 8.79424L8.46806 9.00176L16.1014 3.54794L11.9403 3.54781C11.5383 7.7404 5.39459 7.7377 4.99545 3.54781H0.834403L6.96701 7.92661L8.17619 8.79424ZM8.46806 0.371547C7.65352 0.372207 6.87259 0.685866 6.29771 1.24335C5.72268 1.8007 5.40089 2.55621 5.40309 3.34313C5.57103 7.27245 11.365 7.26975 11.5329 3.34313C11.5351 2.55621 11.2133 1.8007 10.6383 1.24335C10.0634 0.685873 9.28261 0.372223 8.46806 0.371547ZM8.46806 5.16028C8.41313 5.16054 8.36052 5.13942 8.32213 5.10179L6.8846 3.71303C5.47467 2.36164 6.9782 0.712149 8.46807 1.90936C9.29409 1.1697 10.6931 1.49433 10.6131 2.6861C10.5611 3.08519 10.3663 3.45416 10.0625 3.72898L8.62493 5.11775C8.58407 5.1584 8.52668 5.17979 8.46805 5.17623L8.46806 5.16028ZM7.42708 1.90938C6.6478 1.95994 6.46058 2.74476 7.17647 3.44705L8.46806 4.69468L9.75951 3.44705C10.3791 2.91505 10.3901 1.87481 9.43456 1.91202C9.11659 1.95743 8.82455 2.10779 8.6084 2.33763C8.52724 2.41406 8.39783 2.41406 8.31652 2.33763C8.08996 2.08747 7.77036 1.93355 7.42708 1.90938Z" fill="black"/>
</svg>
