<svg width="12" height="17" viewBox="0 0 12 17" fill="none" xmlns="http://www.w3.org/2000/svg">
<path d="M5.86328 16.9382C3.40655 16.9382 0.918033 16.4232 0.918033 15.4344C0.918033 14.5916 2.67704 14.2199 3.66184 14.0794C-2.58964 7.99274 -0.159159 0.220417 5.86315 0C11.8825 0.220309 14.3183 7.98715 8.06446 14.0794C9.04926 14.2199 10.8083 14.5916 10.8083 15.4344C10.8083 16.4232 8.31989 16.9382 5.86302 16.9382H5.86328ZM4.05163 14.4594C2.16368 14.6715 1.31318 15.1645 1.31318 15.4482C1.31318 15.8945 3.08536 16.5499 5.86338 16.5499C8.64144 16.5499 10.4136 15.9054 10.4136 15.4482C10.4136 15.1728 9.56309 14.6716 7.67514 14.4594H7.67501C7.13275 14.9449 6.56477 15.3982 5.97401 15.8172C5.90698 15.8637 5.81982 15.8637 5.75279 15.8172C5.16166 15.3937 4.59381 14.9359 4.05179 14.4456L4.05163 14.4594ZM4.24645 14.0876C4.76141 14.5509 5.3013 14.9832 5.86329 15.3821C10.7768 12.0138 11.5194 7.3372 11.2849 6.11441C11.2898 4.60616 10.7211 3.1576 9.70409 2.08812C8.68714 1.01871 7.30522 0.416134 5.86336 0.413265C0.167822 0.622504 -2.15996 8.09743 4.24652 14.0739L4.24645 14.0876ZM5.86329 10.656C4.70441 10.6545 3.59341 10.1723 2.77401 9.31528C1.95449 8.45811 1.49351 7.29616 1.49221 6.08407C1.73185 0.0250507 9.99487 0.0250507 10.2344 6.08407C10.2329 7.29619 9.77196 8.45811 8.95257 9.31528C8.13304 10.1723 7.02213 10.6545 5.86329 10.656ZM5.86329 1.92536C4.80895 1.92604 3.79802 2.36448 3.05245 3.14416C2.30702 3.92398 1.88786 4.98139 1.88719 6.08414C2.10579 11.5925 9.62083 11.5925 9.83926 6.08414C9.83848 4.98136 9.41943 3.92398 8.67386 3.14416C7.92829 2.36448 6.91747 1.92606 5.86316 1.92536H5.86329ZM4.68364 7.70904H4.68351C4.63124 7.70712 4.58198 7.68321 4.54657 7.64289L3.40379 6.4476C2.25578 5.2605 3.46442 3.79528 4.68613 4.82264H4.68626C4.83953 4.66765 5.03083 4.55982 5.23895 4.51131C5.4471 4.46266 5.664 4.47509 5.86587 4.54725C6.06775 4.47577 6.28453 4.46361 6.49252 4.51213C6.70054 4.56078 6.89185 4.66806 7.04549 4.82264C8.26471 3.79532 9.47597 5.26053 8.33318 6.4476L7.17982 7.64289C7.10587 7.7156 6.99049 7.7156 6.91653 7.64289L5.86326 6.56047L4.82303 7.64289C4.7854 7.67993 4.73522 7.69974 4.68348 7.69797L4.68364 7.70904ZM6.12657 6.26583L7.03508 7.21047L8.04353 6.16115C8.88356 5.26884 8.02772 4.37367 7.1746 5.2523C7.09737 5.33279 6.97246 5.33279 6.89537 5.2523C6.73544 5.06137 6.51815 4.93318 6.27928 4.88875C6.3978 5.10523 6.44693 5.35575 6.41936 5.60353C6.39192 5.85131 6.28922 6.08337 6.12654 6.26583H6.12657ZM3.84622 4.88878C3.25379 4.93006 3.1247 5.57732 3.67505 6.15842L4.67828 7.20775L5.68673 6.15842C6.47672 5.37629 5.73417 4.32133 4.81245 5.24684L4.81258 5.2467C4.73549 5.32734 4.61057 5.32734 4.53348 5.2467C4.3597 5.03856 4.11482 4.90995 3.8514 4.88879L3.84622 4.88878Z" fill="black"/>
</svg>
