<svg width="17" height="17" viewBox="0 0 17 17" fill="none" xmlns="http://www.w3.org/2000/svg">
<path d="M16.2387 16.938H3.43448C3.24875 16.938 3.07055 16.8645 2.93878 16.7333C2.80717 16.6022 2.73296 16.4243 2.73214 16.2384V14.2059H0.699597C0.514546 14.2059 0.337025 14.1326 0.205823 14.0019C0.074757 13.8713 0.00068225 13.6942 0 13.509V0.699614C0 0.514019 0.0736655 0.336066 0.204867 0.204865C0.336069 0.0736647 0.514011 0 0.699621 0H13.5091C13.6943 0.000683327 13.8714 0.0747562 14.0021 0.20582C14.1328 0.337021 14.206 0.514551 14.206 0.699589V2.73211H16.2386C16.4244 2.73293 16.6024 2.80714 16.7335 2.93875C16.8647 3.0705 16.9382 3.24871 16.9382 3.43444V16.2386C16.9382 16.4242 16.8645 16.6021 16.7333 16.7333C16.6021 16.8645 16.4242 16.9382 16.2386 16.9382L16.2387 16.938ZM3.14549 14.2059V16.2384C3.14535 16.314 3.17624 16.3861 3.23091 16.4382C3.28557 16.4903 3.35924 16.5176 3.43468 16.5139H16.2389C16.3121 16.5139 16.3822 16.4848 16.4337 16.4332C16.4854 16.3816 16.5145 16.3115 16.5145 16.2384V3.43428C16.5182 3.35884 16.4908 3.28517 16.4387 3.23051C16.3867 3.17584 16.3145 3.14495 16.2389 3.14509H14.2064V3.8309H15.41C15.5239 3.8309 15.6332 3.87614 15.7138 3.95677C15.7943 4.03727 15.8396 4.14661 15.8396 4.26059V15.4095C15.8396 15.6467 15.6473 15.839 15.41 15.839H4.26102C4.02376 15.839 3.83134 15.6467 3.83134 15.4095V14.2059L3.14549 14.2059ZM4.24717 14.2059V15.4095L15.4126 15.426L15.4292 4.26069L15.4126 4.24415H14.2063V13.509C14.2056 13.6936 14.1319 13.8705 14.0014 14.001C13.8709 14.1315 13.694 14.2052 13.5094 14.2059L4.24717 14.2059ZM2.94172 13.7927H13.5096C13.5827 13.7927 13.6528 13.7637 13.7044 13.7121C13.756 13.6604 13.7851 13.5903 13.7851 13.5173V0.699565C13.7851 0.626449 13.756 0.556476 13.7044 0.504814C13.6528 0.453153 13.5827 0.42418 13.5096 0.42418H0.700094C0.54798 0.42418 0.424706 0.547453 0.424706 0.699565V13.5089C0.424706 13.5821 0.453679 13.6522 0.505341 13.7037C0.557003 13.7553 0.626977 13.7845 0.700094 13.7845L2.94172 13.7927ZM8.12228 13.1069H1.52859C1.2912 13.1069 1.09891 12.9146 1.09891 12.6772V1.52834C1.09891 1.29094 1.29121 1.09866 1.52859 1.09866H12.6776C12.7916 1.09866 12.9009 1.1439 12.9814 1.22453C13.0621 1.30503 13.1073 1.41437 13.1073 1.52835V12.6772C13.1073 12.9146 12.915 13.1069 12.6776 13.1069L8.12228 13.1069ZM11.7029 12.6937H12.6889L12.6943 1.52841L12.6777 1.51187H1.52872L1.51218 12.6772H2.5175L2.51737 11.0468C2.51764 10.8166 2.5939 10.593 2.7344 10.4107C2.87489 10.2284 3.07156 10.0976 3.29405 10.0387L5.1835 9.6146L5.80043 9.31995C5.80043 9.18506 5.78389 9.06384 5.77843 8.96189C5.25061 8.57022 4.92302 7.96533 4.88324 7.30933C4.67646 7.27489 4.48869 7.16829 4.35312 7.00839C4.2174 6.84862 4.14278 6.64596 4.14238 6.43628V6.1609C4.14388 5.96984 4.22547 5.78822 4.36747 5.66041C4.50947 5.53249 4.69862 5.4703 4.88885 5.48889V5.21351C4.70571 5.05853 4.60403 4.82795 4.61332 4.58826C4.63533 3.8005 5.02922 3.27447 5.715 3.10377C6.05613 2.68708 6.56617 2.4456 7.10452 2.4456C7.643 2.4456 8.15291 2.68709 8.49403 3.10377C9.18804 3.27447 9.58192 3.79777 9.59571 4.58826C9.602 4.82497 9.50073 5.05183 9.32032 5.20518V5.48057C9.50947 5.46362 9.69724 5.52662 9.83789 5.65427C9.97866 5.78191 10.0596 5.96259 10.0612 6.15255V6.42807C10.0607 6.63799 9.98562 6.84109 9.8495 7.00098C9.71325 7.16088 9.52478 7.26721 9.31759 7.3011C9.27851 7.95724 8.95079 8.56241 8.42241 8.95353C8.42241 9.05822 8.42241 9.17657 8.40041 9.31159L9.02007 9.61458L10.9012 10.0359C11.126 10.0933 11.3253 10.2237 11.4678 10.4067C11.6103 10.5897 11.6881 10.8148 11.6889 11.0467L11.7029 12.6937ZM8.67318 12.6937H11.2786V11.0413C11.278 10.9026 11.2319 10.7678 11.1473 10.658C11.0627 10.548 10.9444 10.4688 10.8104 10.4326L9.26539 10.0856L9.74181 11.5591C9.76695 11.6376 9.7444 11.7234 9.684 11.7795L8.67318 12.6937ZM7.84689 12.6937H8.04246L9.29556 11.5646L8.77499 9.9589L8.3591 9.76059C8.3591 9.85421 8.34256 9.95343 8.33149 10.0525H8.33163C8.48702 10.0667 8.60633 10.1967 8.60701 10.3528V11.3581V11.3579C8.60305 11.4717 8.538 11.5743 8.43686 11.6264C8.33573 11.6783 8.21436 11.6716 8.11952 11.6086C8.04968 11.9729 7.96043 12.3333 7.85233 12.6883L7.84689 12.6937ZM6.78374 12.6937H7.41172C7.54347 12.294 7.64652 11.8854 7.72018 11.471L7.42826 11.3608C7.30977 11.4463 7.06747 11.4159 6.92969 11.4214C6.85397 11.4212 6.77963 11.4003 6.71498 11.3608L6.47267 11.4517H6.47253C6.55235 11.8691 6.65813 12.2813 6.78933 12.6856L6.78374 12.6937ZM6.15029 12.6937H6.35133C6.23776 12.3324 6.14578 11.9645 6.07595 11.5921L5.94379 11.6417C5.85222 11.6754 5.75013 11.663 5.66936 11.6085C5.58858 11.554 5.53897 11.4638 5.5361 11.3663V10.3528C5.53679 10.2705 5.57095 10.1919 5.63068 10.1353C5.6904 10.0786 5.77063 10.0488 5.8529 10.0525C5.8529 9.95344 5.83363 9.85421 5.82529 9.7606L5.4094 9.9589L4.88897 11.5646L6.15029 12.6937ZM2.92517 12.6937H5.52791L4.52531 11.7738C4.46272 11.7193 4.4388 11.6325 4.46477 11.5535L4.94406 10.08L3.39343 10.4297V10.4299C3.26031 10.4657 3.14264 10.5445 3.059 10.6541C2.97536 10.7637 2.93025 10.8979 2.93066 11.0358L2.92517 12.6937ZM5.95485 10.5289L5.95472 11.1955L6.50549 10.9861V10.7107L5.95485 10.5289ZM7.64313 10.9862L8.1939 11.1956V10.5153L7.64313 10.7246V10.9862ZM6.94079 10.7108V10.9862H7.21618V10.7108H6.93533H6.94079ZM6.30186 10.1986L6.72594 10.3584C6.84156 10.2702 7.08949 10.3033 7.22723 10.2978V10.2977C7.30254 10.2982 7.37661 10.3182 7.44208 10.3555L7.9185 10.1792C7.95704 9.81839 7.97904 9.52919 8.00118 9.21253C7.42991 9.45908 6.78223 9.45908 6.21096 9.21253C6.21096 9.28141 6.21096 9.35302 6.22749 9.4301C6.2439 9.68075 6.26604 9.92034 6.29624 10.1984L6.30186 10.1986ZM6.14483 8.70864C7.30706 9.46604 8.95405 8.56815 8.91826 7.17727V5.37874H8.86865L7.75042 5.39801H7.75056C7.50606 5.40293 7.27141 5.30261 7.10603 5.12249C6.9397 5.30439 6.70245 5.40498 6.45603 5.39801L5.35436 5.37874H5.30748V7.17727L5.30762 7.17713C5.30516 7.79608 5.61881 8.37351 6.13937 8.7085L6.14483 8.70864ZM4.81174 5.90203C4.66988 5.90354 4.55563 6.01902 4.55563 6.16088V6.43627C4.55194 6.6455 4.68833 6.83137 4.88896 6.89067V5.90202L4.81174 5.90203ZM9.32579 5.90203V6.89083V6.89069C9.52068 6.82947 9.65339 6.64893 9.65352 6.44461V6.16909C9.65257 6.0875 9.61539 6.01056 9.55212 5.9589C9.48884 5.90737 9.40602 5.88645 9.32579 5.90203ZM7.09207 4.61298C7.21329 4.61298 7.30145 4.75621 7.36746 4.83056H7.36759C7.45452 4.93893 7.58667 5.00098 7.72551 4.99866L8.82719 4.97939C8.88623 4.98089 8.94418 4.96353 8.99256 4.92978C9.10312 4.86076 9.16818 4.73776 9.16326 4.60752C9.14399 3.98786 8.85753 3.61326 8.31223 3.50585C8.26685 3.49683 8.22599 3.4725 8.19661 3.43697C8.19661 3.43697 7.69258 2.84205 7.09493 2.86966C6.31279 2.86966 6.05105 3.45352 5.85002 3.50586C5.29925 3.61875 5.02372 3.99336 5.00172 4.60752C4.98901 4.79886 5.13278 4.96463 5.32398 4.9794L6.45039 4.99867C6.58843 4.99962 6.71977 4.93908 6.80845 4.8333C6.891 4.74241 6.97645 4.59371 7.09207 4.61298Z" fill="black"/>
</svg>
