<svg width="17" height="17" viewBox="0 0 17 17" fill="none" xmlns="http://www.w3.org/2000/svg">
<path d="M8.60249 16.9382H6.9514C6.83806 16.9367 6.74643 16.8476 6.74493 16.7372V13.7292H6.33225C6.17835 13.7284 6.03114 13.6686 5.92243 13.5626C5.8136 13.4567 5.75228 13.3133 5.75147 13.1634V12.4262H2.76567C2.6044 12.4262 2.44968 12.3637 2.33565 12.2526C2.22162 12.1415 2.15744 11.9908 2.15744 11.8337V8.25466H1.33183H1.33196C1.35422 8.3696 1.32486 8.4884 1.25112 8.58072C1.17738 8.67305 1.0665 8.73012 0.946603 8.73731H0.396288C0.17698 8.73584 0 8.56223 0 8.34858V6.43968C0.00300422 6.22709 0.180801 6.05627 0.399015 6.05627H0.94933C1.07114 6.06053 1.18503 6.11627 1.26122 6.20899C1.33742 6.30172 1.36815 6.42225 1.34562 6.53892H2.17123V5.87403C2.17123 5.71692 2.23527 5.56619 2.34944 5.4551C2.46346 5.34402 2.61818 5.28149 2.77946 5.28149H3.57749C1.05391 3.80429 2.08589 0.0296292 5.05805 0C5.64182 0.000665193 6.21195 0.171615 6.69508 0.490755C7.1782 0.810035 7.55212 1.26275 7.76869 1.7909C7.98581 1.26261 8.36025 0.80966 8.8438 0.490482C9.32734 0.171335 9.898 0.000510848 10.482 0C13.4542 0.0295335 14.4834 3.80684 11.9764 5.28149H12.802C12.9633 5.28149 13.118 5.34402 13.232 5.4551C13.346 5.56618 13.4101 5.71691 13.4101 5.87403V7.19304H14.4448L16.6188 5.82039H16.6189C16.6828 5.78195 16.7628 5.77968 16.8289 5.81454C16.8949 5.84952 16.9365 5.91618 16.9382 5.98934V11.7183C16.9365 11.7915 16.8949 11.8582 16.8289 11.8931C16.7628 11.928 16.6828 11.9257 16.6189 11.8873L14.4449 10.5146H13.3992V11.8337C13.3992 11.9908 13.3351 12.1415 13.221 12.2526C13.1069 12.3637 12.9522 12.4262 12.7909 12.4262H9.80515V13.1634V13.1633C9.80447 13.3132 9.74302 13.4567 9.63432 13.5626C9.52548 13.6686 9.37828 13.7283 9.2245 13.7291H8.80895V16.7371C8.80745 16.8475 8.71582 16.9367 8.60248 16.9381L8.60249 16.9382ZM7.16045 16.536H8.39602L8.39616 13.7291H7.16045L7.16045 16.536ZM8.60249 13.3189H9.2245C9.31722 13.3189 9.39233 13.2457 9.39233 13.1554V12.4262H6.16427V13.1635V13.1633C6.16578 13.2531 6.24006 13.3255 6.33224 13.327L8.60249 13.3189ZM9.59866 12.0159H12.7909C12.8988 12.0159 12.9863 11.9308 12.9863 11.8256V5.87383C12.9863 5.76873 12.8988 5.68346 12.7909 5.68346H2.76556C2.65768 5.68346 2.57015 5.76873 2.57015 5.87383V11.8337C2.57015 11.9388 2.65768 12.0241 2.76556 12.0241L9.59866 12.0159ZM14.7008 10.1956L16.5143 11.3404V6.35926L14.7008 7.50401V10.1956ZM13.3992 10.1045H14.288V7.59508H13.3992V10.1045ZM0.415655 8.33504H0.946708C0.921991 7.93822 0.946708 6.83642 0.930184 6.43959L0.399131 6.45303L0.415655 8.33504ZM1.343 7.85253H2.13557V6.93552H1.343V7.85253ZM10.4822 0.401976C9.81852 0.402641 9.18203 0.659528 8.71226 1.11624C8.24238 1.57294 7.97733 2.19236 7.97513 2.83903C8.11277 6.0776 12.8487 6.07495 12.9864 2.83903H12.9865C12.985 2.19264 12.7207 1.57321 12.2513 1.11638C11.7818 0.659545 11.1458 0.402657 10.4823 0.401976H10.4822ZM6.55249 5.28126H8.98525H8.98511C8.4356 4.95945 8.00858 4.47201 7.7688 3.89267C7.53106 4.4731 7.10351 4.9612 6.55249 5.28126ZM5.05816 0.401976C4.39423 0.402641 3.75761 0.659927 3.28812 1.1173C2.81862 1.57468 2.55469 2.19488 2.55385 2.84169C2.6915 6.08026 7.4274 6.0776 7.56234 2.84169H7.56247C7.56165 2.19488 7.29756 1.57468 6.82807 1.1173C6.35858 0.65992 5.72209 0.402657 5.05816 0.401976ZM10.9693 10.9864C10.7393 10.9864 10.5267 10.8668 10.4116 10.6727C10.2966 10.4786 10.2966 10.2394 10.4116 10.0453C10.5267 9.85124 10.7393 9.73164 10.9693 9.73164C11.1994 9.73164 11.412 9.85124 11.527 10.0453C11.6421 10.2394 11.6421 10.4786 11.527 10.6727C11.412 10.8668 11.1994 10.9864 10.9693 10.9864ZM10.9693 10.1338C10.8416 10.1338 10.7381 10.2346 10.7381 10.359C10.7381 10.4834 10.8416 10.5843 10.9693 10.5843C11.097 10.5843 11.2005 10.4834 11.2005 10.359C11.2005 10.2346 11.097 10.1338 10.9693 10.1338ZM8.99343 10.9864H4.15274C4.03872 10.9864 3.94627 10.8964 3.94627 10.7853V8.22769C3.94559 8.17408 3.96703 8.12259 4.00594 8.08468C4.04486 8.04676 4.09771 8.02588 4.15274 8.02654H8.99343C9.10745 8.02654 9.19976 8.11661 9.19976 8.22769V10.7853C9.19826 10.8957 9.10677 10.985 8.99343 10.9864ZM4.359 10.5842H8.78682V8.43946H4.359V10.5842ZM10.9637 9.48234C10.7336 9.48234 10.521 9.36274 10.406 9.16865C10.291 8.97455 10.291 8.73548 10.406 8.54139C10.521 8.3473 10.7336 8.2277 10.9637 8.2277C11.1938 8.22677 11.4068 8.34544 11.5227 8.539C11.6387 8.7327 11.6396 8.97176 11.5255 9.16639C11.4113 9.36102 11.1992 9.48141 10.9691 9.48234L10.9637 9.48234ZM10.9637 8.62987C10.836 8.62987 10.7325 8.73071 10.7325 8.8551C10.7325 8.97935 10.836 9.08019 10.9637 9.08019C11.0914 9.08165 11.1961 8.98214 11.1976 8.85776C11.1991 8.73337 11.0968 8.63134 10.9691 8.62987L10.9637 8.62987ZM10.9637 7.97575C10.7336 7.97575 10.521 7.85615 10.406 7.66205C10.291 7.46796 10.291 7.22875 10.406 7.03466C10.521 6.84057 10.7336 6.72097 10.9637 6.72097C11.1938 6.72004 11.4068 6.83871 11.5227 7.0324C11.6387 7.22597 11.6396 7.46516 11.5255 7.65966C11.4113 7.85428 11.1992 7.97468 10.9691 7.97574L10.9637 7.97575ZM10.9637 7.12328V7.12314C10.836 7.12314 10.7325 7.22398 10.7325 7.34837C10.7325 7.47276 10.836 7.5736 10.9637 7.5736C11.0765 7.5579 11.1607 7.46438 11.1621 7.35329C11.1635 7.24234 11.0815 7.14682 10.9691 7.12846L10.9637 7.12328ZM8.98784 7.12328L4.15274 7.12314C4.03872 7.12314 3.94627 7.03308 3.94627 6.92213C3.94627 6.81105 4.03872 6.72099 4.15274 6.72099H8.99343C9.10895 6.72099 9.2025 6.81225 9.2025 6.92479C9.2025 7.03734 9.10895 7.12847 8.99343 7.12847L8.98784 7.12328ZM10.4766 4.20105V4.20092C10.1069 4.20025 9.75255 4.05658 9.49145 3.80154C9.23034 3.5465 9.08383 3.20102 9.08411 2.84077C9.08438 2.48065 9.23132 2.13529 9.4927 1.88054C9.75421 1.62592 10.1087 1.48263 10.4784 1.48249C10.8481 1.48222 11.2028 1.62497 11.4646 1.87932C11.7263 2.13368 11.8738 2.47878 11.8745 2.83903C11.8753 3.19942 11.729 3.54543 11.4679 3.80086C11.2068 4.05628 10.8521 4.20024 10.4821 4.20089L10.4766 4.20105ZM10.4766 1.88466V1.88453C10.1256 1.88453 9.80132 2.06705 9.62568 2.36319C9.45021 2.65933 9.45021 3.0241 9.62568 3.32025C9.80129 3.61638 10.1256 3.79878 10.4766 3.79878C10.8275 3.79971 11.1524 3.61825 11.3288 3.32253C11.5051 3.02693 11.5062 2.66214 11.3316 2.36548C11.1569 2.06881 10.8331 1.88562 10.482 1.88456L10.4766 1.88466ZM5.05802 4.20092C4.68809 4.20092 4.33344 4.05777 4.07181 3.80314C3.81017 3.54838 3.66311 3.20289 3.66283 2.8425C3.66256 2.48225 3.80922 2.13651 4.07045 1.88146C4.33182 1.62643 4.68631 1.4829 5.05624 1.48249C5.42603 1.48196 5.78093 1.62457 6.04301 1.87894C6.30493 2.1333 6.45255 2.47864 6.45321 2.83903C6.45321 3.19969 6.30628 3.5457 6.04476 3.80099C5.78312 4.05641 5.42834 4.20023 5.05799 4.20088L5.05802 4.20092ZM5.05802 1.88453C4.70708 1.88453 4.38277 2.06705 4.20714 2.36319C4.03166 2.65932 4.03166 3.02409 4.20714 3.32025C4.38275 3.61638 4.70708 3.79878 5.05802 3.79878C5.40897 3.79878 5.73328 3.61639 5.90891 3.32025C6.08438 3.02412 6.08438 2.65935 5.90891 2.36319C5.7333 2.06706 5.40897 1.88453 5.05802 1.88453Z" fill="black"/>
</svg>
