<svg width="16" height="15" viewBox="0 0 16 15" fill="none" xmlns="http://www.w3.org/2000/svg">
<path d="M11.6943 10.2987C11.6943 10.5103 11.7784 10.713 11.9279 10.8626C12.0774 11.0121 12.2802 11.0962 12.4917 11.0962C12.7032 11.0962 12.906 11.0121 13.0556 10.8626C13.205 10.713 13.289 10.5103 13.289 10.2987C13.289 10.0873 13.205 9.88446 13.0556 9.73491C12.906 9.58535 12.7031 9.50146 12.4917 9.50146C12.2803 9.5016 12.0776 9.58574 11.9282 9.73518C11.7786 9.88474 11.6946 10.0873 11.6943 10.2987ZM12.7575 10.2987C12.7575 10.4062 12.6927 10.5032 12.5934 10.5443C12.4941 10.5855 12.3798 10.5628 12.3038 10.4867C12.2277 10.4107 12.205 10.2964 12.2462 10.1971C12.2873 10.0977 12.3843 10.033 12.4917 10.033C12.6384 10.0331 12.7574 10.1521 12.7575 10.2987Z" fill="black"/>
<path d="M4.78525 10.0333C4.78525 9.82183 4.70124 9.61896 4.55167 9.46942C4.40211 9.31986 4.19924 9.23584 3.98784 9.23584C3.77644 9.23584 3.57355 9.31986 3.42401 9.46942C3.27445 9.61899 3.19043 9.82185 3.19043 10.0333C3.19043 10.2446 3.27445 10.4475 3.42401 10.5971C3.57358 10.7466 3.77644 10.8307 3.98784 10.8307C4.19926 10.8304 4.40199 10.7463 4.5514 10.5968C4.70084 10.4474 4.78499 10.2446 4.78525 10.0333ZM3.72208 10.0333C3.72208 9.92576 3.78684 9.82882 3.88616 9.78767C3.98547 9.74652 4.09982 9.76934 4.17579 9.84531C4.25176 9.92127 4.27458 10.0356 4.23343 10.1349C4.19227 10.2343 4.09534 10.299 3.98784 10.299C3.84118 10.2989 3.72221 10.1799 3.72208 10.0333Z" fill="black"/>
<path d="M13.5557 8.43819C13.5557 8.72005 13.6676 8.99054 13.8671 9.18999C14.0663 9.38928 14.3369 9.50139 14.6189 9.50139C14.9007 9.50139 15.1712 9.38928 15.3707 9.18999C15.5699 8.99057 15.6821 8.72006 15.6821 8.43819C15.6821 8.15621 15.5699 7.88571 15.3707 7.6864C15.1712 7.48698 14.9007 7.375 14.6189 7.375C14.3369 7.37526 14.0666 7.48737 13.8673 7.68666C13.668 7.88595 13.5559 8.15619 13.5557 8.43819ZM14.6188 7.90654C14.7598 7.90654 14.895 7.9626 14.9947 8.06231C15.0943 8.16189 15.1504 8.29721 15.1504 8.43821C15.1504 8.57921 15.0943 8.71439 14.9947 8.8141C14.895 8.91368 14.7598 8.96974 14.6188 8.96974C14.4778 8.96974 14.3425 8.91368 14.2429 8.8141C14.1432 8.71439 14.0872 8.57921 14.0872 8.43821C14.0873 8.29721 14.1434 8.16216 14.2431 8.06244C14.3428 7.96273 14.4778 7.90668 14.6188 7.90654Z" fill="black"/>
<path d="M15.15 13.2225C15.15 12.7477 14.8968 12.309 14.4856 12.0716C14.0743 11.8342 13.5677 11.8342 13.1566 12.0716C12.7454 12.309 12.4922 12.7477 12.4922 13.2225H11.9605C11.6756 13.2225 11.4124 13.3744 11.2699 13.6212C11.1275 13.8679 11.1275 14.1719 11.2699 14.4185C11.4124 14.6653 11.6756 14.8172 11.9605 14.8172H15.15C15.4349 14.8172 15.6982 14.6653 15.8406 14.4185C15.9831 14.1719 15.9831 13.8678 15.8406 13.6212C15.6982 13.3745 15.4349 13.2225 15.15 13.2225Z" fill="black"/>
<path d="M4.51861 12.4256H3.45544C3.45544 11.9508 3.20208 11.5121 2.79083 11.2747C2.37971 11.0373 1.87311 11.0373 1.4619 11.2747C1.05078 11.5121 0.797417 11.9508 0.797417 12.4256C0.512531 12.4256 0.249288 12.5776 0.106836 12.8243C-0.0356154 13.0711 -0.0356087 13.375 0.106836 13.6218C0.249281 13.8684 0.512548 14.0205 0.797417 14.0205H4.51858C4.80333 14.0205 5.06657 13.8684 5.20903 13.6218C5.35147 13.375 5.35147 13.0711 5.20903 12.8243C5.06658 12.5776 4.80331 12.4256 4.51858 12.4256H4.51861Z" fill="black"/>
<path d="M7.97357 10.1887L8.66085 9.50146H7.28613L7.97357 10.1887Z" fill="black"/>
<path d="M3.85961 2.89851C3.93927 3.68644 4.20056 4.44522 4.62261 5.11534L7.05719 8.97021H7.59674L6.39466 5.60432L6.89532 5.4256L7.97392 8.44565L9.05252 5.4256L9.55318 5.60432L8.351 8.97021H8.89055L11.3251 5.11534C11.7473 4.44519 12.0084 3.68644 12.0881 2.89851C12.17 2.09344 11.8849 1.29431 11.3116 0.723081C11.0834 0.494514 10.7974 0.332023 10.4841 0.253015C10.1708 0.174145 9.842 0.181529 9.53272 0.274645L8.48103 0.590264C8.45333 0.611762 8.42431 0.631547 8.39411 0.649351L9.25814 1.94546L8.81589 2.24037L7.97152 0.973671L7.13045 2.20897L6.69097 1.90997L7.55051 0.647491C7.52136 0.630081 7.4934 0.610958 7.46676 0.590118L6.41507 0.2745H6.41494C6.10565 0.181385 5.77686 0.173997 5.46359 0.25287C5.15035 0.331871 4.86428 0.494362 4.6361 0.723072C4.06288 1.2943 3.77761 2.09343 3.85952 2.8985L3.85961 2.89851ZM6.32413 2.80184C6.54109 2.5854 6.83245 2.45957 7.13883 2.44995C7.44521 2.44032 7.74382 2.54768 7.97396 2.75013C8.29023 2.47131 8.72916 2.37805 9.13156 2.50402C9.53397 2.63011 9.84115 2.95734 9.94177 3.36673C10.0424 3.77626 9.92186 4.20847 9.62365 4.50668L8.16176 5.96857H8.16189C8.11203 6.01843 8.04437 6.04652 7.97394 6.04652C7.90338 6.04652 7.83585 6.01843 7.786 5.96857L6.3241 4.50668C6.0983 4.28049 5.97157 3.97398 5.97157 3.65427C5.97157 3.3347 6.09835 3.02816 6.32413 2.80184Z" fill="black"/>
<path d="M13.7752 2.41138C13.6218 1.8126 13.303 1.26893 12.8554 0.84252C12.4079 0.416111 11.8494 0.124253 11.2438 0C11.4051 0.097204 11.5539 0.213795 11.6871 0.34686C12.3732 1.03072 12.7147 1.98733 12.6167 2.95107C12.5286 3.82117 12.2403 4.65893 11.7743 5.39884L9.51879 8.96976H9.88189L9.24391 12.1593H6.70183L6.03023 8.96976H6.428L4.17252 5.39884C3.7064 4.65893 3.41795 3.82114 3.33 2.95107C3.23187 1.98733 3.57334 1.03072 4.25956 0.34686C4.39264 0.213782 4.54155 0.0971905 4.70272 0C3.69901 0.205885 2.84804 0.866797 2.40003 1.78833C1.95211 2.70985 1.95819 3.78741 2.41638 4.70381C3.14772 6.16121 4.15933 7.45995 5.39331 8.52592L6.15854 12.1596H6.11278C5.96598 12.1596 5.84702 12.2786 5.84702 12.4254C5.84702 12.5722 5.96598 12.6912 6.11278 12.6912H9.83394C9.98074 12.6912 10.0998 12.5722 10.0998 12.4254C10.0998 12.2786 9.98074 12.1596 9.83394 12.1596H9.78606L10.5043 8.56813C11.7603 7.49466 12.7892 6.18089 13.5303 4.70414C13.8852 3.99442 13.9722 3.18053 13.7752 2.41172L13.7752 2.41138Z" fill="black"/>
<path d="M7.97414 13.8359C7.55131 14.1393 7.00605 14.215 6.5166 14.0381L6.61394 14.8168H9.33419L9.43153 14.0381C8.94208 14.2149 8.39697 14.1392 7.97414 13.8359Z" fill="black"/>
<path d="M6.43698 13.3985C6.63667 13.5459 6.88237 13.617 7.12993 13.5991C7.37749 13.5811 7.61039 13.4752 7.78661 13.3005C7.83646 13.2506 7.90399 13.2227 7.97455 13.2227C8.04498 13.2227 8.11264 13.2506 8.1625 13.3005C8.33871 13.4752 8.57162 13.5811 8.81904 13.5991C9.0666 13.617 9.31231 13.5459 9.51199 13.3985L9.53402 13.2227H6.41504L6.43698 13.3985Z" fill="black"/>
</svg>
