<svg width="8" height="15" viewBox="0 0 8 15" fill="none" xmlns="http://www.w3.org/2000/svg">
<path d="M6.98979 15H0.818717C0.601634 15 0.39341 14.9245 0.239743 14.79C0.0862254 14.6555 8.13978e-07 14.4731 8.13978e-07 14.2829V7.23179C-0.000413739 6.72794 0.157526 6.23392 0.456684 5.80353C0.755845 5.37327 1.18462 5.02363 1.69589 4.79271C1.81099 4.73982 1.9073 4.66019 1.97405 4.56252C2.04092 4.46485 2.07561 4.35302 2.07464 4.23912V1.28544C1.87884 1.26668 1.73085 1.12145 1.73209 0.948875V0.336713C1.73209 0.150815 1.90413 0.000143951 2.11636 0.000143951H4.15482H4.15468C4.25859 -0.00251867 4.35918 0.0318519 4.43366 0.095271C4.50815 0.158569 4.55015 0.245709 4.55015 0.336722V0.948884C4.55112 1.1222 4.40175 1.26792 4.20484 1.28545V4.23671C4.20318 4.34975 4.23703 4.46097 4.30295 4.55828C4.36872 4.65547 4.46393 4.73498 4.57806 4.78787C5.08947 5.01928 5.51867 5.36893 5.81907 5.79894C6.11961 6.22883 6.27975 6.72273 6.28226 7.22695V9.00497H7.25962C7.3482 9.00533 7.4271 9.05399 7.45736 9.12685L7.88613 10.2195C8.30663 11.2097 7.5158 12.4439 6.28211 12.5341L6.28225 14.061L7.13442 14.6756C7.20102 14.727 7.22396 14.8096 7.19149 14.8822C7.15916 14.9547 7.07846 15.0018 6.98961 15L6.98979 15ZM5.71436 14.6341H6.40777L6.06246 14.3902L5.71436 14.6341ZM2.49239 2.57087V4.2367C2.49239 4.41763 2.43615 4.59517 2.32961 4.75021C2.22321 4.90537 2.07066 5.03221 1.88814 5.11718C1.44443 5.31675 1.07233 5.61981 0.812824 5.99294C0.55332 6.36619 0.416665 6.79487 0.417903 7.23177V14.2829C0.419423 14.4764 0.598094 14.6328 0.818908 14.6341H5.05712L5.85071 14.0633V12.5366C5.61483 12.5156 5.38585 12.4544 5.17679 12.3561V13.2097C5.17541 13.3103 5.08269 13.3914 4.968 13.3927H1.30321C1.18797 13.3927 1.09442 13.3108 1.09442 13.2097V7.57796C1.09442 7.47703 1.18797 7.39509 1.30321 7.39509H4.968C5.08269 7.39642 5.17541 7.47751 5.17679 7.57796V9.0096H5.85347V7.2317C5.85209 6.79369 5.71349 6.36442 5.45275 5.99067C5.19214 5.61696 4.81919 5.31304 4.37478 5.11215C4.19252 5.02888 4.03997 4.90301 3.9344 4.74847C3.82869 4.59392 3.77397 4.41674 3.77619 4.23663V2.5708L2.49239 2.57087ZM1.51227 13.0267H4.75925V12.0926C4.47957 11.8541 4.28336 11.5508 4.19369 11.2182C4.10387 10.8855 4.12432 10.5374 4.25241 10.2145L4.67567 9.13155V9.13167C4.69128 9.09355 4.72058 9.06099 4.75927 9.03897V7.76092H1.51229L1.51227 13.0267ZM6.05399 12.1804C7.04529 12.2145 7.77213 11.2755 7.52146 10.4731H4.60322C4.34979 11.273 5.07387 12.2049 6.05399 12.1804ZM4.73962 10.1023H7.3851L7.10666 9.37062H5.02371L4.73962 10.1023ZM2.49239 2.20508H3.77609L3.77623 1.28805H2.49238L2.49239 2.20508ZM2.14997 0.914794H4.12153V0.366053H2.14997V0.914794Z" fill="black"/>
</svg>
