<svg width="12" height="17" viewBox="0 0 12 17" fill="none" xmlns="http://www.w3.org/2000/svg">
<path d="M5.86568 16.9382H0.169079C0.0758505 16.9262 0.00419346 16.8385 0 16.7316V12.5997C0.00563188 12.2845 0.100655 11.9799 0.270934 11.7316C0.441212 11.4832 0.677396 11.3045 0.94425 11.2224L3.40256 10.6192L4.26715 10.1509C4.25025 9.90017 4.23815 9.67983 4.23096 9.5035H4.23084C3.52792 8.92706 3.09894 8.01137 3.06934 7.02433C2.80583 6.99686 2.56078 6.85825 2.38212 6.6356C2.20358 6.41306 2.10412 6.12232 2.1034 5.82051V5.1842C2.1034 5.00664 2.16523 4.83646 2.27536 4.71085C2.38536 4.58537 2.53455 4.51484 2.6902 4.51484H3.06202V3.96398L3.06214 3.96384C2.8238 3.75608 2.68805 3.42992 2.69749 3.08794C2.72649 1.95862 3.22151 1.20925 4.09566 0.975111C5.1051 -0.316753 6.60705 -0.33054 7.61639 0.966909C8.48815 1.20106 8.98557 1.94751 9.01695 3.07701V3.07687C9.02426 3.41217 8.89389 3.73218 8.66442 3.94186V4.51487H9.03637C9.19191 4.51487 9.34122 4.5854 9.45121 4.71088C9.56133 4.8365 9.62316 5.00668 9.62316 5.18423V5.82887C9.62244 6.13068 9.52299 6.42129 9.34432 6.64395C9.16577 6.86662 8.92071 7.00522 8.65723 7.03255C8.62763 8.01959 8.19865 8.93528 7.49561 9.51172C7.49561 9.68805 7.47632 9.90839 7.45942 10.1564L8.324 10.6274L10.7775 11.2499V11.25C11.0492 11.3304 11.2896 11.5115 11.4615 11.7648C11.6332 12.0181 11.7264 12.3292 11.7264 12.6493V16.7316C11.7264 16.8457 11.6454 16.9381 11.5454 16.9381L5.86568 16.9382ZM10.007 16.525H11.369V12.6408C11.3687 12.4132 11.3025 12.192 11.1806 12.0116C11.0588 11.8313 10.8882 11.702 10.6952 11.6436L8.53632 11.0927L9.20522 13.437C9.22882 13.5145 9.20881 13.6006 9.15453 13.6546L6.34847 16.5248H9.64465V15.0786C9.64465 14.9646 9.72577 14.8721 9.82583 14.8721C9.92577 14.8721 10.0069 14.9646 10.0069 15.0786L10.007 16.525ZM2.02101 16.525H5.38253L2.57408 13.6575C2.51979 13.6035 2.49978 13.5174 2.52339 13.4399L3.19229 11.0956L1.01893 11.6465C0.82732 11.7054 0.658113 11.8348 0.537585 12.0146C0.417036 12.1945 0.351968 12.4147 0.352447 12.6409V16.5251H1.64923V15.0789C1.64923 14.9649 1.73023 14.8724 1.83029 14.8724C1.93035 14.8724 2.01135 14.9649 2.01135 15.0789L2.02101 16.525ZM4.95505 13.1671C5.18201 14.5886 5.48876 15.6463 5.86541 16.3626C6.23724 15.6656 6.544 14.6024 6.77337 13.192L6.29046 12.9855C6.14558 13.1315 5.82685 13.0737 5.65058 13.0846V13.0845C5.55436 13.0843 5.46053 13.0496 5.38252 12.9854L4.95505 13.1671ZM7.12841 13.3407V13.3406C7.00116 14.1787 6.80045 14.9999 6.52961 15.7923L8.84065 13.4398L8.13307 10.9606L7.43518 10.5914C7.41589 10.8229 7.39899 11.0487 7.37718 11.2719C7.4649 11.2567 7.55405 11.2855 7.62164 11.3511C7.68922 11.4166 7.72864 11.5123 7.72972 11.6135V13.1037C7.72948 13.2183 7.67963 13.3254 7.59659 13.3898C7.51355 13.4543 7.40798 13.4678 7.31439 13.426L7.12841 13.3407ZM2.9144 13.4398L5.22544 15.7895C4.95079 14.9887 4.74851 14.158 4.62173 13.3104L4.34408 13.426C4.25109 13.4655 4.14696 13.4509 4.06524 13.3866C3.98351 13.3225 3.93438 13.2169 3.93354 13.1037V11.6135C3.93594 11.4983 3.98759 11.3916 4.07171 11.3279C4.15595 11.2642 4.26211 11.2515 4.35606 11.2939C4.33437 11.0708 4.31496 10.8367 4.29567 10.5915L3.6099 10.9634L2.9144 13.4398ZM4.30778 11.7099V13.0073L5.20853 12.6217V12.0956L4.30778 11.7099ZM6.48114 12.6216L7.3795 13.0072V11.7099L6.48114 12.0955C6.47156 12.1699 6.47156 12.5473 6.46916 12.6216L6.48114 12.6216ZM5.6457 12.0487C5.59633 12.0487 5.55631 12.0944 5.55631 12.1506V12.5721C5.55763 12.6278 5.59681 12.6726 5.6457 12.674C5.75918 12.674 6.05864 12.7043 6.08763 12.6382C6.11662 12.572 6.08763 12.2002 6.10692 12.1506C6.10692 12.1236 6.09745 12.0977 6.08068 12.0785C6.06402 12.0594 6.04125 12.0487 6.01753 12.0487L5.6457 12.0487ZM4.73535 11.4592L5.38017 11.7346H5.38005C5.45734 11.6709 5.55021 11.6362 5.64571 11.6355C5.82198 11.6355 6.14313 11.5886 6.28559 11.7346L6.99799 11.4316C7.04867 10.9109 7.09697 10.2966 7.12357 9.77886C6.33102 10.232 5.39741 10.232 4.60489 9.77886C4.63389 10.2968 4.68218 10.9469 4.73526 11.4565L4.73535 11.4592ZM5.81958 9.69341C6.47289 9.70298 7.10259 9.41456 7.56874 8.89215C8.03487 8.3697 8.29887 7.65673 8.30197 6.91138V4.1374C8.30197 4.16501 6.7564 4.17868 6.69612 4.18428C6.37175 4.19139 6.06355 4.02285 5.86547 3.7298C5.66703 4.02696 5.35477 4.19632 5.02751 4.18428C4.97443 4.18428 3.42167 4.16501 3.43618 4.1374L3.43606 6.91138C3.43965 7.63678 3.69022 8.33226 4.13502 8.85103C4.5797 9.36962 5.18378 9.67077 5.81958 9.69072L5.81958 9.69341ZM8.6642 4.9281V6.61664C8.83004 6.58889 8.98151 6.49403 9.09103 6.34941C9.20043 6.20479 9.26071 6.01998 9.26071 5.82889V5.18425C9.26071 5.04278 9.16017 4.9281 9.03615 4.9281H8.6642ZM2.69457 4.9281H2.69469C2.57055 4.9281 2.47001 5.04278 2.47001 5.18425V5.82889C2.47001 6.01998 2.53029 6.20478 2.63981 6.34941C2.74934 6.49403 2.9008 6.58889 3.06652 6.61664V4.9281H2.69457ZM5.86528 3.20089C5.98607 3.18708 6.08984 3.40742 6.15995 3.47632L6.15983 3.47645C6.29188 3.6573 6.4896 3.75899 6.69596 3.75189L8.1448 3.72428C8.29016 3.71648 8.42664 3.64281 8.52406 3.51978C8.6216 3.39663 8.67192 3.23438 8.66402 3.06869C8.62783 2.13208 8.23179 1.53433 7.48083 1.358C7.44128 1.34679 7.40582 1.32178 7.37933 1.28637C6.48097 0.11289 5.2326 0.132171 4.3366 1.28637C4.30964 1.32246 4.27321 1.34747 4.23283 1.358C3.29828 1.57835 3.0809 2.42133 3.064 3.0907C3.06029 3.20607 3.08389 3.32034 3.1323 3.42177C3.18071 3.52305 3.25225 3.60753 3.33925 3.66644C3.41247 3.71593 3.49575 3.74258 3.58071 3.74353L5.02955 3.77115H5.02967C5.23494 3.77607 5.4311 3.67478 5.56338 3.49571C5.63576 3.41028 5.73473 3.18434 5.86523 3.20087L5.86528 3.20089Z" fill="black"/>
</svg>
