<svg width="12" height="17" viewBox="0 0 12 17" fill="none" xmlns="http://www.w3.org/2000/svg">
<path d="M3.8649 16.9366C3.79355 16.9697 3.21984 16.4795 3.1128 16.4161L2.4704 16.898C2.41208 16.9429 2.33554 16.9491 2.27153 16.9146C2.20904 16.8775 2.17007 16.807 2.16957 16.7301V15.8543H1.31047C1.02166 15.8645 0.738151 15.7685 0.506658 15.5818C0.275026 15.3951 0.109059 15.1291 0.0358024 14.8271C0.0129047 14.7187 0.000887369 14.6079 0 14.4966V1.35246C0.000759056 0.990732 0.135236 0.64419 0.373699 0.390283C0.612165 0.136246 0.934749 -0.00408151 1.26962 0.000291375H11.5184C11.571 -0.002715 11.6226 0.0176463 11.6611 0.0565933C11.6996 0.0955403 11.7217 0.149792 11.7223 0.206776V13.3485C11.7228 13.4007 11.7046 13.451 11.6713 13.4889C11.4279 13.7557 11.2916 14.1154 11.2916 14.49C11.2916 14.8645 11.4279 15.2241 11.6713 15.4909C11.7247 15.55 11.7409 15.6374 11.7128 15.7141C11.6848 15.7908 11.6176 15.8425 11.5413 15.8462H4.05631V16.7303C4.05492 16.8437 3.97016 16.9352 3.86503 16.9367L3.8649 16.9366ZM3.10004 15.9563C3.18417 15.9343 3.58949 16.295 3.66349 16.3335V14.7033H2.5444V16.3335C2.63106 16.2894 3.02614 15.9342 3.11028 15.9563H3.10004ZM4.04593 15.4413L11.1284 15.4412C10.9706 15.1567 10.8874 14.8312 10.8874 14.4994C10.8874 14.1677 10.9706 13.8422 11.1284 13.5576H1.26983C1.00125 13.5598 0.748126 13.6941 0.582376 13.9226C0.416652 14.1509 0.356182 14.4484 0.418297 14.7308C0.472822 14.94 0.590473 15.1236 0.752648 15.2524C0.914703 15.3811 1.11206 15.4475 1.31321 15.4412H2.17231V14.7033H1.54775C1.44212 14.7033 1.3566 14.6108 1.3566 14.4967C1.3566 14.3826 1.44212 14.2902 1.54775 14.2902H9.72644C9.83207 14.2902 9.91759 14.3826 9.91759 14.4967C9.91759 14.6108 9.83207 14.7033 9.72644 14.7033H4.05667L4.04593 15.4413ZM1.2696 0.413307C1.03885 0.413307 0.817464 0.512106 0.654014 0.688116C0.490566 0.864263 0.398471 1.10298 0.39771 1.35237V13.5272C0.759782 13.0837 1.37673 13.1499 1.88149 13.1499V0.413254L1.2696 0.413307ZM9.50173 13.1499H11.3271V11.1726C11.2137 11.2264 11.12 11.3196 11.0609 11.4373C11.0018 11.555 10.9807 11.6905 11.0008 11.8225C11.0002 12.0798 10.9051 12.3265 10.7363 12.5081C10.5677 12.6899 10.339 12.792 10.1009 12.792C9.97827 12.7704 9.85252 12.7939 9.74387 12.8588C9.6352 12.9237 9.54993 13.0263 9.50173 13.15L9.50173 13.1499ZM2.26417 13.1499H9.10144C9.15255 12.9123 9.28247 12.7032 9.46665 12.5622C9.65072 12.421 9.8764 12.3578 10.1008 12.3843C10.2361 12.3843 10.3657 12.3263 10.4614 12.223C10.557 12.1197 10.6108 11.9796 10.6108 11.8336C10.5856 11.591 10.6439 11.3469 10.7746 11.1478C10.9053 10.9487 11.0992 10.8086 11.3195 10.754V2.81457C11.0992 2.75991 10.9053 2.6197 10.7746 2.42073C10.6439 2.22163 10.5856 1.97756 10.6108 1.73499C10.6108 1.58891 10.557 1.44884 10.4614 1.34553C10.3657 1.24221 10.2361 1.18427 10.1008 1.18427C9.87641 1.21078 9.65073 1.14751 9.46665 1.00635C9.28246 0.86533 9.15254 0.656243 9.10144 0.418603H2.26417V13.1499ZM9.50173 0.413307C9.55271 0.533834 9.63911 0.63277 9.7474 0.694949C9.85569 0.75726 9.97992 0.779265 10.1009 0.757537C10.3391 0.757537 10.5677 0.859617 10.7363 1.04123C10.9051 1.22298 11.0002 1.46949 11.0008 1.72697C10.9807 1.85897 11.0018 1.99453 11.0609 2.1122C11.12 2.22986 11.2137 2.32292 11.3271 2.3769V0.413331L9.50173 0.413307ZM7.09774 10.9219H6.49607C6.28443 10.9204 6.11363 10.7347 6.11363 10.506V6.09991L4.58392 6.10005C4.37101 6.09841 4.19895 5.91147 4.19895 5.68133V5.02869C4.20035 4.79966 4.37189 4.61435 4.58392 4.61285H6.1135L6.11363 3.05145C6.11363 2.82173 6.28593 2.6356 6.4986 2.6356H7.10026C7.31228 2.63711 7.48383 2.82241 7.48523 3.05145V4.61285H9.0148C9.22683 4.61435 9.39838 4.79965 9.39977 5.02869V5.67861C9.39977 5.90873 9.22785 6.09568 9.0148 6.09718H7.48523V10.5033C7.48523 10.7345 7.31166 10.9219 7.09774 10.9219ZM4.58392 5.02583V5.67847H6.29972C6.40535 5.67847 6.49087 5.77098 6.49087 5.88509V10.506H7.09506L7.09518 5.89068C7.09518 5.77658 7.1807 5.6842 7.28633 5.6842H8.99695V5.02869H7.29139C7.18638 5.02719 7.10162 4.93563 7.10024 4.82221V3.05147H6.49605V4.82221C6.49466 4.93563 6.40977 5.02719 6.30477 5.02869L4.58392 5.02583Z" fill="black"/>
</svg>
