<svg width="12" height="17" viewBox="0 0 12 17" fill="none" xmlns="http://www.w3.org/2000/svg">
<path d="M11.5028 16.9378H0.209805C0.0946769 16.9363 0.00160396 16.8447 8.06165e-05 16.7312V14.4748C-0.00491269 13.6807 0.222152 12.9021 0.654232 12.2321V5.01918C0.60388 3.25583 2.12176 1.67171 3.8996 1.54498C3.92457 1.35221 4.01306 1.17298 4.15135 1.03463C4.28978 0.896272 4.47038 0.806451 4.66553 0.77897C5.05403 -0.259657 6.66139 -0.259657 7.04713 0.77897C7.24326 0.803715 7.42552 0.89258 7.56436 1.03148C7.70321 1.17038 7.79073 1.35125 7.81292 1.54498C9.58519 1.67445 11.1058 3.25597 11.0527 5.01918V12.2349C11.4912 12.9022 11.725 13.6798 11.7264 14.4748V16.7313C11.7257 16.7883 11.7015 16.8426 11.6593 16.8816C11.617 16.9205 11.5605 16.9409 11.5027 16.9379L11.5028 16.9378ZM9.739 16.5245H11.2932V14.4748C11.2848 13.4767 10.8821 12.5213 10.171 11.811C9.45968 11.1007 8.49564 10.6914 7.48323 10.67C7.28766 10.6845 7.09473 10.6182 6.9506 10.4871C6.80634 10.356 6.72395 10.1718 6.72297 9.97837V8.82957C6.16161 9.02097 5.55117 9.02097 4.9898 8.82957V9.97291C4.98245 10.1882 4.87967 10.3895 4.70864 10.5236C4.53762 10.6577 4.31541 10.7112 4.10097 10.67C3.11101 10.7225 2.17889 11.1456 1.49466 11.8527C0.810543 12.5598 0.425907 13.4977 0.419551 14.4748V16.5245H1.97379V14.2158C2.05479 11.9428 4.94243 11.5322 5.85637 13.3149C6.76768 11.5351 9.65515 11.9373 9.73895 14.2075L9.739 16.5245ZM2.39284 16.5245H9.31963V14.2158C9.33808 13.7793 9.17496 13.3544 8.86813 13.0393C8.56131 12.724 8.13742 12.5458 7.69423 12.5458C7.25108 12.5458 6.82702 12.724 6.52022 13.0393C6.2134 13.3544 6.05044 13.7793 6.06872 14.2158C6.06872 14.3315 5.97357 14.4251 5.85636 14.4251C5.73901 14.4251 5.64386 14.3315 5.64386 14.2158C5.66217 13.7793 5.49919 13.3544 5.19236 13.0393C4.88554 12.724 4.46151 12.5458 4.01835 12.5458C3.5752 12.5458 3.15129 12.724 2.84445 13.0393C2.53763 13.3544 2.37452 13.7793 2.39295 14.2158L2.39284 16.5245ZM9.94584 11.0584C10.199 11.2417 10.4315 11.4514 10.639 11.6839V5.01901C10.7144 3.0904 8.59844 1.48413 6.7255 2.05996C7.22998 2.234 7.66817 2.55639 7.98107 2.98348C8.29398 3.41057 8.46641 3.92201 8.47529 4.44864H8.67656C8.85674 4.44864 9.02957 4.51918 9.15689 4.64482C9.28422 4.77033 9.3558 4.94067 9.3558 5.11811V5.50391C9.35885 5.75273 9.2705 5.99431 9.10724 6.18408C8.94384 6.37397 8.71649 6.4992 8.46697 6.53707C8.42064 7.41901 7.92116 8.21688 7.14205 8.653V9.98376C7.13775 10.0074 7.13775 10.0316 7.14205 10.0554C7.18505 10.1977 7.32875 10.2862 7.47744 10.262C8.36461 10.265 9.22837 10.5436 9.94576 11.0582L9.94584 11.0584ZM4.09533 1.94713C2.47689 1.97187 1.02045 3.40739 1.07357 5.01909V11.6783C1.84089 10.8176 2.93102 10.3022 4.09242 10.2512C4.29091 10.2512 4.53686 10.2512 4.56764 10.0059V10.006C4.56903 9.99415 4.56903 9.98212 4.56764 9.97023V8.6367C3.7945 8.20345 3.29748 7.41268 3.24826 6.53733C3.00164 6.49932 2.77695 6.37573 2.61435 6.18884C2.45192 6.00196 2.36245 5.76406 2.36218 5.51798V5.13219C2.36218 4.9546 2.43375 4.78439 2.56109 4.6589C2.68856 4.53326 2.86125 4.46272 3.04142 4.46272H3.23991C3.25253 3.93528 3.42633 3.42381 3.73856 2.99521C4.05066 2.56662 4.48674 2.24081 4.9897 2.06022C4.69869 1.98024 4.3974 1.94223 4.09529 1.94729L4.09533 1.94713ZM5.24132 8.46567C5.90421 8.65037 6.6166 8.51981 7.1677 8.11225C7.71866 7.70483 8.04517 7.06722 8.05057 6.38828V4.85637C7.43164 4.79062 6.85433 4.51732 6.41533 4.08216C6.11905 4.37145 5.38112 4.82603 3.66198 4.86183V6.39374C3.66475 6.86048 3.81969 7.31382 4.10418 7.68705C4.38853 8.06014 4.7873 8.33316 5.24129 8.46563L5.24132 8.46567ZM3.04142 4.85659C2.89785 4.85659 2.78148 4.97129 2.78148 5.11279V5.49858C2.7819 5.63406 2.82712 5.76586 2.91034 5.87373C2.99356 5.98161 3.11022 6.0598 3.24268 6.09644V4.85657L3.04142 4.85659ZM8.47007 4.85659V6.09646C8.60157 6.06009 8.71767 5.98271 8.80075 5.87593C8.88398 5.76916 8.92975 5.6386 8.93128 5.50407V5.11828C8.93128 4.97678 8.8149 4.86208 8.67134 4.86208L8.47007 4.85659ZM4.27714 2.98866H4.27728C3.88806 3.37666 3.6657 3.89783 3.65668 4.44328C5.77836 4.39926 6.20877 3.6718 6.21431 3.66361C6.24871 3.60332 6.31099 3.56367 6.3809 3.55753C6.45081 3.55151 6.51919 3.57981 6.56371 3.63327C6.94309 4.0668 7.46796 4.3513 8.04249 4.43509C8.03084 4.01825 7.89755 3.6137 7.65857 3.26973C7.41971 2.92562 7.08517 2.65683 6.6951 2.49538C6.28937 2.32927 5.84206 2.28785 5.41204 2.37685C4.98192 2.46585 4.58922 2.68104 4.28558 2.99413L4.27714 2.98866ZM4.31071 1.53113C4.81146 1.54918 5.30163 1.67823 5.74482 1.90859H5.95163C6.3977 1.67864 6.89067 1.55056 7.39391 1.53386C7.33912 1.31977 7.13675 1.17484 6.91315 1.18948C6.80967 1.1959 6.71702 1.12686 6.6951 1.02693C6.63019 0.781252 6.45777 0.576736 6.22461 0.468869C5.99144 0.361139 5.72165 0.361139 5.4885 0.468869C5.25533 0.576736 5.08291 0.781263 5.018 1.02693C4.99442 1.12714 4.89802 1.19372 4.7944 1.18128C4.57011 1.17267 4.37106 1.32155 4.31918 1.53659L4.31071 1.53113Z" fill="black"/>
</svg>
