<svg width="17" height="14" viewBox="0 0 17 14" fill="none" xmlns="http://www.w3.org/2000/svg">
<path d="M8.46587 13.0293C8.40342 13.0291 8.34452 13.0032 8.30544 12.9589C8.2665 12.9146 8.25146 12.8566 8.26472 12.8011L8.61728 11.3592C8.76118 10.7547 8.63437 10.123 8.26472 9.60396C7.97556 9.19957 7.81087 8.73182 7.78806 8.24964C7.76538 7.76746 7.88523 7.28865 8.13531 6.86311H7.79107C7.64745 6.86211 7.51476 6.79318 7.44054 6.68119C7.36647 6.5692 7.36155 6.43009 7.42755 6.314L7.78558 5.70963L6.03954 4.11977L5.91833 4.23512L4.02361 5.95539L4.32384 6.45684C4.3815 6.5641 4.37467 6.69077 4.30607 6.79243C4.23734 6.89421 4.11626 6.9568 3.9852 6.95842H3.53084C3.31205 7.28244 3.19754 7.65597 3.20054 8.03638C3.20341 8.41675 3.32353 8.78868 3.54724 9.10997C3.92548 9.63792 4.05545 10.2819 3.90799 10.8978L3.60229 12.1516H3.60243C3.59477 12.2038 3.56362 12.2507 3.5162 12.281C3.46892 12.3112 3.40988 12.3219 3.35344 12.3107C3.29687 12.2994 3.24822 12.2672 3.21911 12.2216C3.19001 12.1762 3.18317 12.1217 3.20026 12.0714L3.50322 10.8177V10.8175C3.63127 10.2998 3.5229 9.75676 3.20299 9.31306C2.95441 8.96527 2.81121 8.56384 2.78798 8.14951C2.76475 7.73502 2.86232 7.3224 3.07085 6.95347H2.81749C2.68644 6.95185 2.56537 6.88914 2.49663 6.78747C2.42803 6.68581 2.4212 6.55914 2.47873 6.45189L2.77896 5.95043L0.889694 4.2252C0.159968 3.56074 -0.143027 2.7884 0.0634823 2.10127C0.504208 0.742099 2.29426 0.689475 3.40128 1.67744C3.76791 1.35702 4.2227 1.13267 4.71769 1.02802C5.41722 -0.34621 7.26783 -0.260967 8.46584 0.799816C9.66103 -0.255874 11.5172 -0.346213 12.214 1.02802C12.7074 1.13429 13.1609 1.35851 13.5277 1.67744C15.8548 -0.215798 18.2949 2.1789 16.0475 4.22516L14.1527 5.94543L14.453 6.44689C14.5105 6.55415 14.5038 6.68082 14.4351 6.78247C14.3663 6.88413 14.2454 6.94672 14.1142 6.94834H13.6598C13.441 7.27249 13.3267 7.64589 13.3295 8.0263C13.3324 8.40667 13.4527 8.7786 13.6764 9.09989C14.0552 9.62772 14.1842 10.2723 14.0344 10.8878L13.7314 12.1416C13.6997 12.2349 13.5948 12.2906 13.49 12.2696C13.385 12.2487 13.3153 12.1583 13.3294 12.0613L13.6324 10.8076H13.6322C13.759 10.2897 13.6508 9.74718 13.3321 9.30297C13.0834 8.95531 12.9402 8.55376 12.917 8.13942C12.8937 7.72493 12.9914 7.31232 13.2 6.94338H12.9466C12.8154 6.94177 12.6944 6.87918 12.6258 6.77739C12.557 6.67573 12.5503 6.54918 12.6078 6.44193L12.9081 5.94048L11.0188 4.21773C10.9748 4.18015 10.9361 4.13996 10.8949 4.10238L9.1461 5.69223L9.50413 6.29413V6.294C9.57587 6.40898 9.57587 6.54996 9.50413 6.66504C9.33618 6.93332 8.92308 6.82307 8.6063 6.84559C8.34666 7.2266 8.21015 7.66658 8.2126 8.11506C8.21505 8.56338 8.35622 9.00214 8.62009 9.38076C9.0507 9.98874 9.19365 10.7292 9.01666 11.4345L8.6641 12.8738H8.66423C8.64811 12.9626 8.56461 13.0281 8.46594 13.0294L8.46587 13.0293ZM13.5357 6.58741H14.0617L13.7863 6.10089L13.2851 6.10102L13.0097 6.58753H13.5604L13.5357 6.58741ZM3.40687 6.58741H3.93558L3.64642 6.10099H3.15896L2.8698 6.5875H3.42051L3.40687 6.58741ZM8.16571 5.85265L7.79114 6.48203H9.13788L8.76876 5.85278L8.16571 5.85265ZM13.2468 5.72474H13.7975L15.7418 3.96939C16.7332 3.06415 16.6451 2.1614 16.1438 1.71257C15.6426 1.26374 14.654 1.18098 13.6653 2.08374V2.08386C13.6257 2.1192 13.5722 2.13911 13.5166 2.13899C13.4457 2.13737 13.3796 2.10589 13.3376 2.05375C13.0555 1.79331 12.7145 1.59211 12.338 1.46444C12.4977 2.23927 11.9937 3.18471 11.1758 3.85665L11.2998 3.97449L13.2468 5.72474ZM3.11791 5.72474H3.68244L5.62677 3.96939V3.96952C5.66927 3.93219 5.70972 3.89287 5.74784 3.85168C4.92163 3.17962 4.42871 2.23434 4.58572 1.45948C4.19173 1.59013 3.83644 1.80217 3.5474 2.07876C3.50873 2.1141 3.45625 2.13388 3.40145 2.13401C3.32971 2.13239 3.26275 2.10103 3.2197 2.04877C2.31093 1.17612 0.823734 1.07832 0.449303 2.2394C0.289553 2.77347 0.611785 3.47064 1.1819 3.96961L3.11791 5.72474ZM8.12723 5.47401H8.80462L11.0629 3.42274C12.225 2.4197 12.3627 0.807324 10.8177 0.413603C10.1182 0.268143 9.31683 0.554088 8.61453 1.19601L8.61466 1.19614C8.57394 1.22924 8.52051 1.24641 8.46598 1.24379C8.3952 1.24143 8.32933 1.21007 8.28696 1.15843C7.57375 0.529053 6.78609 0.255678 6.08379 0.406127C4.57743 0.832435 4.70687 2.41223 5.88004 3.41526L8.12723 5.47401Z" fill="black"/>
</svg>
