<svg width="18" height="16" viewBox="0 0 18 16" fill="none" xmlns="http://www.w3.org/2000/svg">
<path d="M16.5117 15.6351H14.4626H1.57567C1.2631 15.6237 0.967057 15.498 0.748665 15.284C0.530402 15.07 0.406304 14.784 0.402344 14.4852V10.2091C0.413277 10.107 0.501565 10.0283 0.608851 10.0249H3.1289L3.12904 3.55689C3.13054 3.44851 3.22211 3.36089 3.33554 3.35946H6.36525V2.41485C6.33218 0.688595 8.36486 -0.532428 9.97317 0.233273C10.7556 -0.110667 11.6672 -0.0519072 12.3941 0.389446C13.1211 0.830929 13.5639 1.59456 13.5702 2.41745V3.35959L17.134 3.35946C17.2474 3.36089 17.339 3.44851 17.3405 3.55689V14.8432C17.3419 15.0505 17.2577 15.2499 17.1064 15.3984C16.9484 15.5491 16.7347 15.6342 16.5115 15.6352L16.5117 15.6351ZM14.9638 15.2404C14.9831 15.2404 16.6824 15.2562 16.6301 15.2246L15.8038 14.4351L14.9638 15.2404ZM5.97129 15.2404H14.2591V3.75417H11.425V5.30673C11.425 5.41576 11.3325 5.50417 11.2184 5.50417C11.1044 5.50417 11.0119 5.41576 11.0119 5.30673V3.75417H6.78956V5.30673C6.78956 5.41576 6.69717 5.50417 6.58306 5.50417C6.46894 5.50417 6.37655 5.41576 6.37655 5.30673V3.75417H3.54242V10.0249H6.06247C6.1759 10.0264 6.26761 10.114 6.26911 10.2224V14.4854C6.26883 14.7632 6.16319 15.0316 5.97158 15.2406L5.97129 15.2404ZM0.815526 10.4197V14.4852C0.816209 14.6853 0.899713 14.877 1.04786 15.0184C1.19588 15.1599 1.39651 15.2397 1.60602 15.2403H5.06255C5.27247 15.2403 5.47379 15.1609 5.62249 15.0194C5.77118 14.8777 5.85496 14.6856 5.85578 14.4852V10.4197L0.815526 10.4197ZM14.6748 3.75417V14.9589L15.6167 14.0589V5.6829C15.6167 5.57387 15.7091 5.48546 15.8232 5.48546C15.9374 5.48546 16.0299 5.57387 16.0299 5.6829V14.064L16.9167 14.9377C16.9498 14.785 16.9167 3.88571 16.9167 3.754L14.6748 3.75417ZM11.4248 3.35942H13.1572V2.41742C13.1508 1.77864 12.8303 1.17982 12.2918 0.801011C11.7535 0.422205 11.0599 0.307413 10.4194 0.49115C11.0529 0.945302 11.4255 1.65812 11.4248 2.41483V3.35942ZM8.94597 3.35942H11.0227V2.41481C11.0199 1.69899 10.6206 1.03825 9.97331 0.677995C9.33055 1.04243 8.936 1.7033 8.93488 2.41742L8.94597 3.35942ZM6.80039 3.35942H8.53284V2.41742C8.53284 1.65954 8.90622 0.945921 9.5409 0.491133C8.90045 0.304144 8.20521 0.417228 7.66549 0.796033C7.12578 1.17484 6.80501 1.77497 6.80036 2.41482L6.80039 3.35942ZM3.33554 12.9512C3.04334 12.9512 2.76318 12.8402 2.55651 12.6429C2.35 12.4455 2.23383 12.1778 2.23383 11.8986V11.338C2.23383 11.2291 2.32635 11.1407 2.44047 11.1407C2.55459 11.1407 2.64698 11.2291 2.64698 11.338V11.9091C2.66187 12.131 2.79431 12.3303 2.99836 12.4374C3.2024 12.5446 3.44952 12.5446 3.65357 12.4374C3.85748 12.3303 3.99005 12.1311 4.00481 11.9091V11.338C4.00481 11.2291 4.09733 11.1407 4.21145 11.1407C4.32557 11.1407 4.41796 11.2291 4.41796 11.338V11.9091C4.41523 12.1833 4.30042 12.4456 4.09829 12.6402C3.89615 12.8349 3.62253 12.9464 3.33553 12.9512L3.33554 12.9512ZM8.90171 11.7276C8.8469 11.7281 8.79415 11.7072 8.75574 11.6698L6.94349 9.94077C5.11197 8.14609 7.26303 6.35127 8.89898 7.80138C10.5322 6.35144 12.6832 8.14609 10.8545 9.94077L9.04495 11.6696V11.6698C9.00709 11.7063 8.95556 11.7271 8.90171 11.7276ZM7.58516 7.66477C6.56055 7.72001 6.30444 8.76736 7.23815 9.6621L8.89062 11.2409L10.5431 9.6621C11.6751 8.60952 10.9866 7.29379 9.6975 7.76479L9.69764 7.76466C9.44507 7.87017 9.2167 8.02229 9.02563 8.21203C8.945 8.28907 8.81434 8.28907 8.7337 8.21203C8.43986 7.89394 8.02796 7.69753 7.58516 7.66477Z" fill="black"/>
</svg>
