<svg width="15" height="12" viewBox="0 0 15 12" fill="none" xmlns="http://www.w3.org/2000/svg">
<path d="M8.36279 7.06688L9.58162 5.84805H8.771V5.3164H9.8338C9.83393 5.13769 9.76297 4.96637 9.63662 4.84002C9.51027 4.71354 9.33881 4.64258 9.16024 4.64258C8.98153 4.64258 8.81008 4.71354 8.68373 4.83989L8.55078 4.97284C8.50106 5.02269 8.4334 5.05065 8.36284 5.05065C8.29241 5.05065 8.22475 5.02269 8.17489 4.97284L8.04194 4.83989H8.04208C7.91559 4.71354 7.74426 4.64258 7.56556 4.64258C7.38686 4.64258 7.21539 4.71354 7.08905 4.83989C6.96256 4.96624 6.8916 5.1377 6.8916 5.3164C6.8916 5.49511 6.96256 5.66657 7.08905 5.79292L8.36279 7.06688Z" fill="black"/>
<path d="M0.891602 6.385C1.15156 6.41587 1.37987 6.57242 1.50226 6.80388C1.62479 7.03522 1.62571 7.31207 1.5049 7.54434C1.38409 7.77673 1.15696 7.93485 0.897143 7.96757C1.27105 8.21975 1.59934 8.53353 1.86814 8.89555C1.90282 8.94211 1.93632 8.98932 1.96864 9.0372H12.916C12.9485 8.98945 12.982 8.94224 13.0165 8.89555C13.2853 8.53349 13.6136 8.21972 13.9875 7.96757C13.7277 7.93486 13.5006 7.77672 13.3798 7.54447C13.259 7.31222 13.2599 7.03537 13.3823 6.80388C13.5047 6.57241 13.733 6.41587 13.9929 6.385C12.3633 5.46824 11.1264 3.98551 10.5169 2.21782C9.97745 2.42357 9.3858 2.4481 8.83132 2.28759C8.27685 2.12721 7.78963 1.79047 7.44344 1.32861C7.09682 1.79064 6.60937 2.12721 6.05448 2.28759C5.4996 2.4481 4.90768 2.42357 4.36799 2.21768C3.75824 3.98541 2.52139 5.46804 0.89162 6.38487L0.891602 6.385ZM3.23427 4.93196L3.67651 4.63705L4.12929 5.31601H4.67442C4.46167 4.98734 4.42171 4.57556 4.56758 4.21209C4.71332 3.84872 5.02671 3.5786 5.40774 3.48815C5.78877 3.39754 6.18999 3.49778 6.48371 3.75681C6.79642 3.48142 7.22888 3.38686 7.62801 3.50675C8.02697 3.62664 8.33588 3.94383 8.44494 4.34596C8.68538 4.16843 8.98331 4.08666 9.28074 4.11647C9.57816 4.14627 9.85382 4.28555 10.0543 4.50725C10.2548 4.72883 10.3657 5.01716 10.3655 5.31601H11.0532L10.7096 4.97242L11.0855 4.59653L11.8829 5.39394C11.9328 5.44379 11.9608 5.51132 11.9608 5.58188C11.9608 5.65231 11.9328 5.71997 11.8829 5.76983L11.0855 6.56724L10.7096 6.19134L11.0534 5.84762H10.2422C10.1841 5.96646 10.1067 6.07487 10.013 6.16838L8.55112 7.63028C8.50139 7.68013 8.43373 7.70809 8.36317 7.70809C8.29274 7.70809 8.22508 7.68013 8.17523 7.63028L7.09595 6.551L6.67153 6.97528C6.62168 7.02514 6.55415 7.0531 6.48359 7.0531C6.41316 7.0531 6.3455 7.02514 6.29564 6.97528L5.16808 5.84762H4.12929L3.67665 6.52659L3.2344 6.23168L3.66753 5.58185L3.23427 4.93196Z" fill="black"/>
<path d="M1.05986 1.89775C1.40963 1.3322 1.59482 0.680248 1.59469 0.0152602V0.000488281H0V2.9943C0.427996 2.70915 0.78951 2.33522 1.05989 1.89774L1.05986 1.89775Z" fill="black"/>
<path d="M3.09587 0.143591L3.12634 0.000488281H2.12634V0.0152602C2.12647 0.779042 1.91373 1.52766 1.51213 2.17722C1.14032 2.7789 0.619473 3.27456 0 3.61588V4.58516C0.785695 4.08804 1.46412 3.43926 1.99577 2.67656C2.52743 1.91383 2.90132 1.05273 3.09587 0.143591Z" fill="black"/>
<path d="M7.14445 0.821265C7.0272 0.561307 6.95294 0.28421 6.92459 0.000488281H6.88871C6.80602 0.490611 6.49938 0.914218 6.05949 1.14584C5.61978 1.37744 5.09694 1.39063 4.64602 1.18132C4.6116 1.35898 4.5711 1.5348 4.52441 1.70862C4.99526 1.89709 5.51796 1.9112 5.99816 1.74845C6.47852 1.58583 6.88504 1.25703 7.14445 0.821265Z" fill="black"/>
<path d="M9.56861 0.797761C9.77608 0.797761 9.97891 0.73709 10.1524 0.623135C10.1282 0.417382 10.1124 0.209793 10.1049 0.000488281H8.53906C8.59828 0.228529 8.73149 0.430443 8.91773 0.574751C9.10409 0.719039 9.33294 0.797497 9.56861 0.797761Z" fill="black"/>
<path d="M9.56873 1.86095C9.84004 1.86174 10.109 1.81004 10.3607 1.70862C10.3141 1.53492 10.2736 1.35909 10.2391 1.18132C9.78821 1.39063 9.26537 1.37744 8.82553 1.14584C8.38568 0.914238 8.07917 0.490611 7.99644 0.000488281H7.45898C7.5244 0.514077 7.7746 0.986102 8.1629 1.32864C8.55119 1.67104 9.05092 1.86028 9.56873 1.86095Z" fill="black"/>
<path d="M6.34572 0.000505283H4.7799C4.77265 0.209685 4.75682 0.417291 4.73242 0.623152C5.01915 0.811624 5.37908 0.85014 5.69919 0.726556C6.01931 0.602972 6.25999 0.332611 6.34572 0.000505283Z" fill="black"/>
<path d="M1.06317 7.1769C1.06304 7.03023 0.944077 6.91126 0.797411 6.91113H0V7.44265H0.797411C0.944077 7.44252 1.06304 7.32369 1.06317 7.1769Z" fill="black"/>
<path d="M13.372 2.17722C12.9704 1.52766 12.7577 0.779042 12.7578 0.0152602V0.000488281H11.7578L11.7885 0.143591C11.983 1.05273 12.3569 1.91385 12.8885 2.67659C13.42 3.43919 14.0986 4.0881 14.8842 4.58518V3.61591C14.2646 3.27459 13.7438 2.7789 13.372 2.17722Z" fill="black"/>
<path d="M11.2689 0.254421L11.2143 0H10.6367C10.6872 1.3263 11.1084 2.61184 11.8524 3.71103C12.5962 4.81009 13.6333 5.67885 14.8459 6.21857L14.8846 6.23572L14.8844 5.20537C13.9678 4.68057 13.1719 3.96834 12.5489 3.11529C11.926 2.2622 11.4898 1.28737 11.2689 0.254421Z" fill="black"/>
<path d="M13.29 0.000505283V0.0152772C13.2898 1.21246 13.8883 2.3305 14.8847 2.9943V0.000488281L13.29 0.000505283Z" fill="black"/>
<path d="M13.8213 7.17689C13.8216 7.32369 13.9404 7.44252 14.0872 7.44265H14.8846L14.8845 6.91113H14.0872C13.9404 6.91126 13.8216 7.03022 13.8213 7.17689Z" fill="black"/>
<path d="M0.0386329 6.21857C1.25111 5.67888 2.28818 4.81009 3.03218 3.71103C3.77604 2.61184 4.19718 1.32629 4.24769 0H3.67015L3.61555 0.254552C3.39463 1.28754 2.95846 2.26221 2.33554 3.1153C1.71249 3.96839 0.916768 4.68058 0 5.20538V6.23586L0.0386433 6.21872L0.0386329 6.21857Z" fill="black"/>
<path d="M13.4427 9.21341C13.0203 9.77819 12.7819 10.4591 12.7598 11.1641H14.8841V8.08545C14.3106 8.32417 13.8123 8.7139 13.4427 9.21338V9.21341Z" fill="black"/>
<path d="M0 8.08545V11.1641H2.12438C2.10222 10.4591 1.8639 9.77815 1.44157 9.21341C1.07188 8.71394 0.573723 8.3242 0 8.08548V8.08545Z" fill="black"/>
</svg>
