<svg width="13" height="16" viewBox="0 0 13 16" fill="none" xmlns="http://www.w3.org/2000/svg">
<path d="M3.18945 3.72119H3.72097V4.25271H3.18945V3.72119Z" fill="black"/>
<path d="M4.78347 3.52979L4.25195 3.66273V4.31084L4.78347 4.44378V3.52979Z" fill="black"/>
<path d="M3.05664 4.78467L3.18867 7.16201C3.18893 7.16702 3.1884 7.17204 3.1884 7.17678H3.18919V7.5983L3.26701 7.52048V7.52035C3.31687 7.47049 3.38453 7.44253 3.45496 7.44253C3.52538 7.44253 3.59305 7.47049 3.6429 7.52035L3.72072 7.5983V7.17678H3.72151C3.72151 7.1719 3.72085 7.16702 3.72125 7.16201L3.85327 4.78467H3.05664Z" fill="black"/>
<path d="M4.83113 5.00388L4.38031 4.89111L4.29102 6.49691L5.02171 5.76635L4.83113 5.00388Z" fill="black"/>
<path d="M5.18938 2.96313L5.16075 2.91551L4.50036 2.73535L4.48242 3.05783L4.98612 2.93187H4.98625C5.05536 2.91459 5.12857 2.9258 5.18938 2.96313Z" fill="black"/>
<path d="M5.3155 4.25264L5.7617 3.91803L5.31445 3.17285C5.31485 3.17839 5.31538 3.1838 5.31538 3.18947L5.3155 4.25264Z" fill="black"/>
<path d="M1.92494 2.93187L2.42863 3.05783L2.4107 2.73535L1.7503 2.91551L1.72168 2.96313H1.72181C1.78261 2.9258 1.85583 2.91459 1.92494 2.93187Z" fill="black"/>
<path d="M2.15908 8.50538C2.29137 8.50525 2.41812 8.45262 2.51162 8.35911C2.60513 8.2656 2.65775 8.13872 2.65788 8.00645V7.28646L1.40675 6.03532V6.03545C1.3408 5.96938 1.31429 5.87349 1.33698 5.78288L1.56001 4.89089L0.637838 4.1995C0.528894 4.11786 0.49935 3.96698 0.569519 3.85011L1.00923 3.11719L0.715904 3.19725C0.510418 3.2537 0.329202 3.37583 0.199817 3.54519C0.070564 3.71453 0.000263361 3.92149 0 4.13461V6.91068H0.531517V4.7843H1.06317V8.50546L2.15908 8.50538Z" fill="black"/>
<path d="M3.82166 8.4505L3.45525 8.08398V10.0667L2.92374 10.0669V8.69663C2.72867 8.91346 2.45063 9.03718 2.15904 9.03718H1.62793L2.09695 13.0241L2.92377 13.0239V10.6318H3.45529V13.0239H4.81362L5.28264 9.03705H4.75153C4.55699 9.03678 4.36655 8.98166 4.20195 8.87786C4.03748 8.77406 3.90572 8.62581 3.8217 8.4504L3.82166 8.4505Z" fill="black"/>
<path d="M1.59449 3.18947C1.59449 3.18393 1.59515 3.17839 1.59541 3.17285L1.14844 3.91803L1.5945 4.25264L1.59449 3.18947Z" fill="black"/>
<path d="M1.88867 5.76635L2.61937 6.49691L2.53008 4.89111L2.07925 5.00388L1.88867 5.76635Z" fill="black"/>
<path d="M6.19396 3.19711L5.90077 3.11719L6.34048 3.84997H6.34035C6.41051 3.96683 6.38097 4.11771 6.27203 4.19937L5.3501 4.89086L5.57313 5.78284H5.57299C5.59568 5.87345 5.56917 5.96934 5.50322 6.03529L4.25195 7.28642V8.00641V8.00628C4.25209 8.13857 4.30471 8.26545 4.39822 8.35895C4.49173 8.45246 4.61848 8.50508 4.75075 8.50522H5.84664V4.78405H6.37816V6.91043H6.90968L6.90981 4.13436C6.90954 3.92122 6.83925 3.7143 6.70999 3.54494C6.58061 3.37559 6.39939 3.25346 6.1939 3.197L6.19396 3.19711Z" fill="black"/>
<path d="M2.65847 3.66273L2.12695 3.52979V4.44378L2.65847 4.31084V3.66273Z" fill="black"/>
<path d="M3.18982 1.54918V2.65786H2.93923L2.96877 3.18938H3.94254L3.97208 2.65786H3.72135V1.32893C3.72135 1.25837 3.69339 1.19084 3.64354 1.14099C3.59368 1.09113 3.52602 1.06304 3.45559 1.06304C3.3481 1.06304 3.25116 0.99828 3.21001 0.898966C3.16886 0.799652 3.19168 0.685434 3.26764 0.609333C3.34361 0.533363 3.45796 0.510545 3.55728 0.551697C3.65659 0.592849 3.72135 0.689786 3.72135 0.797278H4.253C4.253 0.601418 4.18086 0.412433 4.05042 0.266267C3.91998 0.120132 3.74034 0.0271482 3.54568 0.00512042C3.35114 -0.0170374 3.15516 0.0332134 2.99515 0.146245C2.8353 0.25941 2.72253 0.427437 2.67861 0.61827C2.63456 0.809116 2.66239 1.00946 2.75669 1.18119C2.85099 1.35278 3.00518 1.48391 3.18982 1.54918Z" fill="black"/>
<path d="M8.77148 2.6582H9.303V3.18972H8.77148V2.6582Z" fill="black"/>
<path d="M10.6313 3.87764L11.2407 3.26816V3.26829C11.2906 3.21844 11.3583 3.19034 11.4287 3.19034V2.60052L10.8972 2.46757V1.55013C11.0818 1.48484 11.236 1.35374 11.3303 1.18216C11.4245 1.01044 11.4523 0.810082 11.4084 0.619246C11.3643 0.4284 11.2517 0.260365 11.0917 0.147221C10.9318 0.0341885 10.7359 -0.0160596 10.5412 0.00609648C10.3466 0.0281223 10.167 0.121104 10.0366 0.267243C9.90613 0.413378 9.83398 0.60238 9.83398 0.798254H10.3655C10.3655 0.690762 10.4303 0.593821 10.5296 0.552673C10.6289 0.511524 10.7432 0.53434 10.8192 0.610309C10.8953 0.68641 10.918 0.800628 10.8768 0.899942C10.8357 0.999256 10.7389 1.06402 10.6313 1.06402C10.4845 1.06402 10.3655 1.18311 10.3655 1.32991V2.4676L9.83398 2.60054V3.19037C9.90441 3.19037 9.97207 3.21847 10.0219 3.26832L10.6313 3.87764Z" fill="black"/>
<path d="M11.9609 2.6582H12.4925V3.18972H11.9609V2.6582Z" fill="black"/>
<path d="M9.5688 6.11287C9.76519 6.11273 9.95459 6.18527 10.1005 6.3165C10.2465 6.1854 10.4357 6.11287 10.632 6.11287C10.8282 6.11287 11.0176 6.1854 11.1636 6.3165C11.2763 6.21548 11.4153 6.14847 11.5646 6.12368C11.7139 6.09875 11.8673 6.11709 12.0065 6.17617L12.6762 3.72073H11.5395L10.82 4.44032L10.8199 4.44019C10.7702 4.49004 10.7025 4.51813 10.632 4.51813C10.5615 4.51813 10.4939 4.49004 10.444 4.44019L9.72453 3.7207H8.58789L9.2575 6.17614C9.3559 6.1342 9.46181 6.1127 9.56877 6.11284L9.5688 6.11287Z" fill="black"/>
<path d="M9.83439 6.91043C9.83439 7.05722 9.71529 7.17619 9.5685 7.17619C9.4217 7.17619 9.30273 7.05722 9.30273 6.91043C9.30273 6.76363 9.4217 6.64453 9.5685 6.64453C9.71529 6.64453 9.83439 6.76363 9.83439 6.91043Z" fill="black"/>
<path d="M12.0034 7.64591C11.8643 7.70434 11.7116 7.72215 11.5628 7.69709C11.414 7.67203 11.2754 7.60516 11.1631 7.50439C11.0171 7.63549 10.8277 7.70803 10.6315 7.70803C10.4352 7.70803 10.246 7.63549 10.1 7.50439C9.98773 7.60516 9.84911 7.67203 9.70034 7.69709C9.55157 7.72215 9.39883 7.70434 9.25968 7.64591L8.53125 15.4161H12.7319L12.0034 7.64591Z" fill="black"/>
<path d="M11.9604 6.91043C11.9604 7.05722 11.8413 7.17619 11.6945 7.17619C11.5477 7.17619 11.4287 7.05722 11.4287 6.91043C11.4287 6.76363 11.5477 6.64453 11.6945 6.64453C11.8413 6.64453 11.9604 6.76363 11.9604 6.91043Z" fill="black"/>
<path d="M10.8969 6.91043C10.8969 7.05722 10.7778 7.17619 10.631 7.17619C10.4842 7.17619 10.3652 7.05722 10.3652 6.91043C10.3652 6.76363 10.4842 6.64453 10.631 6.64453C10.7778 6.64453 10.8969 6.76363 10.8969 6.91043Z" fill="black"/>
</svg>
