<svg width="14" height="16" viewBox="0 0 14 16" fill="none" xmlns="http://www.w3.org/2000/svg">
<path d="M7.41119 1.92414C7.22641 1.91095 7.04215 1.95553 6.88416 2.05195C6.62341 1.89328 6.29974 1.8789 6.02608 2.01383C5.7524 2.14862 5.56658 2.414 5.53359 2.71734C5.50049 3.02069 5.62486 3.31983 5.86306 3.51053L6.7181 4.19453C6.81518 4.27222 6.95313 4.27222 7.05021 4.19453L7.90525 3.51053C8.09307 3.36018 8.2123 3.14017 8.23578 2.90068C8.25912 2.66117 8.18473 2.42231 8.0295 2.23846C7.87426 2.05461 7.65123 1.94131 7.4112 1.9243L7.41119 1.92414Z" fill="black"/>
<path d="M13.5555 0H0.265894C0.119097 0 0 0.119097 0 0.265894V15.682C0 15.7524 0.0280932 15.8201 0.0779485 15.8699C0.127805 15.9197 0.195333 15.9478 0.265894 15.9478H13.5555C13.6259 15.9478 13.6936 15.9197 13.7435 15.8699C13.7932 15.8201 13.8213 15.7524 13.8213 15.682V0.265894C13.8213 0.195333 13.7932 0.127805 13.7435 0.0779485C13.6936 0.0280922 13.6259 0 13.5555 0ZM6.64464 14.3529H2.92348V11.695H3.50065C3.91176 11.6939 4.30623 11.8572 4.59613 12.1487C4.64599 12.1986 4.71352 12.2266 4.78408 12.2266C4.8545 12.2266 4.92216 12.1986 4.97202 12.1487C5.26192 11.8572 5.65629 11.6939 6.06737 11.695H6.64453L6.64464 14.3529ZM6.64464 11.1633H6.06748C5.60204 11.1621 5.14976 11.318 4.78416 11.6059C4.41843 11.318 3.96616 11.1621 3.50072 11.1633H2.92355V10.8783C2.92381 10.672 3.00585 10.4742 3.15172 10.3283C3.29759 10.1824 3.49544 10.1004 3.70171 10.1003H5.86657C6.07285 10.1004 6.27056 10.1824 6.41656 10.3283C6.56243 10.4742 6.64447 10.672 6.6446 10.8783L6.64464 11.1633ZM4.25251 4.53336V4.51859C4.25251 4.32867 4.3538 4.15313 4.51827 4.05815C4.68287 3.96318 4.88546 3.96318 5.04993 4.05815C5.21439 4.15311 5.31569 4.32866 5.31569 4.51859V4.53336C5.25198 4.52347 5.18749 4.51846 5.12299 4.51859H4.44521C4.38071 4.51846 4.31635 4.52347 4.25251 4.53336ZM5.32362 6.99974H5.32375C5.49903 6.99961 5.67419 6.98563 5.84736 6.95806V8.00266C5.84723 8.13601 5.79421 8.26381 5.69991 8.35797C5.6056 8.45227 5.4778 8.50529 5.34447 8.50542H4.2238C4.09046 8.50529 3.96265 8.45227 3.8685 8.35797C3.7742 8.26379 3.72118 8.13599 3.72104 8.00266V6.59645C4.21393 6.86076 4.76443 6.99939 5.3238 6.99976L5.32362 6.99974ZM5.04994 9.03708V9.5686H4.51829V9.03708H5.04994ZM6.91052 9.81525V10.0887V10.0885C6.66322 9.76117 6.27676 9.56862 5.8666 9.56862H5.58145V9.00929C5.8083 8.95574 6.01035 8.82714 6.15503 8.64446C6.29971 8.46178 6.37859 8.23575 6.37885 8.00267V5.78399C6.71677 6.1054 6.90878 6.55094 6.91051 7.01729V8.82949L6.04874 9.045L6.1776 9.56068L6.99348 9.35665C6.93848 9.50331 6.91039 9.65855 6.91052 9.8151V9.81525ZM7.44204 14.3528H7.17627V13.8213H7.44204V14.3528ZM10.6316 14.3528H7.97369V13.896L8.70661 14.0792C8.81556 14.1065 8.9299 14.0623 8.99229 13.9688L9.30263 13.5031L9.6131 13.9688C9.67536 14.0623 9.7897 14.1066 9.89878 14.0792L10.6316 13.896L10.6316 14.3528ZM10.3658 5.31582V6.93941C10.3657 7.07275 10.3127 7.20055 10.2184 7.29471C10.1241 7.38901 9.99626 7.44203 9.86293 7.44216H8.74226C8.60892 7.44203 8.48111 7.38901 8.38695 7.29471C8.29265 7.20054 8.23963 7.07273 8.2395 6.93941V5.31582H10.3658ZM9.75951 9.03698L9.30265 10.8647L8.84565 9.03698H9.75951ZM9.03689 8.50533V7.97381H9.56841V8.50533H9.03689ZM12.2264 13.9134H12.2263C12.226 14.1559 12.0295 14.3524 11.787 14.3527H11.1631V13.8212H11.429C11.4994 13.8212 11.5671 13.7932 11.6169 13.7434C11.6668 13.6935 11.6948 13.6258 11.6948 13.5554V9.81501C11.6944 9.46774 11.5563 9.13482 11.3107 8.88939C11.0652 8.64381 10.7323 8.50573 10.3851 8.50532H10.0999V7.94612C10.3268 7.89244 10.5288 7.76385 10.6735 7.58116C10.8182 7.39849 10.8971 7.17244 10.8973 6.93937V5.1264C11.0631 4.85035 11.147 4.53262 11.1391 4.21067C11.1312 3.88873 11.0319 3.5756 10.8527 3.30788C10.7712 3.18575 10.6062 3.15278 10.4841 3.23416C10.0081 3.55215 9.44836 3.72165 8.87582 3.72111H8.75052C8.47408 3.72137 8.20911 3.83137 8.01365 4.02683C7.81805 4.2223 7.70819 4.48741 7.70779 4.76384V6.93941C7.70819 7.17246 7.78706 7.39853 7.93174 7.5812C8.07643 7.76386 8.2785 7.89246 8.5052 7.94616V8.50536H8.22018C7.93991 8.5051 7.66702 8.59518 7.44201 8.76229V7.01721C7.44017 6.57855 7.31012 6.15001 7.0677 5.78455C6.82528 5.41895 6.48118 5.13236 6.07787 4.95995C6.00995 4.88042 5.93252 4.80973 5.84732 4.74932V4.51851C5.84732 4.13866 5.64461 3.78758 5.31567 3.59776C4.98673 3.40784 4.58143 3.40784 4.2525 3.59776C3.92356 3.78755 3.72098 4.13866 3.72098 4.51851V4.74932C3.63565 4.80973 3.55823 4.88042 3.49044 4.95982C3.08712 5.13221 2.743 5.41895 2.5006 5.78455C2.25819 6.15001 2.12801 6.57855 2.12616 7.01722V9.037C2.12616 9.15886 2.20925 9.26517 2.32756 9.29484L3.39072 9.56061L3.51958 9.04492L2.65782 8.82941V7.01722C2.65953 6.55086 2.85157 6.10531 3.18933 5.78391V8.00259C3.18973 8.23564 3.2686 8.46172 3.41329 8.64439C3.55797 8.82705 3.76005 8.95565 3.98674 9.00921V9.56855H3.70172C3.35446 9.56894 3.02154 9.70704 2.77597 9.95262C2.53052 10.1981 2.39244 10.531 2.39204 10.8782V14.3529H2.03397C1.79142 14.3527 1.5949 14.1561 1.59463 13.9136V2.03428C1.59489 1.79173 1.79141 1.59521 2.03397 1.59494H11.7871C12.0297 1.5952 12.2262 1.79172 12.2265 2.03428L12.2264 13.9134Z" fill="black"/>
<path d="M9.56836 5.84717H10.0999V6.37869H9.56836V5.84717Z" fill="black"/>
<path d="M8.50586 5.84717H9.03738V6.37869H8.50586V5.84717Z" fill="black"/>
</svg>
