<svg width="15" height="15" viewBox="0 0 15 15" fill="none" xmlns="http://www.w3.org/2000/svg">
<path d="M2.65861 3.9866C2.65861 4.13339 2.53951 4.25236 2.39271 4.25236C2.24592 4.25236 2.12695 4.13339 2.12695 3.9866C2.12695 3.8398 2.24592 3.7207 2.39271 3.7207C2.53951 3.7207 2.65861 3.8398 2.65861 3.9866Z" fill="black"/>
<path d="M5.772 6.73014L5.91959 6.78078L6.08287 6.02386H6.083C6.12323 5.8371 6.14354 5.64678 6.14354 5.45567V5.35332C6.00268 5.17976 5.90798 4.97321 5.86842 4.7531C5.49015 4.83672 5.09434 4.75085 4.78478 4.51807C4.66265 4.60973 4.52562 4.67977 4.37988 4.725C4.5367 5.04022 4.56176 5.40505 4.44926 5.73885C4.77596 6.19929 5.23849 6.54589 5.772 6.73014Z" fill="black"/>
<path d="M3.70061 2.15748C3.8941 2.11461 4.09484 2.1158 4.28781 2.16104C4.23044 1.91598 4.24415 1.65971 4.32724 1.42231C4.41033 1.18477 4.55924 0.97571 4.75669 0.81982C4.66094 0.59178 4.46152 0.388414 4.19445 0.250824C3.89954 0.0988852 3.56083 0.0403244 3.27913 0.0102539C3.12047 0.424913 3.08103 0.875599 3.16531 1.3115C3.44703 1.51303 3.63906 1.81651 3.70064 2.15746L3.70061 2.15748Z" fill="black"/>
<path d="M1.70951 6.58887C1.50125 6.9906 1.42317 7.44709 1.48595 7.89524L1.57089 7.86201C2.14356 7.637 2.59543 7.18196 2.81662 6.60783L2.82242 6.5928C2.61034 6.53173 2.41671 6.41896 2.25897 6.26465C2.10478 6.41553 1.91618 6.52688 1.70951 6.58887Z" fill="black"/>
<path d="M5.05425 2.85731C4.85444 3.03405 4.75631 3.29901 4.79258 3.56332C4.82898 3.82763 4.99517 4.05621 5.23533 4.1724C5.4755 4.28858 5.7579 4.27686 5.98763 4.1414C6.07561 4.08917 6.1856 4.09194 6.27067 4.14852C6.35574 4.20511 6.40085 4.30547 6.38674 4.40677C6.38146 4.4437 6.37882 4.48115 6.37869 4.51848C6.37869 4.80336 6.53063 5.06661 6.77741 5.20906C7.02405 5.3515 7.32808 5.3515 7.57469 5.20906C7.82146 5.06661 7.97341 4.80335 7.97341 4.51848C7.97341 4.48102 7.97064 4.4437 7.9655 4.40663C7.95125 4.30534 7.99636 4.2051 8.08156 4.14852C8.16663 4.09194 8.27663 4.08917 8.36447 4.14127C8.59423 4.27751 8.87701 4.28951 9.11758 4.17345C9.35815 4.05725 9.52448 3.82841 9.56074 3.5637C9.597 3.29899 9.49835 3.03377 9.29788 2.85729C9.24064 2.80677 9.20793 2.73423 9.20793 2.65787C9.20793 2.58163 9.24064 2.50896 9.29788 2.45858C9.49769 2.28184 9.59582 2.01688 9.55942 1.75257C9.52302 1.48826 9.35683 1.25968 9.1168 1.14363C8.87663 1.02743 8.59423 1.03904 8.3645 1.17449C8.27666 1.22672 8.16666 1.22395 8.08159 1.16737C7.99639 1.11079 7.95128 1.01042 7.96553 0.909259C7.97067 0.872196 7.97344 0.834741 7.97344 0.797415C7.97344 0.512529 7.8215 0.249285 7.57472 0.106834C7.32808 -0.0356112 7.02406 -0.0356112 6.77744 0.106834C6.53067 0.249278 6.37872 0.512545 6.37872 0.797415C6.37872 0.834741 6.38149 0.872064 6.38677 0.909127C6.40088 1.01029 6.35577 1.11079 6.2707 1.16737C6.18563 1.22395 6.07564 1.22672 5.98766 1.17449C5.75791 1.03904 5.47566 1.02743 5.2355 1.14363C4.99532 1.25969 4.82914 1.48826 4.79274 1.75257C4.75635 2.01688 4.8546 2.28186 5.05429 2.45858C5.11153 2.50896 5.14437 2.58163 5.14437 2.65787C5.14437 2.73423 5.11153 2.80677 5.05429 2.85729L5.05425 2.85731ZM7.17614 1.86059C7.38756 1.86059 7.59042 1.9446 7.73997 2.09404C7.8894 2.2436 7.97341 2.44647 7.97341 2.65787C7.97341 2.86942 7.8894 3.07226 7.73997 3.2217C7.5904 3.37126 7.38753 3.45528 7.17614 3.45528C6.96458 3.45528 6.76175 3.37126 6.61231 3.2217C6.46274 3.07226 6.37872 2.8694 6.37872 2.65787C6.37899 2.44645 6.463 2.24385 6.61257 2.09431C6.762 1.94487 6.96474 1.86072 7.17614 1.86059Z" fill="black"/>
<path d="M7.44084 2.65883C7.44084 2.80563 7.32187 2.92472 7.17507 2.92472C7.02828 2.92472 6.90918 2.80563 6.90918 2.65883C6.90918 2.51203 7.02828 2.39307 7.17507 2.39307C7.32187 2.39307 7.44084 2.51203 7.44084 2.65883Z" fill="black"/>
<path d="M8.32227 5.19035C8.32662 5.18333 8.33027 5.17659 8.33336 5.17041C8.32971 5.17715 8.32606 5.18375 8.32227 5.19035Z" fill="black"/>
<path d="M9.83353 2.65779C9.85463 2.68589 9.87454 2.71477 9.89327 2.74445H9.8934C10.1356 2.65252 10.3992 2.63326 10.6521 2.68905C10.7063 2.38992 10.8611 2.11837 11.091 1.91946C11.3207 1.72057 11.6118 1.60622 11.9156 1.59567C11.9945 1.18945 12.0177 0.774523 11.9846 0.362092C11.4017 0.348376 10.8218 0.447425 10.2767 0.653968C10.0475 0.741279 9.86808 0.838088 9.73438 0.946769C9.95068 1.17415 10.0793 1.47089 10.0975 1.78416C10.1157 2.0974 10.0222 2.40694 9.83356 2.65781L9.83353 2.65779Z" fill="black"/>
<path d="M8.34372 6.10151L8.42629 6.33746L8.7208 6.27626V6.27613C9.1021 6.19607 9.42458 5.94324 9.59341 5.592C9.62255 5.44257 9.67729 5.2992 9.75511 5.16823C9.54527 5.05994 9.36827 4.89758 9.24243 4.69775C9.00054 4.78968 8.73701 4.80907 8.48445 4.75315C8.45913 4.89401 8.41112 5.02986 8.34228 5.15515C8.33542 5.18601 8.31854 5.27517 8.28504 5.51693V5.51706C8.25813 5.71371 8.27817 5.91408 8.34372 6.10151Z" fill="black"/>
<path d="M7.57984 12.2266H6.79482L6.46918 12.769H6.46931C6.22663 13.1723 6.06759 13.6204 6.00161 14.0864L5.93039 14.5844C5.91957 14.6598 5.94213 14.7363 5.99211 14.7938C6.0421 14.8515 6.11451 14.8844 6.19074 14.8844H8.24192C8.38714 14.8843 8.50479 14.7667 8.50492 14.6216C8.50386 13.8199 8.23111 13.0424 7.73111 12.416L7.57984 12.2266Z" fill="black"/>
<path d="M9.67226 6.36259C9.55251 6.47246 9.41837 6.56557 9.27354 6.6393L9.56317 6.6972L9.37839 7.62136C9.31376 7.94463 9.23622 8.26947 9.14798 8.58709L8.63584 8.44478C8.72065 8.13971 8.79503 7.82767 8.85716 7.51717L9.01094 6.74812C8.9512 6.76751 8.89053 6.78373 8.82907 6.79666L8.30663 6.90534H8.3065C8.17606 6.93251 8.04561 6.85878 8.00157 6.73296L7.84211 6.27727C7.77985 6.09816 7.74636 5.91036 7.74306 5.7207C7.40224 5.88161 7.00909 5.89005 6.66169 5.74392C6.64995 5.87567 6.63017 6.00664 6.60234 6.13602L6.37588 7.18548C6.35992 7.25974 6.31283 7.32357 6.24676 7.3609C6.18055 7.39823 6.10168 7.40548 6.0298 7.38081L5.59903 7.23283C5.03402 7.03777 4.534 6.6901 4.15443 6.22848C4.03942 6.35008 3.90265 6.44914 3.75098 6.52022L3.84488 7.03658C4.08941 8.39215 4.73292 9.6441 5.69307 10.6318H6.0898C5.39817 9.7071 4.95012 8.62323 4.78697 7.47997L5.31322 7.40479C5.4798 8.57243 5.96808 9.67055 6.72329 10.5765L6.76919 10.6318H7.80784C8.07084 10.0905 8.29584 9.53156 8.48114 8.95916L8.98693 9.1227L8.98706 9.12257C8.82035 9.63707 8.62305 10.141 8.39591 10.6318H8.66089L8.97255 10.3201H8.97268C9.73501 9.55595 10.31 8.62548 10.6526 7.60184L10.795 7.17213C10.5517 7.153 10.3182 7.0674 10.1202 6.9247C9.92218 6.78186 9.76724 6.58745 9.67226 6.36259Z" fill="black"/>
<path d="M12.0603 6.23389C12.1743 6.44043 12.3739 6.58591 12.6053 6.63129C12.8369 6.67653 13.0766 6.61705 13.2601 6.46867C13.4435 6.32029 13.5518 6.09831 13.5558 5.86236C13.5599 5.62641 13.4592 5.40087 13.2809 5.2463C13.1939 5.17059 13.1656 5.04728 13.2111 4.9411C13.2566 4.83506 13.3653 4.77043 13.4803 4.78125C13.507 4.78375 13.5315 4.78494 13.5558 4.78494L13.5556 4.78481C13.8044 4.78494 14.0389 4.66888 14.1896 4.47117C14.3405 4.27346 14.3905 4.01667 14.3248 3.77677C14.2591 3.53699 14.0853 3.34152 13.8546 3.24829C13.6241 3.15505 13.3633 3.1747 13.1492 3.30145C13.0614 3.35368 12.9514 3.3509 12.8663 3.29432C12.7813 3.23774 12.7362 3.13737 12.7503 3.03621C12.7554 2.99915 12.7581 2.96169 12.7581 2.92437C12.7581 2.63948 12.606 2.37624 12.3593 2.23379C12.1126 2.09134 11.8087 2.09134 11.5619 2.23379C11.3151 2.37623 11.1632 2.6395 11.1632 2.92437C11.1633 2.96169 11.166 2.99902 11.1712 3.03608C11.1854 3.13724 11.1402 3.23761 11.0552 3.29432C10.9701 3.35091 10.8601 3.35367 10.7723 3.30145C10.5634 3.17773 10.3096 3.15584 10.0826 3.24196C10.1532 3.673 10.0068 4.11112 9.69141 4.41318C9.81472 4.60956 10.0177 4.74212 10.2471 4.77601C10.3502 4.79144 10.4347 4.86556 10.4635 4.96567C10.4923 5.06591 10.4597 5.17353 10.3804 5.24119C10.2002 5.39445 10.0974 5.61986 10.0996 5.85648C10.102 6.09296 10.2092 6.31638 10.3924 6.46609C10.5756 6.61579 10.8158 6.67646 11.0482 6.63162C11.2804 6.58677 11.4808 6.44103 11.5951 6.23397C11.642 6.14943 11.731 6.09694 11.8277 6.09694C11.9242 6.09694 12.0132 6.14943 12.0601 6.23397L12.0603 6.23389ZM11.1632 4.51903C11.1632 4.30761 11.2472 4.10474 11.3968 3.9552C11.5464 3.80564 11.7491 3.72162 11.9606 3.72162C12.1721 3.72162 12.3749 3.80564 12.5245 3.9552C12.674 4.10477 12.7581 4.30763 12.7581 4.51903C12.7581 4.73043 12.674 4.93332 12.5245 5.08286C12.3749 5.23243 12.172 5.31644 11.9606 5.31644C11.7492 5.31618 11.5465 5.23203 11.3971 5.0826C11.2476 4.93316 11.1635 4.73043 11.1632 4.51903Z" fill="black"/>
<path d="M8.66117 12.2266H8.25586C8.677 12.8056 8.93827 13.4851 9.01383 14.1969C9.18938 14.1251 9.30386 13.9538 9.30294 13.7642C9.30439 13.1902 9.07635 12.6395 8.66932 12.2347L8.66117 12.2266Z" fill="black"/>
<path d="M13.7157 6.76662C13.4703 7.02315 13.1324 7.17075 12.7775 7.17629C12.4225 7.18182 12.0803 7.04505 11.8269 6.7963C11.8257 6.79749 11.8244 6.79854 11.8232 6.7996L11.9736 7.0862L11.9737 7.08633C12.2635 7.63777 12.8036 8.01353 13.4214 8.09345L14.3011 8.20675L14.2404 7.8137H14.2406C14.1802 7.41815 13.9965 7.0518 13.7157 6.76662Z" fill="black"/>
<path d="M12.2259 4.5182C12.2259 4.665 12.1069 4.78397 11.9601 4.78397C11.8133 4.78397 11.6943 4.665 11.6943 4.5182C11.6943 4.37141 11.8133 4.25244 11.9601 4.25244C12.1069 4.25244 12.2259 4.37141 12.2259 4.5182Z" fill="black"/>
<path d="M8.77171 11.6951C8.91851 11.6951 9.03747 11.5761 9.03747 11.4293C9.03747 11.2825 8.91851 11.1636 8.77171 11.1636H5.58217C5.43537 11.1636 5.31641 11.2825 5.31641 11.4293C5.31641 11.5761 5.43537 11.6951 5.58217 11.6951H8.77171Z" fill="black"/>
<path d="M3.98698 5.3159C3.98685 5.08496 3.88674 4.86549 3.71238 4.71423C3.62534 4.63839 3.59711 4.51507 3.64261 4.40903C3.68798 4.30285 3.79679 4.23823 3.91167 4.24904C3.93832 4.25155 3.96285 4.25273 3.98712 4.25273C4.14499 4.2526 4.2993 4.20565 4.43054 4.11781C4.1938 3.70788 4.19367 3.20273 4.43028 2.7927C4.30525 2.70894 4.15924 2.66239 4.0089 2.6583C3.85856 2.65421 3.71016 2.69272 3.58077 2.76935C3.49293 2.82158 3.38293 2.81881 3.29786 2.76223C3.21266 2.70565 3.16755 2.60528 3.1818 2.50412C3.18694 2.46705 3.18958 2.4296 3.18958 2.39214C3.18958 2.10726 3.03764 1.84401 2.79086 1.70156C2.54422 1.55912 2.24019 1.55912 1.99345 1.70156C1.74681 1.844 1.59486 2.10727 1.59486 2.39214C1.59486 2.4296 1.5975 2.46692 1.60277 2.50399C1.61702 2.60515 1.57191 2.70552 1.48684 2.7621C1.40177 2.81868 1.29164 2.82158 1.2038 2.76935C0.99884 2.64788 0.750345 2.62453 0.526285 2.70552C0.302202 2.7865 0.126111 2.9635 0.0461913 3.18797C-0.0337355 3.41232 -0.00907063 3.66081 0.113457 3.86512C0.235852 4.06955 0.443316 4.20843 0.678873 4.24392C0.782013 4.25922 0.866555 4.33334 0.895309 4.43358C0.923929 4.53368 0.891484 4.64144 0.812218 4.70897C0.631789 4.86223 0.528916 5.08763 0.531158 5.32425C0.5334 5.561 0.640628 5.78443 0.823826 5.9341C1.00702 6.08393 1.24733 6.14447 1.47973 6.09963C1.71212 6.05478 1.91245 5.90891 2.02668 5.70172C2.07363 5.61717 2.16253 5.56481 2.2592 5.56481C2.35588 5.56481 2.44478 5.61717 2.49173 5.70172C2.60647 5.90958 2.80801 6.05546 3.04131 6.09949C3.27463 6.14368 3.51546 6.08155 3.6984 5.93001C3.8812 5.77847 3.98698 5.55333 3.98698 5.3159ZM2.39216 4.78426C2.18074 4.78426 1.97787 4.70024 1.82833 4.55067C1.6789 4.40124 1.59488 4.19838 1.59488 3.98698C1.59488 3.77543 1.6789 3.57259 1.82833 3.42315C1.9779 3.27358 2.18076 3.18957 2.39216 3.18957C2.60372 3.18957 2.80655 3.27358 2.95599 3.42315C3.10556 3.57258 3.18957 3.77545 3.18957 3.98698C3.18931 4.19827 3.10529 4.401 2.95573 4.55054C2.80629 4.69997 2.60356 4.78399 2.39216 4.78426Z" fill="black"/>
<path d="M6.17512 12.2266H5.69148L5.6833 12.2347C5.27627 12.6395 5.04823 13.1902 5.04981 13.7642C5.04876 13.9839 5.20162 14.1745 5.41632 14.2212C5.42569 14.2233 5.43532 14.2251 5.44468 14.2272L5.47554 14.0113V14.0112C5.55164 13.475 5.73471 12.9596 6.01378 12.4956L6.17512 12.2266Z" fill="black"/>
</svg>
