<svg width="15" height="15" viewBox="0 0 15 15" fill="none" xmlns="http://www.w3.org/2000/svg">
<path d="M6.64495 1.8606C6.71538 1.8606 6.78304 1.88856 6.83289 1.93842C6.88275 1.98828 6.91071 2.05581 6.91071 2.12637C6.91071 2.31629 7.012 2.4917 7.17647 2.58667C7.34094 2.68165 7.54366 2.68164 7.70812 2.58667C7.87259 2.49171 7.97388 2.3163 7.97388 2.12637C7.97388 1.97957 8.09285 1.8606 8.23965 1.8606C8.42957 1.8606 8.60511 1.75918 8.70009 1.59471C8.79507 1.43024 8.79505 1.22766 8.70009 1.06319C8.60513 0.898723 8.42958 0.797431 8.23965 0.797431C8.09285 0.797431 7.97388 0.678334 7.97388 0.531537C7.97388 0.341613 7.87259 0.166207 7.70812 0.0712279C7.54365 -0.0237511 7.34094 -0.0237342 7.17647 0.0712279C7.012 0.16619 6.91071 0.341606 6.91071 0.531537C6.91071 0.602097 6.88275 0.669626 6.83289 0.719482C6.78304 0.769338 6.71538 0.797431 6.64495 0.797431C6.45502 0.797431 6.27948 0.898723 6.1845 1.06319C6.08954 1.22766 6.08954 1.43024 6.1845 1.59471C6.27946 1.75918 6.45501 1.8606 6.64495 1.8606ZM7.44236 0.797434C7.58335 0.797434 7.71854 0.853354 7.81826 0.953067C7.91783 1.05278 7.97389 1.18797 7.97389 1.32896C7.97389 1.46996 7.91783 1.60515 7.81826 1.70486C7.71855 1.80457 7.58336 1.86063 7.44236 1.86063C7.30136 1.86063 7.16618 1.80457 7.06646 1.70486C6.96675 1.60515 6.91069 1.46996 6.91069 1.32896C6.91083 1.1881 6.96688 1.05291 7.06659 0.953337C7.1663 0.853628 7.30136 0.797565 7.44236 0.797434Z" fill="black"/>
<path d="M5.75063 2.11063L5.79771 1.96938C5.66819 1.79871 5.59354 1.59284 5.58365 1.37891C4.81011 1.52821 4.09525 1.89553 3.52325 2.43735C2.95125 2.97916 2.54595 3.67319 2.35494 4.43748L2.21777 4.98615C2.42643 5.1369 2.57348 5.3581 2.63179 5.60869C2.78347 5.64391 2.92564 5.7121 3.04817 5.80851L3.51125 5.69271C4.25103 5.5078 4.9229 5.11622 5.44821 4.5636C5.97354 4.01098 6.3307 3.32013 6.47788 2.57205C6.44715 2.50571 6.42328 2.43646 6.40679 2.36524C6.35087 2.35231 6.296 2.33477 6.24285 2.31288C5.95044 3.17164 5.40519 3.92208 4.67875 4.46549L4.35984 4.04026C5.00967 3.55422 5.49503 2.88079 5.75062 2.1107L5.75063 2.11063ZM3.57506 5.02213L3.33726 4.54666L3.86877 4.2809L4.10657 4.75637L3.57506 5.02213Z" fill="black"/>
<path d="M1.83785 4.30876C2.05851 3.42613 2.53212 2.62727 3.20055 2.01016C3.86898 1.39305 4.70319 0.984568 5.60058 0.834992L5.71348 0.816132C5.73195 0.782895 5.75212 0.750713 5.77402 0.719586L5.39617 0.685295H5.39603C4.50918 0.604578 3.62631 0.877461 2.93968 1.44459C2.25292 2.01159 1.81793 2.82683 1.7293 3.71301L1.62207 4.78516C1.65412 4.78595 1.68577 4.78819 1.71716 4.79175L1.83785 4.30876Z" fill="black"/>
<path d="M0.79729 7.17688C0.867719 7.17688 0.935379 7.20497 0.985236 7.25483C1.03509 7.30468 1.06305 7.37221 1.06305 7.44277C1.06305 7.6327 1.16434 7.8081 1.32881 7.90308C1.49328 7.99806 1.696 7.99804 1.86047 7.90308C2.02493 7.80812 2.12623 7.6327 2.12623 7.44277C2.12623 7.29597 2.24519 7.17688 2.39199 7.17688C2.58191 7.17688 2.75746 7.07559 2.85243 6.91112C2.94741 6.74665 2.9474 6.54406 2.85243 6.3796C2.75747 6.21513 2.58192 6.1137 2.39199 6.1137C2.24519 6.1137 2.12623 5.99474 2.12623 5.84794C2.12623 5.65802 2.02494 5.48261 1.86047 5.38763C1.696 5.29266 1.49328 5.29267 1.32881 5.38763C1.16435 5.4826 1.06305 5.65801 1.06305 5.84794C1.06305 5.9185 1.03509 5.98603 0.985236 6.03589C0.935379 6.08574 0.867719 6.1137 0.79729 6.1137C0.607366 6.1137 0.431825 6.21513 0.336847 6.3796C0.241884 6.54407 0.241884 6.74665 0.336847 6.91112C0.431809 7.07558 0.607356 7.17688 0.79729 7.17688ZM1.59457 6.11371C1.73556 6.11371 1.87075 6.16976 1.97047 6.26947C2.07018 6.36918 2.12623 6.50437 2.12623 6.64537C2.12623 6.78636 2.07018 6.92155 1.97047 7.02127C1.87076 7.12098 1.73557 7.1769 1.59457 7.1769C1.45357 7.1769 1.31839 7.12098 1.21867 7.02127C1.11909 6.92156 1.06304 6.78637 1.06304 6.64537C1.06317 6.50438 1.11923 6.36932 1.21893 6.26961C1.31851 6.17003 1.45371 6.11397 1.59457 6.11371Z" fill="black"/>
<path d="M12.7582 5.84794C12.7582 5.9185 12.7303 5.98603 12.6804 6.03588C12.6306 6.08574 12.563 6.1137 12.4925 6.1137C12.3025 6.1137 12.1271 6.21512 12.0322 6.37959C11.9372 6.54406 11.9372 6.74664 12.0322 6.91111C12.1271 7.07558 12.3025 7.17687 12.4925 7.17687C12.563 7.17687 12.6306 7.20496 12.6804 7.25482C12.7303 7.30468 12.7582 7.37221 12.7582 7.44277C12.7582 7.63269 12.8597 7.8081 13.0241 7.90307C13.1886 7.99805 13.3912 7.99804 13.5556 7.90307C13.7201 7.80811 13.8214 7.6327 13.8214 7.44277C13.8214 7.29597 13.9405 7.17687 14.0873 7.17687C14.2772 7.17687 14.4526 7.07558 14.5476 6.91111C14.6426 6.74664 14.6426 6.54406 14.5476 6.37959C14.4526 6.21512 14.2772 6.1137 14.0873 6.1137C13.9405 6.1137 13.8214 5.99473 13.8214 5.84794C13.8214 5.65801 13.7201 5.48261 13.5556 5.38763C13.3912 5.29267 13.1886 5.29267 13.0241 5.38763C12.8597 5.48259 12.7582 5.65801 12.7582 5.84794ZM13.8214 6.64535C13.8214 6.78634 13.7655 6.92153 13.6658 7.02125C13.5661 7.12096 13.4309 7.17688 13.2899 7.17688C13.1489 7.17688 13.0137 7.12096 12.914 7.02125C12.8143 6.92153 12.7582 6.78635 12.7582 6.64535C12.7582 6.50435 12.8143 6.36917 12.914 6.26945C13.0137 6.16973 13.1489 6.11368 13.2899 6.11368C13.4307 6.11395 13.5659 6.17 13.6655 6.26958C13.7652 6.36929 13.8213 6.50435 13.8214 6.64535Z" fill="black"/>
<path d="M10.5253 4.04023L10.2064 4.46546C9.47988 3.92205 8.93479 3.17161 8.64239 2.31285C8.58924 2.33474 8.53437 2.35228 8.47832 2.36521C8.46183 2.43643 8.43809 2.50581 8.40723 2.57201C8.55442 3.32023 8.9116 4.01095 9.4369 4.56357C9.96234 5.11619 10.6341 5.50792 11.3739 5.69268L11.8369 5.80848H11.8371C11.9595 5.71207 12.1016 5.64388 12.2534 5.6088C12.3117 5.35807 12.4587 5.13687 12.6673 4.98615L12.5302 4.43748C12.3392 3.67316 11.9339 2.97916 11.3619 2.43735C10.79 1.89553 10.0751 1.52821 9.30145 1.37891C9.29156 1.59283 9.21704 1.79873 9.08753 1.96938L9.13461 2.11063V2.1105C9.39008 2.88073 9.87543 3.55419 10.5253 4.0402L10.5253 4.04023ZM11.0163 4.28093L11.5478 4.54669L11.31 5.02216L10.7785 4.7564L11.0163 4.28093Z" fill="black"/>
<path d="M9.28371 0.834942C10.181 0.984508 11.0152 1.39296 11.6836 2.01011C12.352 2.62725 12.8256 3.42612 13.0463 4.30871L13.1671 4.79185C13.1984 4.78815 13.2302 4.78604 13.2622 4.78525L13.155 3.7131V3.71297C13.0663 2.82693 12.6314 2.01155 11.9446 1.44455C11.258 0.877546 10.3751 0.604663 9.48811 0.685258L9.11035 0.719549C9.13225 0.750676 9.15243 0.782857 9.17089 0.816095L9.28371 0.834942Z" fill="black"/>
<path d="M13.8222 14.3527C13.6754 14.3527 13.5565 14.2338 13.5565 14.087V13.2896H13.025V14.087C13.025 14.1574 12.9969 14.2251 12.947 14.2749C12.8972 14.3246 12.8296 14.3527 12.7591 14.3527C12.6182 14.3529 12.483 14.4089 12.3834 14.5086C12.2837 14.6082 12.2277 14.7434 12.2275 14.8842H14.3539C14.3538 14.7434 14.2976 14.6082 14.198 14.5086C14.0983 14.4089 13.9632 14.3529 13.8222 14.3527Z" fill="black"/>
<path d="M14.2052 7.98193C14.0396 8.2626 13.7546 8.45214 13.4317 8.49616C12.973 9.13941 12.6665 9.87851 12.5357 10.6578L12.4883 10.9416L11.9639 10.8541L12.0113 10.5703H12.0114C12.1407 9.80072 12.4254 9.06571 12.8483 8.4098C12.6777 8.33146 12.5307 8.20959 12.422 8.05646C11.5961 9.46797 11.1615 11.0743 11.1631 12.7099V12.7585H13.6626L13.7836 11.4263C13.8629 10.5566 13.8161 9.68003 13.6446 8.8238L14.1659 8.71961H14.166C14.3474 9.62597 14.3969 10.5538 14.3132 11.4744L14.293 11.6954H14.8842V10.0095C14.8861 9.27749 14.6477 8.56517 14.2052 7.98206L14.2052 7.98193ZM12.492 11.9611H11.9605V11.4294H12.492V11.9611Z" fill="black"/>
<path d="M8.07223 8.93133C7.96935 8.93357 7.87399 8.9862 7.81741 9.07232L7.74263 9.18443C7.69344 9.25842 7.61034 9.30274 7.52158 9.30274C7.43268 9.30274 7.34959 9.25842 7.3004 9.18443L7.22561 9.07232C7.16903 8.9862 7.07368 8.93357 6.9708 8.93133H6.96157C6.86173 8.9308 6.76769 8.97789 6.70847 9.05808C6.61443 9.18443 6.62696 9.3605 6.73788 9.47237L7.52158 10.2561L8.30515 9.47223C8.41607 9.36039 8.4286 9.18431 8.33456 9.05794C8.27323 8.97525 8.17523 8.9279 8.07223 8.93133Z" fill="black"/>
<path d="M2.03587 8.4098C2.4587 9.0657 2.74347 9.80072 2.87272 10.5703L2.92006 10.8543L2.39567 10.9417L2.34832 10.6579L2.34845 10.6578C2.21762 9.87854 1.91124 9.13941 1.45238 8.49616C1.12951 8.45211 0.844626 8.26258 0.678978 7.98193C0.236599 8.56504 -0.00197972 9.27737 1.23746e-05 10.0094V11.6952H0.591157L0.571242 11.4743C0.487489 10.5537 0.537083 9.62585 0.718434 8.71948L1.23969 8.82367C1.06823 9.6799 1.02141 10.5565 1.10054 11.4262L1.22162 12.7584H3.72109V12.7096V12.7097C3.72267 11.0743 3.28809 9.46795 2.46218 8.05633C2.3535 8.20946 2.20658 8.33133 2.03591 8.40968L2.03587 8.4098ZM2.92377 11.9611H2.39211V11.4295H2.92363L2.92377 11.9611Z" fill="black"/>
<path d="M2.12706 14.3527C1.98027 14.3527 1.8613 14.2338 1.8613 14.087V13.2896H1.32965V14.087C1.32965 14.1574 1.30169 14.2251 1.25183 14.2749C1.20197 14.3246 1.13431 14.3527 1.06389 14.3527C0.922892 14.3529 0.787835 14.4089 0.688123 14.5086C0.588545 14.6082 0.53249 14.7434 0.532227 14.8842H2.6586C2.65847 14.7434 2.60241 14.6082 2.5027 14.5086C2.40313 14.4089 2.26792 14.3529 2.12706 14.3527Z" fill="black"/>
<path d="M11.5068 6.98877L10.4303 8.06528H10.4304C10.0331 8.46386 9.56018 8.77882 9.03933 8.9918C9.04118 9.02306 9.04263 9.05445 9.04263 9.08611C9.04276 9.25756 9.01375 9.4277 8.95703 9.5894C9.6542 9.35542 10.2874 8.96226 10.8064 8.44114L11.8829 7.36463L11.5068 6.98877Z" fill="black"/>
<path d="M6.00038 9.08613C6.00038 9.07465 6.00104 9.06331 6.0013 9.05183C5.41941 8.84068 4.89117 8.50384 4.45436 8.06528L3.37785 6.98877L3.00195 7.36467L4.07846 8.44117C4.64215 9.00727 5.34 9.42152 6.10695 9.64521C6.03652 9.46729 6.00024 9.2775 6.00038 9.08613Z" fill="black"/>
</svg>
