<svg width="12" height="15" viewBox="0 0 12 15" fill="none" xmlns="http://www.w3.org/2000/svg">
<path d="M1.46818 9.0376H0.936523V9.42498L1.46818 9.77052V9.0376Z" fill="black"/>
<path d="M1.46818 6.49561C1.13291 6.77152 0.937975 7.18251 0.936523 7.61655V8.50576H1.46804L1.46818 6.49561Z" fill="black"/>
<path d="M0.935547 10.0586V14.5975L4.06587 12.0933L0.935547 10.0586Z" fill="black"/>
<path d="M10.5039 6.49561V8.50576H11.0354V7.61655C11.034 7.18237 10.839 6.77153 10.5039 6.49561Z" fill="black"/>
<path d="M1.42773 14.8843H10.5441L5.98591 11.2378L1.42773 14.8843Z" fill="black"/>
<path d="M10.5039 9.77052L11.0354 9.42498V9.0376H10.5039V9.77052Z" fill="black"/>
<path d="M11.0364 14.5975V10.0586L7.90625 12.0933L11.0364 14.5975Z" fill="black"/>
<path d="M6.51714 2.12695C6.30572 2.12695 6.10285 2.21097 5.95331 2.36053C5.80374 2.50997 5.71973 2.71283 5.71973 2.92436C5.71973 3.13579 5.80374 3.33865 5.95331 3.48819C6.10287 3.63763 6.30574 3.72164 6.51714 3.72164C6.72869 3.72164 6.93143 3.63763 7.08097 3.48819C7.23053 3.33863 7.31455 3.13576 7.31455 2.92436C7.31429 2.71294 7.23014 2.51021 7.08071 2.3608C6.93127 2.21124 6.72854 2.12722 6.51714 2.12695Z" fill="black"/>
<path d="M9.78799 0.000134983H2.18394C2.08185 0.0002669 1.99916 0.0829619 1.99902 0.185048V10.1155L4.50339 11.7434L5.81979 10.6901C5.91686 10.6124 6.05495 10.6124 6.15203 10.6901L7.46856 11.7433L9.97293 10.1153V0.184913C9.9728 0.0828303 9.88997 0.000131681 9.78788 0L9.78799 0.000134983ZM3.32821 3.45557C3.3286 3.10328 3.46881 2.7654 3.71795 2.51625C3.96709 2.26711 4.30488 2.12705 4.65714 2.12664C4.71557 2.12664 4.77399 2.1306 4.83189 2.13812C4.7546 2.30311 4.70225 2.47853 4.67639 2.65883C4.66993 2.65883 4.6636 2.65817 4.65714 2.65817C4.40509 2.65817 4.16796 2.77714 4.01734 2.97933C3.86685 3.18152 3.82069 3.44291 3.89296 3.68429C3.96537 3.92578 4.14752 4.11887 4.3844 4.205C4.62129 4.29114 4.88492 4.26013 5.09545 4.12152C5.21283 4.26079 5.35 4.38213 5.50234 4.48185C5.2648 4.67863 4.96566 4.78573 4.65718 4.78454C4.30489 4.78414 3.96711 4.64407 3.718 4.39493C3.46885 4.14579 3.32866 3.80787 3.32826 3.45561L3.32821 3.45557ZM4.39138 6.91101H5.72031V7.44253L4.39138 7.44266V6.91101ZM7.58092 8.5057L4.39138 8.50583V7.97417H7.58092V8.5057ZM7.58092 7.44253L6.25199 7.44266V6.91101H7.58092V7.44253ZM7.58092 6.37936L4.39138 6.37949V5.84784H7.58092V6.37936ZM6.51775 4.25311C6.16532 4.25311 5.82731 4.11305 5.57802 3.86391C5.32888 3.61464 5.18882 3.27658 5.18882 2.92419C5.18882 2.57165 5.32889 2.23361 5.57802 1.98446C5.8273 1.73518 6.16535 1.59512 6.51775 1.59512C6.87015 1.59512 7.2082 1.73519 7.45748 1.98446C7.70676 2.2336 7.84668 2.57165 7.84668 2.92419C7.84629 3.27648 7.70622 3.61426 7.45708 3.86337C7.20793 4.11252 6.87015 4.25271 6.51775 4.25311ZM8.64413 1.86085L8.04336 1.86098C7.9844 1.77657 7.91872 1.6973 7.84671 1.62384V1.06356H8.26822L8.64412 1.43946L8.64413 1.86085Z" fill="black"/>
</svg>
